M48
; DRILL file {KiCad (5.1.4)-1} date Wed, 3/24/2021 12:36:00 AM
; FORMAT={-:-/ absolute / inch / decimal}
; #@! TF.CreationDate,2021-03-24T00:36:00-04:00
; #@! TF.GenerationSoftware,Kicad,Pcbnew,(5.1.4)-1
FMAT,2
INCH
T1C0.0394
T2C0.0433
%
G90
G05
T1
X6.6144Y-2.6984
X6.6144Y-2.7984
X6.6144Y-2.8984
X6.6144Y-2.9984
X6.6144Y-3.0984
X6.6144Y-3.1984
X6.6144Y-3.2984
X6.6144Y-3.3984
X6.6144Y-3.4984
X6.6144Y-3.5984
X6.6144Y-3.6984
X6.6144Y-3.7984
X6.6144Y-3.8984
X6.6144Y-3.9984
X6.6144Y-4.0984
X6.6144Y-4.1984
X6.6144Y-4.2984
X6.6144Y-4.3984
X6.6144Y-4.4984
X6.6144Y-4.5984
X6.7144Y-2.6984
X6.7144Y-2.7984
X6.7144Y-2.8984
X6.7144Y-2.9984
X6.7144Y-3.0984
X6.7144Y-3.1984
X6.7144Y-3.2984
X6.7144Y-3.3984
X6.7144Y-3.4984
X6.7144Y-3.5984
X6.7144Y-3.6984
X6.7144Y-3.7984
X6.7144Y-3.8984
X6.7144Y-3.9984
X6.7144Y-4.0984
X6.7144Y-4.1984
X6.7144Y-4.2984
X6.7144Y-4.3984
X6.7144Y-4.4984
X6.7144Y-4.5984
T2
X4.741Y-3.0456
X4.741Y-3.1456
X4.741Y-3.2456
X4.741Y-3.3456
X4.741Y-3.4456
X4.741Y-3.5456
X4.741Y-3.6456
X4.741Y-3.7456
X4.741Y-3.8456
X4.741Y-3.9456
X4.741Y-4.0456
X4.741Y-4.1456
X4.741Y-4.2456
X4.741Y-4.3456
X4.841Y-4.0456
X4.841Y-4.1456
X4.841Y-4.3456
X4.941Y-4.0456
X4.941Y-4.1456
X4.941Y-4.3456
X5.041Y-4.0456
X5.041Y-4.1456
X5.041Y-4.3456
X5.141Y-4.0456
X5.141Y-4.1456
X5.141Y-4.3456
X5.241Y-3.1456
X5.241Y-4.0456
X5.241Y-4.1456
X5.241Y-4.3456
X5.341Y-3.0456
X5.341Y-3.1456
X5.341Y-3.2456
X5.341Y-3.3456
X5.341Y-3.4456
X5.341Y-3.5456
X5.341Y-3.6456
X5.341Y-3.7456
X5.341Y-3.8456
X5.341Y-3.9456
X5.341Y-4.0456
X5.341Y-4.1456
X5.341Y-4.2456
X5.341Y-4.3456
T0
M30
