G04 #@! TF.GenerationSoftware,KiCad,Pcbnew,(5.1.4)-1*
G04 #@! TF.CreationDate,2021-03-24T00:35:57-04:00*
G04 #@! TF.ProjectId,RedBull_TeensyBreakout,52656442-756c-46c5-9f54-65656e737942,rev?*
G04 #@! TF.SameCoordinates,Original*
G04 #@! TF.FileFunction,Copper,L2,Bot*
G04 #@! TF.FilePolarity,Positive*
%FSLAX46Y46*%
G04 Gerber Fmt 4.6, Leading zero omitted, Abs format (unit mm)*
G04 Created by KiCad (PCBNEW (5.1.4)-1) date 2021-03-24 00:35:57*
%MOMM*%
%LPD*%
G04 APERTURE LIST*
%ADD10C,1.600000*%
%ADD11O,1.700000X1.700000*%
%ADD12R,1.700000X1.700000*%
%ADD13C,0.500000*%
G04 APERTURE END LIST*
D10*
X122961400Y-102758240D03*
X122961400Y-105298240D03*
X125501400Y-102758240D03*
X125501400Y-105298240D03*
X128041400Y-102758240D03*
X128041400Y-105298240D03*
X130581400Y-102758240D03*
X130581400Y-105298240D03*
X133121400Y-102758240D03*
X133121400Y-105298240D03*
X120421400Y-77358240D03*
X120421400Y-79898240D03*
X120421400Y-82438240D03*
X120421400Y-84978240D03*
X120421400Y-87518240D03*
X120421400Y-90058240D03*
X120421400Y-92598240D03*
X120421400Y-95138240D03*
X120421400Y-97678240D03*
X120421400Y-100218240D03*
X120421400Y-102758240D03*
X120421400Y-105298240D03*
X120421400Y-107838240D03*
X133121400Y-79898240D03*
X135661400Y-77358240D03*
X135661400Y-79898240D03*
X135661400Y-82438240D03*
X135661400Y-84978240D03*
X135661400Y-87518240D03*
X135661400Y-90058240D03*
X135661400Y-92598240D03*
X135661400Y-95138240D03*
X135661400Y-97678240D03*
X135661400Y-100218240D03*
X135661400Y-102758240D03*
X135661400Y-105298240D03*
X135661400Y-107838240D03*
X120421400Y-110378240D03*
X122961400Y-110378240D03*
X125501400Y-110378240D03*
X135661400Y-110378240D03*
X133121400Y-110378240D03*
X130581400Y-110378240D03*
X128041400Y-110378240D03*
D11*
X170545760Y-116799360D03*
X168005760Y-116799360D03*
X170545760Y-114259360D03*
X168005760Y-114259360D03*
X170545760Y-111719360D03*
X168005760Y-111719360D03*
X170545760Y-109179360D03*
X168005760Y-109179360D03*
X170545760Y-106639360D03*
X168005760Y-106639360D03*
X170545760Y-104099360D03*
X168005760Y-104099360D03*
X170545760Y-101559360D03*
X168005760Y-101559360D03*
X170545760Y-99019360D03*
X168005760Y-99019360D03*
X170545760Y-96479360D03*
X168005760Y-96479360D03*
X170545760Y-93939360D03*
X168005760Y-93939360D03*
X170545760Y-91399360D03*
X168005760Y-91399360D03*
X170545760Y-88859360D03*
X168005760Y-88859360D03*
X170545760Y-86319360D03*
X168005760Y-86319360D03*
X170545760Y-83779360D03*
X168005760Y-83779360D03*
X170545760Y-81239360D03*
X168005760Y-81239360D03*
X170545760Y-78699360D03*
X168005760Y-78699360D03*
X170545760Y-76159360D03*
X168005760Y-76159360D03*
X170545760Y-73619360D03*
X168005760Y-73619360D03*
X170545760Y-71079360D03*
X168005760Y-71079360D03*
X170545760Y-68539360D03*
D12*
X168005760Y-68539360D03*
D13*
X126205639Y-118280361D02*
X117627400Y-109702122D01*
X171256641Y-118280361D02*
X126205639Y-118280361D01*
X172026761Y-117510241D02*
X171256641Y-118280361D01*
X170545760Y-111719360D02*
X172026761Y-113200361D01*
X172026761Y-113200361D02*
X172026761Y-117510241D01*
X117627400Y-109702122D02*
X117627400Y-102920800D01*
X117627400Y-102920800D02*
X120319800Y-100228400D01*
X168005760Y-109179360D02*
X135712200Y-102717600D01*
X172907770Y-117875168D02*
X170590138Y-120192800D01*
X170545760Y-106639360D02*
X172907771Y-109001371D01*
X172907771Y-109001371D02*
X172907770Y-117875168D01*
X116746390Y-110067048D02*
X116746390Y-98696410D01*
X170590138Y-120192800D02*
X126872142Y-120192800D01*
X126872142Y-120192800D02*
X116746390Y-110067048D01*
X116746390Y-98696410D02*
X120116600Y-95021400D01*
X168005760Y-106639360D02*
X135712200Y-100304600D01*
X168005760Y-104099360D02*
X135356600Y-97840800D01*
X173788780Y-65405644D02*
X172010136Y-63627000D01*
X170545760Y-88859360D02*
X173788780Y-85616340D01*
X173788780Y-85616340D02*
X173788780Y-65405644D01*
X118109389Y-72568411D02*
X118109389Y-87807189D01*
X172010136Y-63627000D02*
X127050800Y-63627000D01*
X127050800Y-63627000D02*
X118109389Y-72568411D01*
X118109389Y-87807189D02*
X120319800Y-90017600D01*
X120319800Y-90017600D02*
X120370600Y-90017600D01*
X172907771Y-83957349D02*
X172907771Y-65770571D01*
X170545760Y-86319360D02*
X172907771Y-83957349D01*
X118990399Y-76671359D02*
X118990399Y-83481199D01*
X130365419Y-65296339D02*
X118990399Y-76671359D01*
X172907771Y-65770571D02*
X172433539Y-65296339D01*
X172433539Y-65296339D02*
X130365419Y-65296339D01*
X118990399Y-83481199D02*
X120396000Y-84886800D01*
X120396000Y-84886800D02*
X120421400Y-84886800D01*
X168005760Y-86319360D02*
X135432800Y-95427800D01*
X168005760Y-83779360D02*
X135559800Y-90170000D01*
X168005760Y-81239360D02*
X135509000Y-87833200D01*
X168005760Y-76159360D02*
X135864600Y-84836000D01*
X134230399Y-76671359D02*
X134230399Y-78375799D01*
X170197642Y-73619360D02*
X172026761Y-71790241D01*
X170545760Y-73619360D02*
X170197642Y-73619360D01*
X172026761Y-71790241D02*
X172026761Y-67572344D01*
X172026761Y-67572344D02*
X170631766Y-66177349D01*
X170631766Y-66177349D02*
X144724409Y-66177349D01*
X144724409Y-66177349D02*
X134230399Y-76671359D01*
X134230399Y-78375799D02*
X135610600Y-79756000D01*
X135610600Y-79756000D02*
X135610600Y-79806800D01*
X170266840Y-67058359D02*
X146047641Y-67058359D01*
X170545760Y-68539360D02*
X170545760Y-67337279D01*
X170545760Y-67337279D02*
X170266840Y-67058359D01*
X146047641Y-67058359D02*
X135636000Y-77470000D01*
M02*
