G04 #@! TF.GenerationSoftware,KiCad,Pcbnew,(5.1.4)-1*
G04 #@! TF.CreationDate,2021-10-19T21:09:16-04:00*
G04 #@! TF.ProjectId,RB_switch_pcb_REV2,52425f73-7769-4746-9368-5f7063625f52,rev?*
G04 #@! TF.SameCoordinates,Original*
G04 #@! TF.FileFunction,Soldermask,Bot*
G04 #@! TF.FilePolarity,Negative*
%FSLAX46Y46*%
G04 Gerber Fmt 4.6, Leading zero omitted, Abs format (unit mm)*
G04 Created by KiCad (PCBNEW (5.1.4)-1) date 2021-10-19 21:09:16*
%MOMM*%
%LPD*%
G04 APERTURE LIST*
%ADD10C,0.150000*%
%ADD11C,10.000000*%
%ADD12C,1.600000*%
%ADD13R,1.600000X1.600000*%
%ADD14C,3.000000*%
%ADD15O,2.400000X1.600000*%
%ADD16R,2.400000X1.600000*%
%ADD17C,1.900000*%
%ADD18C,2.850000*%
%ADD19R,2.850000X2.850000*%
%ADD20C,1.600000*%
%ADD21O,1.600000X1.600000*%
%ADD22C,2.400000*%
%ADD23R,2.400000X2.400000*%
%ADD24O,2.000000X3.600000*%
%ADD25C,0.100000*%
%ADD26C,2.000000*%
%ADD27O,1.700000X1.700000*%
%ADD28R,1.700000X1.700000*%
%ADD29C,1.400000*%
%ADD30R,1.400000X1.400000*%
%ADD31O,6.000000X3.250000*%
%ADD32C,3.200000*%
%ADD33C,1.800000*%
%ADD34C,1.800000*%
G04 APERTURE END LIST*
D10*
X122699151Y-89299960D02*
G75*
G02X141223999Y-78232001I12936849J-616040D01*
G01*
X131928246Y-72904218D02*
G75*
G02X124968001Y-75183999I-5436246J4832218D01*
G01*
X158149453Y-66548000D02*
G75*
G03X158149453Y-66548000I-7273453J0D01*
G01*
X152970538Y-66548000D02*
G75*
G03X152970538Y-66548000I-2094538J0D01*
G01*
X154940000Y-66548000D02*
G75*
G03X154940000Y-66548000I-5588000J0D01*
G01*
X163624272Y-67056000D02*
G75*
G03X163624272Y-67056000I-10716272J0D01*
G01*
D11*
X78232000Y-42672000D03*
X77724000Y-145796000D03*
X193040000Y-145796000D03*
X193040000Y-43180000D03*
D12*
X191516000Y-77612000D03*
X191516000Y-75112000D03*
X191516000Y-73112000D03*
D13*
X191516000Y-70612000D03*
D14*
X188806000Y-67542000D03*
X188806000Y-80682000D03*
D15*
X157988000Y-89916000D03*
X150368000Y-105156000D03*
X157988000Y-92456000D03*
X150368000Y-102616000D03*
X157988000Y-94996000D03*
X150368000Y-100076000D03*
X157988000Y-97536000D03*
X150368000Y-97536000D03*
X157988000Y-100076000D03*
X150368000Y-94996000D03*
X157988000Y-102616000D03*
X150368000Y-92456000D03*
X157988000Y-105156000D03*
D16*
X150368000Y-89916000D03*
D17*
X106356892Y-76255437D03*
X102546892Y-76255437D03*
D13*
X112706892Y-68635437D03*
D12*
X110166892Y-68635437D03*
X107626892Y-68635437D03*
X105086892Y-68635437D03*
X102546892Y-68635437D03*
X100006892Y-68635437D03*
X97466892Y-68635437D03*
X94926892Y-68635437D03*
X92386892Y-68635437D03*
X89846892Y-68635437D03*
X87306892Y-68635437D03*
X84766892Y-68635437D03*
X82226892Y-68635437D03*
X100006892Y-81335437D03*
X102546892Y-81335437D03*
X105086892Y-81335437D03*
X110166892Y-81335437D03*
X112706892Y-83875437D03*
X110166892Y-83875437D03*
X107626892Y-83875437D03*
X105086892Y-83875437D03*
X102546892Y-83875437D03*
X100006892Y-83875437D03*
X97466892Y-83875437D03*
X94926892Y-83875437D03*
X92386892Y-83875437D03*
X89846892Y-83875437D03*
X87306892Y-83875437D03*
X84766892Y-83875437D03*
X82226892Y-83875437D03*
X79686892Y-68635437D03*
X79686892Y-71175437D03*
X79686892Y-73715437D03*
X79686892Y-83875437D03*
X79686892Y-81335437D03*
X79686892Y-78795437D03*
X79686892Y-76255437D03*
D18*
X125728000Y-121412000D03*
X130428000Y-121412000D03*
D19*
X135128000Y-121412000D03*
D12*
X175332205Y-104067795D03*
D20*
X175332205Y-104067795D02*
X175332205Y-104067795D01*
D12*
X168148000Y-111252000D03*
D21*
X149352000Y-115824000D03*
D12*
X159512000Y-115824000D03*
D22*
X108712000Y-137900000D03*
X108712000Y-132450000D03*
D23*
X108712000Y-127000000D03*
D24*
X129928000Y-134112000D03*
D25*
G36*
X123202504Y-132313204D02*
G01*
X123226773Y-132316804D01*
X123250571Y-132322765D01*
X123273671Y-132331030D01*
X123295849Y-132341520D01*
X123316893Y-132354133D01*
X123336598Y-132368747D01*
X123354777Y-132385223D01*
X123371253Y-132403402D01*
X123385867Y-132423107D01*
X123398480Y-132444151D01*
X123408970Y-132466329D01*
X123417235Y-132489429D01*
X123423196Y-132513227D01*
X123426796Y-132537496D01*
X123428000Y-132562000D01*
X123428000Y-135662000D01*
X123426796Y-135686504D01*
X123423196Y-135710773D01*
X123417235Y-135734571D01*
X123408970Y-135757671D01*
X123398480Y-135779849D01*
X123385867Y-135800893D01*
X123371253Y-135820598D01*
X123354777Y-135838777D01*
X123336598Y-135855253D01*
X123316893Y-135869867D01*
X123295849Y-135882480D01*
X123273671Y-135892970D01*
X123250571Y-135901235D01*
X123226773Y-135907196D01*
X123202504Y-135910796D01*
X123178000Y-135912000D01*
X121678000Y-135912000D01*
X121653496Y-135910796D01*
X121629227Y-135907196D01*
X121605429Y-135901235D01*
X121582329Y-135892970D01*
X121560151Y-135882480D01*
X121539107Y-135869867D01*
X121519402Y-135855253D01*
X121501223Y-135838777D01*
X121484747Y-135820598D01*
X121470133Y-135800893D01*
X121457520Y-135779849D01*
X121447030Y-135757671D01*
X121438765Y-135734571D01*
X121432804Y-135710773D01*
X121429204Y-135686504D01*
X121428000Y-135662000D01*
X121428000Y-132562000D01*
X121429204Y-132537496D01*
X121432804Y-132513227D01*
X121438765Y-132489429D01*
X121447030Y-132466329D01*
X121457520Y-132444151D01*
X121470133Y-132423107D01*
X121484747Y-132403402D01*
X121501223Y-132385223D01*
X121519402Y-132368747D01*
X121539107Y-132354133D01*
X121560151Y-132341520D01*
X121582329Y-132331030D01*
X121605429Y-132322765D01*
X121629227Y-132316804D01*
X121653496Y-132313204D01*
X121678000Y-132312000D01*
X123178000Y-132312000D01*
X123202504Y-132313204D01*
X123202504Y-132313204D01*
G37*
D26*
X122428000Y-134112000D03*
D24*
X172092000Y-135128000D03*
D25*
G36*
X165366504Y-133329204D02*
G01*
X165390773Y-133332804D01*
X165414571Y-133338765D01*
X165437671Y-133347030D01*
X165459849Y-133357520D01*
X165480893Y-133370133D01*
X165500598Y-133384747D01*
X165518777Y-133401223D01*
X165535253Y-133419402D01*
X165549867Y-133439107D01*
X165562480Y-133460151D01*
X165572970Y-133482329D01*
X165581235Y-133505429D01*
X165587196Y-133529227D01*
X165590796Y-133553496D01*
X165592000Y-133578000D01*
X165592000Y-136678000D01*
X165590796Y-136702504D01*
X165587196Y-136726773D01*
X165581235Y-136750571D01*
X165572970Y-136773671D01*
X165562480Y-136795849D01*
X165549867Y-136816893D01*
X165535253Y-136836598D01*
X165518777Y-136854777D01*
X165500598Y-136871253D01*
X165480893Y-136885867D01*
X165459849Y-136898480D01*
X165437671Y-136908970D01*
X165414571Y-136917235D01*
X165390773Y-136923196D01*
X165366504Y-136926796D01*
X165342000Y-136928000D01*
X163842000Y-136928000D01*
X163817496Y-136926796D01*
X163793227Y-136923196D01*
X163769429Y-136917235D01*
X163746329Y-136908970D01*
X163724151Y-136898480D01*
X163703107Y-136885867D01*
X163683402Y-136871253D01*
X163665223Y-136854777D01*
X163648747Y-136836598D01*
X163634133Y-136816893D01*
X163621520Y-136795849D01*
X163611030Y-136773671D01*
X163602765Y-136750571D01*
X163596804Y-136726773D01*
X163593204Y-136702504D01*
X163592000Y-136678000D01*
X163592000Y-133578000D01*
X163593204Y-133553496D01*
X163596804Y-133529227D01*
X163602765Y-133505429D01*
X163611030Y-133482329D01*
X163621520Y-133460151D01*
X163634133Y-133439107D01*
X163648747Y-133419402D01*
X163665223Y-133401223D01*
X163683402Y-133384747D01*
X163703107Y-133370133D01*
X163724151Y-133357520D01*
X163746329Y-133347030D01*
X163769429Y-133338765D01*
X163793227Y-133332804D01*
X163817496Y-133329204D01*
X163842000Y-133328000D01*
X165342000Y-133328000D01*
X165366504Y-133329204D01*
X165366504Y-133329204D01*
G37*
D26*
X164592000Y-135128000D03*
D27*
X97536000Y-53848000D03*
X97536000Y-56388000D03*
X94996000Y-53848000D03*
X94996000Y-56388000D03*
X92456000Y-53848000D03*
X92456000Y-56388000D03*
X89916000Y-53848000D03*
X89916000Y-56388000D03*
X87376000Y-53848000D03*
X87376000Y-56388000D03*
X84836000Y-53848000D03*
X84836000Y-56388000D03*
X82296000Y-53848000D03*
X82296000Y-56388000D03*
X79756000Y-53848000D03*
D28*
X79756000Y-56388000D03*
D29*
X184404000Y-55372000D03*
D14*
X181694000Y-50602000D03*
D30*
X184404000Y-57872000D03*
D29*
X181204000Y-55372000D03*
X181204000Y-57872000D03*
D14*
X181694000Y-62642000D03*
D31*
X92456000Y-99614000D03*
X92456000Y-137114000D03*
D32*
X92456000Y-118364000D03*
D33*
X175592064Y-95238616D03*
D34*
X175592064Y-95238616D02*
X175592064Y-95238616D01*
D33*
X171704000Y-85852000D03*
D25*
G36*
X170528093Y-85364924D02*
G01*
X172191076Y-84676093D01*
X172879907Y-86339076D01*
X171216924Y-87027907D01*
X170528093Y-85364924D01*
X170528093Y-85364924D01*
G37*
D33*
X138756205Y-110308205D03*
D34*
X138756205Y-110308205D02*
X138756205Y-110308205D01*
D33*
X131572000Y-103124000D03*
D25*
G36*
X130299208Y-103124000D02*
G01*
X131572000Y-101851208D01*
X132844792Y-103124000D01*
X131572000Y-104396792D01*
X130299208Y-103124000D01*
X130299208Y-103124000D01*
G37*
M02*
