M48
; DRILL file {KiCad (5.1.4)-1} date Tue 10/19/2021 9:09:25 PM
; FORMAT={-:-/ absolute / inch / decimal}
; #@! TF.CreationDate,2021-10-19T21:09:25-04:00
; #@! TF.GenerationSoftware,Kicad,Pcbnew,(5.1.4)-1
FMAT,2
INCH
T1C0.0197
T2C0.0315
T3C0.0354
T4C0.0362
T5C0.0394
T6C0.0433
T7C0.0512
T8C0.0551
T9C0.0728
T10C0.0906
T11C0.1969
T12C0.1260
%
G90
G05
T1
X4.0373Y-3.0022
X4.1873Y-3.0022
T2
X5.88Y-4.56
X6.28Y-4.56
X5.92Y-3.54
X5.92Y-3.64
X5.92Y-3.74
X5.92Y-3.84
X5.92Y-3.94
X5.92Y-4.04
X5.92Y-4.14
X6.22Y-3.54
X6.22Y-3.64
X6.22Y-3.74
X6.22Y-3.84
X6.22Y-3.94
X6.22Y-4.04
X6.22Y-4.14
X6.62Y-4.38
X6.9028Y-4.0972
T3
X6.76Y-3.38
X6.9131Y-3.7496
X5.18Y-4.06
X5.4628Y-4.3428
T4
X7.134Y-2.18
X7.134Y-2.2784
X7.26Y-2.18
X7.26Y-2.2784
X7.54Y-2.78
X7.54Y-2.8784
X7.54Y-2.9572
X7.54Y-3.0556
T5
X3.14Y-2.12
X3.14Y-2.22
X3.24Y-2.12
X3.24Y-2.22
X3.34Y-2.12
X3.34Y-2.22
X3.44Y-2.12
X3.44Y-2.22
X3.54Y-2.12
X3.54Y-2.22
X3.64Y-2.12
X3.64Y-2.22
X3.74Y-2.12
X3.74Y-2.22
X3.84Y-2.12
X3.84Y-2.22
T6
X3.1373Y-2.7022
X3.1373Y-2.8022
X3.1373Y-2.9022
X3.1373Y-3.0022
X3.1373Y-3.1022
X3.1373Y-3.2022
X3.1373Y-3.3022
X3.2373Y-2.7022
X3.2373Y-3.3022
X3.3373Y-2.7022
X3.3373Y-3.3022
X3.4373Y-2.7022
X3.4373Y-3.3022
X3.5373Y-2.7022
X3.5373Y-3.3022
X3.6373Y-2.7022
X3.6373Y-3.3022
X3.7373Y-2.7022
X3.7373Y-3.3022
X3.8373Y-2.7022
X3.8373Y-3.3022
X3.9373Y-2.7022
X3.9373Y-3.2022
X3.9373Y-3.3022
X4.0373Y-2.7022
X4.0373Y-3.2022
X4.0373Y-3.3022
X4.1373Y-2.7022
X4.1373Y-3.2022
X4.1373Y-3.3022
X4.2373Y-2.7022
X4.2373Y-3.3022
X4.3373Y-2.7022
X4.3373Y-3.2022
X4.3373Y-3.3022
X4.4373Y-2.7022
X4.4373Y-3.3022
T7
X3.64Y-3.9218
X3.64Y-5.3982
T8
X4.82Y-5.28
X5.1153Y-5.28
X6.48Y-5.32
X6.7753Y-5.32
X4.28Y-5.0
X4.28Y-5.2146
X4.28Y-5.4291
T9
X4.9499Y-4.78
X5.135Y-4.78
X5.32Y-4.78
T10
X7.1533Y-1.9922
X7.1533Y-2.4662
X7.4333Y-2.6591
X7.4333Y-3.1765
T11
X3.08Y-1.68
X7.6Y-5.74
X7.6Y-1.7
X3.06Y-5.74
T12
X3.64Y-4.66
T0
M30
