G04 #@! TF.GenerationSoftware,KiCad,Pcbnew,(5.1.4)-1*
G04 #@! TF.CreationDate,2021-10-19T21:09:15-04:00*
G04 #@! TF.ProjectId,RB_switch_pcb_REV2,52425f73-7769-4746-9368-5f7063625f52,rev?*
G04 #@! TF.SameCoordinates,Original*
G04 #@! TF.FileFunction,Copper,L1,Top*
G04 #@! TF.FilePolarity,Positive*
%FSLAX46Y46*%
G04 Gerber Fmt 4.6, Leading zero omitted, Abs format (unit mm)*
G04 Created by KiCad (PCBNEW (5.1.4)-1) date 2021-10-19 21:09:15*
%MOMM*%
%LPD*%
G04 APERTURE LIST*
%ADD10C,0.100000*%
%ADD11C,0.250000*%
%ADD12C,10.000000*%
%ADD13C,1.600000*%
%ADD14R,1.600000X1.600000*%
%ADD15C,3.000000*%
%ADD16O,2.400000X1.600000*%
%ADD17R,2.400000X1.600000*%
%ADD18C,1.900000*%
%ADD19C,2.850000*%
%ADD20R,2.850000X2.850000*%
%ADD21C,1.600000*%
%ADD22O,1.600000X1.600000*%
%ADD23C,2.400000*%
%ADD24R,2.400000X2.400000*%
%ADD25O,2.000000X3.600000*%
%ADD26C,2.000000*%
%ADD27O,1.700000X1.700000*%
%ADD28R,1.700000X1.700000*%
%ADD29C,1.400000*%
%ADD30R,1.400000X1.400000*%
%ADD31O,6.000000X3.250000*%
%ADD32C,1.800000*%
%ADD33C,1.800000*%
%ADD34C,1.270000*%
%ADD35C,0.889000*%
G04 APERTURE END LIST*
D10*
G36*
X110394750Y-142779750D02*
G01*
X93980000Y-144780000D01*
X92932250Y-141319250D01*
X110394750Y-142779750D01*
G37*
X110394750Y-142779750D02*
X93980000Y-144780000D01*
X92932250Y-141319250D01*
X110394750Y-142779750D01*
G36*
X80010000Y-146812000D02*
G01*
X74676000Y-150368000D01*
X73406000Y-145796000D01*
X80010000Y-146812000D01*
G37*
X80010000Y-146812000D02*
X74676000Y-150368000D01*
X73406000Y-145796000D01*
X80010000Y-146812000D01*
G36*
X82804000Y-132588000D02*
G01*
X77470000Y-136144000D01*
X76200000Y-131572000D01*
X82804000Y-132588000D01*
G37*
X82804000Y-132588000D02*
X77470000Y-136144000D01*
X76200000Y-131572000D01*
X82804000Y-132588000D01*
D11*
X94321904Y-145248380D02*
X94512380Y-145248380D01*
X94607619Y-145296000D01*
X94702857Y-145391238D01*
X94750476Y-145581714D01*
X94750476Y-145915047D01*
X94702857Y-146105523D01*
X94607619Y-146200761D01*
X94512380Y-146248380D01*
X94321904Y-146248380D01*
X94226666Y-146200761D01*
X94131428Y-146105523D01*
X94083809Y-145915047D01*
X94083809Y-145581714D01*
X94131428Y-145391238D01*
X94226666Y-145296000D01*
X94321904Y-145248380D01*
X95607619Y-146200761D02*
X95512380Y-146248380D01*
X95321904Y-146248380D01*
X95226666Y-146200761D01*
X95179047Y-146153142D01*
X95131428Y-146057904D01*
X95131428Y-145772190D01*
X95179047Y-145676952D01*
X95226666Y-145629333D01*
X95321904Y-145581714D01*
X95512380Y-145581714D01*
X95607619Y-145629333D01*
X95893333Y-145581714D02*
X96274285Y-145581714D01*
X96036190Y-145248380D02*
X96036190Y-146105523D01*
X96083809Y-146200761D01*
X96179047Y-146248380D01*
X96274285Y-146248380D01*
X96750476Y-146248380D02*
X96655238Y-146200761D01*
X96607619Y-146153142D01*
X96560000Y-146057904D01*
X96560000Y-145772190D01*
X96607619Y-145676952D01*
X96655238Y-145629333D01*
X96750476Y-145581714D01*
X96893333Y-145581714D01*
X96988571Y-145629333D01*
X97036190Y-145676952D01*
X97083809Y-145772190D01*
X97083809Y-146057904D01*
X97036190Y-146153142D01*
X96988571Y-146200761D01*
X96893333Y-146248380D01*
X96750476Y-146248380D01*
X97512380Y-146248380D02*
X97512380Y-145248380D01*
X97512380Y-145629333D02*
X97607619Y-145581714D01*
X97798095Y-145581714D01*
X97893333Y-145629333D01*
X97940952Y-145676952D01*
X97988571Y-145772190D01*
X97988571Y-146057904D01*
X97940952Y-146153142D01*
X97893333Y-146200761D01*
X97798095Y-146248380D01*
X97607619Y-146248380D01*
X97512380Y-146200761D01*
X98798095Y-146200761D02*
X98702857Y-146248380D01*
X98512380Y-146248380D01*
X98417142Y-146200761D01*
X98369523Y-146105523D01*
X98369523Y-145724571D01*
X98417142Y-145629333D01*
X98512380Y-145581714D01*
X98702857Y-145581714D01*
X98798095Y-145629333D01*
X98845714Y-145724571D01*
X98845714Y-145819809D01*
X98369523Y-145915047D01*
X99274285Y-146248380D02*
X99274285Y-145581714D01*
X99274285Y-145772190D02*
X99321904Y-145676952D01*
X99369523Y-145629333D01*
X99464761Y-145581714D01*
X99560000Y-145581714D01*
X100607619Y-145343619D02*
X100655238Y-145296000D01*
X100750476Y-145248380D01*
X100988571Y-145248380D01*
X101083809Y-145296000D01*
X101131428Y-145343619D01*
X101179047Y-145438857D01*
X101179047Y-145534095D01*
X101131428Y-145676952D01*
X100560000Y-146248380D01*
X101179047Y-146248380D01*
X101798095Y-145248380D02*
X101893333Y-145248380D01*
X101988571Y-145296000D01*
X102036190Y-145343619D01*
X102083809Y-145438857D01*
X102131428Y-145629333D01*
X102131428Y-145867428D01*
X102083809Y-146057904D01*
X102036190Y-146153142D01*
X101988571Y-146200761D01*
X101893333Y-146248380D01*
X101798095Y-146248380D01*
X101702857Y-146200761D01*
X101655238Y-146153142D01*
X101607619Y-146057904D01*
X101560000Y-145867428D01*
X101560000Y-145629333D01*
X101607619Y-145438857D01*
X101655238Y-145343619D01*
X101702857Y-145296000D01*
X101798095Y-145248380D01*
X102512380Y-145343619D02*
X102560000Y-145296000D01*
X102655238Y-145248380D01*
X102893333Y-145248380D01*
X102988571Y-145296000D01*
X103036190Y-145343619D01*
X103083809Y-145438857D01*
X103083809Y-145534095D01*
X103036190Y-145676952D01*
X102464761Y-146248380D01*
X103083809Y-146248380D01*
X104036190Y-146248380D02*
X103464761Y-146248380D01*
X103750476Y-146248380D02*
X103750476Y-145248380D01*
X103655238Y-145391238D01*
X103560000Y-145486476D01*
X103464761Y-145534095D01*
D12*
X78232000Y-42672000D03*
X77724000Y-145796000D03*
X193040000Y-145796000D03*
X193040000Y-43180000D03*
D13*
X191516000Y-77612000D03*
X191516000Y-75112000D03*
X191516000Y-73112000D03*
D14*
X191516000Y-70612000D03*
D15*
X188806000Y-67542000D03*
X188806000Y-80682000D03*
D16*
X157988000Y-89916000D03*
X150368000Y-105156000D03*
X157988000Y-92456000D03*
X150368000Y-102616000D03*
X157988000Y-94996000D03*
X150368000Y-100076000D03*
X157988000Y-97536000D03*
X150368000Y-97536000D03*
X157988000Y-100076000D03*
X150368000Y-94996000D03*
X157988000Y-102616000D03*
X150368000Y-92456000D03*
X157988000Y-105156000D03*
D17*
X150368000Y-89916000D03*
D18*
X106356892Y-76255437D03*
X102546892Y-76255437D03*
D14*
X112706892Y-68635437D03*
D13*
X110166892Y-68635437D03*
X107626892Y-68635437D03*
X105086892Y-68635437D03*
X102546892Y-68635437D03*
X100006892Y-68635437D03*
X97466892Y-68635437D03*
X94926892Y-68635437D03*
X92386892Y-68635437D03*
X89846892Y-68635437D03*
X87306892Y-68635437D03*
X84766892Y-68635437D03*
X82226892Y-68635437D03*
X100006892Y-81335437D03*
X102546892Y-81335437D03*
X105086892Y-81335437D03*
X110166892Y-81335437D03*
X112706892Y-83875437D03*
X110166892Y-83875437D03*
X107626892Y-83875437D03*
X105086892Y-83875437D03*
X102546892Y-83875437D03*
X100006892Y-83875437D03*
X97466892Y-83875437D03*
X94926892Y-83875437D03*
X92386892Y-83875437D03*
X89846892Y-83875437D03*
X87306892Y-83875437D03*
X84766892Y-83875437D03*
X82226892Y-83875437D03*
X79686892Y-68635437D03*
X79686892Y-71175437D03*
X79686892Y-73715437D03*
X79686892Y-83875437D03*
X79686892Y-81335437D03*
X79686892Y-78795437D03*
X79686892Y-76255437D03*
D19*
X125728000Y-121412000D03*
X130428000Y-121412000D03*
D20*
X135128000Y-121412000D03*
D13*
X175332205Y-104067795D03*
D21*
X175332205Y-104067795D02*
X175332205Y-104067795D01*
D13*
X168148000Y-111252000D03*
D22*
X149352000Y-115824000D03*
D13*
X159512000Y-115824000D03*
D23*
X108712000Y-137900000D03*
X108712000Y-132450000D03*
D24*
X108712000Y-127000000D03*
D25*
X129928000Y-134112000D03*
D10*
G36*
X123202504Y-132313204D02*
G01*
X123226773Y-132316804D01*
X123250571Y-132322765D01*
X123273671Y-132331030D01*
X123295849Y-132341520D01*
X123316893Y-132354133D01*
X123336598Y-132368747D01*
X123354777Y-132385223D01*
X123371253Y-132403402D01*
X123385867Y-132423107D01*
X123398480Y-132444151D01*
X123408970Y-132466329D01*
X123417235Y-132489429D01*
X123423196Y-132513227D01*
X123426796Y-132537496D01*
X123428000Y-132562000D01*
X123428000Y-135662000D01*
X123426796Y-135686504D01*
X123423196Y-135710773D01*
X123417235Y-135734571D01*
X123408970Y-135757671D01*
X123398480Y-135779849D01*
X123385867Y-135800893D01*
X123371253Y-135820598D01*
X123354777Y-135838777D01*
X123336598Y-135855253D01*
X123316893Y-135869867D01*
X123295849Y-135882480D01*
X123273671Y-135892970D01*
X123250571Y-135901235D01*
X123226773Y-135907196D01*
X123202504Y-135910796D01*
X123178000Y-135912000D01*
X121678000Y-135912000D01*
X121653496Y-135910796D01*
X121629227Y-135907196D01*
X121605429Y-135901235D01*
X121582329Y-135892970D01*
X121560151Y-135882480D01*
X121539107Y-135869867D01*
X121519402Y-135855253D01*
X121501223Y-135838777D01*
X121484747Y-135820598D01*
X121470133Y-135800893D01*
X121457520Y-135779849D01*
X121447030Y-135757671D01*
X121438765Y-135734571D01*
X121432804Y-135710773D01*
X121429204Y-135686504D01*
X121428000Y-135662000D01*
X121428000Y-132562000D01*
X121429204Y-132537496D01*
X121432804Y-132513227D01*
X121438765Y-132489429D01*
X121447030Y-132466329D01*
X121457520Y-132444151D01*
X121470133Y-132423107D01*
X121484747Y-132403402D01*
X121501223Y-132385223D01*
X121519402Y-132368747D01*
X121539107Y-132354133D01*
X121560151Y-132341520D01*
X121582329Y-132331030D01*
X121605429Y-132322765D01*
X121629227Y-132316804D01*
X121653496Y-132313204D01*
X121678000Y-132312000D01*
X123178000Y-132312000D01*
X123202504Y-132313204D01*
X123202504Y-132313204D01*
G37*
D26*
X122428000Y-134112000D03*
D25*
X172092000Y-135128000D03*
D10*
G36*
X165366504Y-133329204D02*
G01*
X165390773Y-133332804D01*
X165414571Y-133338765D01*
X165437671Y-133347030D01*
X165459849Y-133357520D01*
X165480893Y-133370133D01*
X165500598Y-133384747D01*
X165518777Y-133401223D01*
X165535253Y-133419402D01*
X165549867Y-133439107D01*
X165562480Y-133460151D01*
X165572970Y-133482329D01*
X165581235Y-133505429D01*
X165587196Y-133529227D01*
X165590796Y-133553496D01*
X165592000Y-133578000D01*
X165592000Y-136678000D01*
X165590796Y-136702504D01*
X165587196Y-136726773D01*
X165581235Y-136750571D01*
X165572970Y-136773671D01*
X165562480Y-136795849D01*
X165549867Y-136816893D01*
X165535253Y-136836598D01*
X165518777Y-136854777D01*
X165500598Y-136871253D01*
X165480893Y-136885867D01*
X165459849Y-136898480D01*
X165437671Y-136908970D01*
X165414571Y-136917235D01*
X165390773Y-136923196D01*
X165366504Y-136926796D01*
X165342000Y-136928000D01*
X163842000Y-136928000D01*
X163817496Y-136926796D01*
X163793227Y-136923196D01*
X163769429Y-136917235D01*
X163746329Y-136908970D01*
X163724151Y-136898480D01*
X163703107Y-136885867D01*
X163683402Y-136871253D01*
X163665223Y-136854777D01*
X163648747Y-136836598D01*
X163634133Y-136816893D01*
X163621520Y-136795849D01*
X163611030Y-136773671D01*
X163602765Y-136750571D01*
X163596804Y-136726773D01*
X163593204Y-136702504D01*
X163592000Y-136678000D01*
X163592000Y-133578000D01*
X163593204Y-133553496D01*
X163596804Y-133529227D01*
X163602765Y-133505429D01*
X163611030Y-133482329D01*
X163621520Y-133460151D01*
X163634133Y-133439107D01*
X163648747Y-133419402D01*
X163665223Y-133401223D01*
X163683402Y-133384747D01*
X163703107Y-133370133D01*
X163724151Y-133357520D01*
X163746329Y-133347030D01*
X163769429Y-133338765D01*
X163793227Y-133332804D01*
X163817496Y-133329204D01*
X163842000Y-133328000D01*
X165342000Y-133328000D01*
X165366504Y-133329204D01*
X165366504Y-133329204D01*
G37*
D26*
X164592000Y-135128000D03*
D27*
X97536000Y-53848000D03*
X97536000Y-56388000D03*
X94996000Y-53848000D03*
X94996000Y-56388000D03*
X92456000Y-53848000D03*
X92456000Y-56388000D03*
X89916000Y-53848000D03*
X89916000Y-56388000D03*
X87376000Y-53848000D03*
X87376000Y-56388000D03*
X84836000Y-53848000D03*
X84836000Y-56388000D03*
X82296000Y-53848000D03*
X82296000Y-56388000D03*
X79756000Y-53848000D03*
D28*
X79756000Y-56388000D03*
D29*
X184404000Y-55372000D03*
D15*
X181694000Y-50602000D03*
D30*
X184404000Y-57872000D03*
D29*
X181204000Y-55372000D03*
X181204000Y-57872000D03*
D15*
X181694000Y-62642000D03*
D31*
X92456000Y-99614000D03*
X92456000Y-137114000D03*
D32*
X175592064Y-95238616D03*
D33*
X175592064Y-95238616D02*
X175592064Y-95238616D01*
D32*
X171704000Y-85852000D03*
D10*
G36*
X170528093Y-85364924D02*
G01*
X172191076Y-84676093D01*
X172879907Y-86339076D01*
X171216924Y-87027907D01*
X170528093Y-85364924D01*
X170528093Y-85364924D01*
G37*
D32*
X138756205Y-110308205D03*
D33*
X138756205Y-110308205D02*
X138756205Y-110308205D01*
D32*
X131572000Y-103124000D03*
D10*
G36*
X130299208Y-103124000D02*
G01*
X131572000Y-101851208D01*
X132844792Y-103124000D01*
X131572000Y-104396792D01*
X130299208Y-103124000D01*
X130299208Y-103124000D01*
G37*
D34*
X137823000Y-121412000D02*
X138684000Y-120551000D01*
X135128000Y-121412000D02*
X137823000Y-121412000D01*
X138684000Y-120551000D02*
X138684000Y-110236000D01*
X129032000Y-100584000D02*
X131572000Y-103124000D01*
X168148000Y-111252000D02*
X168148000Y-101092000D01*
X168148000Y-101092000D02*
X174244000Y-94996000D01*
X174244000Y-94996000D02*
X175260000Y-94996000D01*
D35*
X136641628Y-136556510D02*
X161946138Y-111252000D01*
X108712000Y-132450000D02*
X112818510Y-136556510D01*
X112818510Y-136556510D02*
X136641628Y-136556510D01*
X161946138Y-111252000D02*
X168656000Y-111252000D01*
D34*
X91138000Y-138084000D02*
X91235618Y-137986382D01*
X108901618Y-137986382D02*
X109220000Y-137668000D01*
X159982000Y-85852000D02*
X157988000Y-87846000D01*
X171704000Y-85852000D02*
X159982000Y-85852000D01*
X157988000Y-87846000D02*
X157988000Y-89916000D01*
X157988000Y-87846000D02*
X153962000Y-83820000D01*
X153962000Y-83820000D02*
X112776000Y-83820000D01*
X108712000Y-137900000D02*
X160252000Y-137900000D01*
X160252000Y-137900000D02*
X165100000Y-142748000D01*
X129032000Y-100584000D02*
X92964000Y-100584000D01*
X92964000Y-100584000D02*
X91948000Y-99568000D01*
X191008000Y-105156000D02*
X171704000Y-85852000D01*
X191008000Y-119607096D02*
X191008000Y-105156000D01*
X167867096Y-142748000D02*
X191008000Y-119607096D01*
X165100000Y-142748000D02*
X167867096Y-142748000D01*
X108712000Y-137900000D02*
X93196000Y-137900000D01*
X93196000Y-137900000D02*
X92456000Y-137160000D01*
D35*
X192576101Y-72312001D02*
X192960501Y-71927601D01*
X191516000Y-73112000D02*
X192315999Y-72312001D01*
X192315999Y-72312001D02*
X192576101Y-72312001D01*
X192960501Y-71927601D02*
X192960501Y-63928501D01*
X192960501Y-63928501D02*
X184404000Y-55372000D01*
X184121499Y-67789499D02*
X191516000Y-75184000D01*
X179549499Y-63671361D02*
X179549499Y-57178501D01*
X184121499Y-67789499D02*
X183667637Y-67789499D01*
X183667637Y-67789499D02*
X179549499Y-63671361D01*
X179549499Y-57178501D02*
X181356000Y-55372000D01*
X97536000Y-56388000D02*
X97536000Y-68580000D01*
X94996000Y-56388000D02*
X94996000Y-68580000D01*
X92456000Y-56388000D02*
X92456000Y-68580000D01*
X89916000Y-56388000D02*
X89916000Y-68580000D01*
X79038639Y-52353499D02*
X88421499Y-52353499D01*
X81824754Y-83875437D02*
X80380253Y-85319938D01*
X82226892Y-83875437D02*
X81824754Y-83875437D01*
X80380253Y-85319938D02*
X78993531Y-85319938D01*
X78993531Y-85319938D02*
X78242391Y-84568798D01*
X78242391Y-84568798D02*
X78242391Y-53149747D01*
X88421499Y-52353499D02*
X89066001Y-52998001D01*
X78242391Y-53149747D02*
X79038639Y-52353499D01*
X89066001Y-52998001D02*
X89916000Y-53848000D01*
X87376000Y-56388000D02*
X87376000Y-68580000D01*
X95069010Y-51234990D02*
X93305999Y-52998001D01*
X98674944Y-51234990D02*
X95069010Y-51234990D01*
X101208519Y-53768565D02*
X98674944Y-51234990D01*
X105086892Y-68635437D02*
X101208520Y-64757065D01*
X101208520Y-64757065D02*
X101208519Y-53768565D01*
X93305999Y-52998001D02*
X92456000Y-53848000D01*
X84836000Y-56388000D02*
X84836000Y-68580000D01*
X96520000Y-52324000D02*
X95845999Y-52998001D01*
X98223862Y-52324000D02*
X96520000Y-52324000D01*
X100119510Y-54219648D02*
X98223862Y-52324000D01*
X102546892Y-68635437D02*
X100119510Y-66208055D01*
X100119510Y-66208055D02*
X100119510Y-54219648D01*
X95845999Y-52998001D02*
X94996000Y-53848000D01*
X82226892Y-68635437D02*
X82226892Y-56457108D01*
X99030501Y-55342501D02*
X98385999Y-54697999D01*
X100006892Y-68635437D02*
X99030501Y-67659046D01*
X99030501Y-67659046D02*
X99030501Y-55342501D01*
X98385999Y-54697999D02*
X97536000Y-53848000D01*
X79686892Y-68635437D02*
X79686892Y-56457108D01*
D34*
X159512000Y-116332000D02*
X159512000Y-115824000D01*
D35*
X164592000Y-135128000D02*
X164592000Y-120904000D01*
X164592000Y-120904000D02*
X159512000Y-115824000D01*
D34*
X129928000Y-134112000D02*
X129928000Y-122040000D01*
X129928000Y-122040000D02*
X130556000Y-121412000D01*
D35*
X148279000Y-96685000D02*
X149968000Y-94996000D01*
X148279000Y-113619630D02*
X148279000Y-96685000D01*
X149352000Y-115824000D02*
X149352000Y-114692630D01*
X149352000Y-114692630D02*
X148279000Y-113619630D01*
X149968000Y-94996000D02*
X150368000Y-94996000D01*
X93347455Y-92456000D02*
X148279000Y-92456000D01*
X84766892Y-83875437D02*
X93347455Y-92456000D01*
X148279000Y-92456000D02*
X150368000Y-92456000D01*
M02*
