G04 #@! TF.GenerationSoftware,KiCad,Pcbnew,(5.1.4)-1*
G04 #@! TF.CreationDate,2021-10-19T21:09:15-04:00*
G04 #@! TF.ProjectId,RB_switch_pcb_REV2,52425f73-7769-4746-9368-5f7063625f52,rev?*
G04 #@! TF.SameCoordinates,Original*
G04 #@! TF.FileFunction,Copper,L2,Bot*
G04 #@! TF.FilePolarity,Positive*
%FSLAX46Y46*%
G04 Gerber Fmt 4.6, Leading zero omitted, Abs format (unit mm)*
G04 Created by KiCad (PCBNEW (5.1.4)-1) date 2021-10-19 21:09:15*
%MOMM*%
%LPD*%
G04 APERTURE LIST*
%ADD10C,10.000000*%
%ADD11C,1.600000*%
%ADD12R,1.600000X1.600000*%
%ADD13C,3.000000*%
%ADD14O,2.400000X1.600000*%
%ADD15R,2.400000X1.600000*%
%ADD16C,1.900000*%
%ADD17C,2.850000*%
%ADD18R,2.850000X2.850000*%
%ADD19C,1.600000*%
%ADD20O,1.600000X1.600000*%
%ADD21C,2.400000*%
%ADD22R,2.400000X2.400000*%
%ADD23O,2.000000X3.600000*%
%ADD24C,0.100000*%
%ADD25C,2.000000*%
%ADD26O,1.700000X1.700000*%
%ADD27R,1.700000X1.700000*%
%ADD28C,1.400000*%
%ADD29R,1.400000X1.400000*%
%ADD30O,6.000000X3.250000*%
%ADD31C,1.800000*%
%ADD32C,1.800000*%
%ADD33C,0.254000*%
G04 APERTURE END LIST*
D10*
X78232000Y-42672000D03*
X77724000Y-145796000D03*
X193040000Y-145796000D03*
X193040000Y-43180000D03*
D11*
X191516000Y-77612000D03*
X191516000Y-75112000D03*
X191516000Y-73112000D03*
D12*
X191516000Y-70612000D03*
D13*
X188806000Y-67542000D03*
X188806000Y-80682000D03*
D14*
X157988000Y-89916000D03*
X150368000Y-105156000D03*
X157988000Y-92456000D03*
X150368000Y-102616000D03*
X157988000Y-94996000D03*
X150368000Y-100076000D03*
X157988000Y-97536000D03*
X150368000Y-97536000D03*
X157988000Y-100076000D03*
X150368000Y-94996000D03*
X157988000Y-102616000D03*
X150368000Y-92456000D03*
X157988000Y-105156000D03*
D15*
X150368000Y-89916000D03*
D16*
X106356892Y-76255437D03*
X102546892Y-76255437D03*
D12*
X112706892Y-68635437D03*
D11*
X110166892Y-68635437D03*
X107626892Y-68635437D03*
X105086892Y-68635437D03*
X102546892Y-68635437D03*
X100006892Y-68635437D03*
X97466892Y-68635437D03*
X94926892Y-68635437D03*
X92386892Y-68635437D03*
X89846892Y-68635437D03*
X87306892Y-68635437D03*
X84766892Y-68635437D03*
X82226892Y-68635437D03*
X100006892Y-81335437D03*
X102546892Y-81335437D03*
X105086892Y-81335437D03*
X110166892Y-81335437D03*
X112706892Y-83875437D03*
X110166892Y-83875437D03*
X107626892Y-83875437D03*
X105086892Y-83875437D03*
X102546892Y-83875437D03*
X100006892Y-83875437D03*
X97466892Y-83875437D03*
X94926892Y-83875437D03*
X92386892Y-83875437D03*
X89846892Y-83875437D03*
X87306892Y-83875437D03*
X84766892Y-83875437D03*
X82226892Y-83875437D03*
X79686892Y-68635437D03*
X79686892Y-71175437D03*
X79686892Y-73715437D03*
X79686892Y-83875437D03*
X79686892Y-81335437D03*
X79686892Y-78795437D03*
X79686892Y-76255437D03*
D17*
X125728000Y-121412000D03*
X130428000Y-121412000D03*
D18*
X135128000Y-121412000D03*
D11*
X175332205Y-104067795D03*
D19*
X175332205Y-104067795D02*
X175332205Y-104067795D01*
D11*
X168148000Y-111252000D03*
D20*
X149352000Y-115824000D03*
D11*
X159512000Y-115824000D03*
D21*
X108712000Y-137900000D03*
X108712000Y-132450000D03*
D22*
X108712000Y-127000000D03*
D23*
X129928000Y-134112000D03*
D24*
G36*
X123202504Y-132313204D02*
G01*
X123226773Y-132316804D01*
X123250571Y-132322765D01*
X123273671Y-132331030D01*
X123295849Y-132341520D01*
X123316893Y-132354133D01*
X123336598Y-132368747D01*
X123354777Y-132385223D01*
X123371253Y-132403402D01*
X123385867Y-132423107D01*
X123398480Y-132444151D01*
X123408970Y-132466329D01*
X123417235Y-132489429D01*
X123423196Y-132513227D01*
X123426796Y-132537496D01*
X123428000Y-132562000D01*
X123428000Y-135662000D01*
X123426796Y-135686504D01*
X123423196Y-135710773D01*
X123417235Y-135734571D01*
X123408970Y-135757671D01*
X123398480Y-135779849D01*
X123385867Y-135800893D01*
X123371253Y-135820598D01*
X123354777Y-135838777D01*
X123336598Y-135855253D01*
X123316893Y-135869867D01*
X123295849Y-135882480D01*
X123273671Y-135892970D01*
X123250571Y-135901235D01*
X123226773Y-135907196D01*
X123202504Y-135910796D01*
X123178000Y-135912000D01*
X121678000Y-135912000D01*
X121653496Y-135910796D01*
X121629227Y-135907196D01*
X121605429Y-135901235D01*
X121582329Y-135892970D01*
X121560151Y-135882480D01*
X121539107Y-135869867D01*
X121519402Y-135855253D01*
X121501223Y-135838777D01*
X121484747Y-135820598D01*
X121470133Y-135800893D01*
X121457520Y-135779849D01*
X121447030Y-135757671D01*
X121438765Y-135734571D01*
X121432804Y-135710773D01*
X121429204Y-135686504D01*
X121428000Y-135662000D01*
X121428000Y-132562000D01*
X121429204Y-132537496D01*
X121432804Y-132513227D01*
X121438765Y-132489429D01*
X121447030Y-132466329D01*
X121457520Y-132444151D01*
X121470133Y-132423107D01*
X121484747Y-132403402D01*
X121501223Y-132385223D01*
X121519402Y-132368747D01*
X121539107Y-132354133D01*
X121560151Y-132341520D01*
X121582329Y-132331030D01*
X121605429Y-132322765D01*
X121629227Y-132316804D01*
X121653496Y-132313204D01*
X121678000Y-132312000D01*
X123178000Y-132312000D01*
X123202504Y-132313204D01*
X123202504Y-132313204D01*
G37*
D25*
X122428000Y-134112000D03*
D23*
X172092000Y-135128000D03*
D24*
G36*
X165366504Y-133329204D02*
G01*
X165390773Y-133332804D01*
X165414571Y-133338765D01*
X165437671Y-133347030D01*
X165459849Y-133357520D01*
X165480893Y-133370133D01*
X165500598Y-133384747D01*
X165518777Y-133401223D01*
X165535253Y-133419402D01*
X165549867Y-133439107D01*
X165562480Y-133460151D01*
X165572970Y-133482329D01*
X165581235Y-133505429D01*
X165587196Y-133529227D01*
X165590796Y-133553496D01*
X165592000Y-133578000D01*
X165592000Y-136678000D01*
X165590796Y-136702504D01*
X165587196Y-136726773D01*
X165581235Y-136750571D01*
X165572970Y-136773671D01*
X165562480Y-136795849D01*
X165549867Y-136816893D01*
X165535253Y-136836598D01*
X165518777Y-136854777D01*
X165500598Y-136871253D01*
X165480893Y-136885867D01*
X165459849Y-136898480D01*
X165437671Y-136908970D01*
X165414571Y-136917235D01*
X165390773Y-136923196D01*
X165366504Y-136926796D01*
X165342000Y-136928000D01*
X163842000Y-136928000D01*
X163817496Y-136926796D01*
X163793227Y-136923196D01*
X163769429Y-136917235D01*
X163746329Y-136908970D01*
X163724151Y-136898480D01*
X163703107Y-136885867D01*
X163683402Y-136871253D01*
X163665223Y-136854777D01*
X163648747Y-136836598D01*
X163634133Y-136816893D01*
X163621520Y-136795849D01*
X163611030Y-136773671D01*
X163602765Y-136750571D01*
X163596804Y-136726773D01*
X163593204Y-136702504D01*
X163592000Y-136678000D01*
X163592000Y-133578000D01*
X163593204Y-133553496D01*
X163596804Y-133529227D01*
X163602765Y-133505429D01*
X163611030Y-133482329D01*
X163621520Y-133460151D01*
X163634133Y-133439107D01*
X163648747Y-133419402D01*
X163665223Y-133401223D01*
X163683402Y-133384747D01*
X163703107Y-133370133D01*
X163724151Y-133357520D01*
X163746329Y-133347030D01*
X163769429Y-133338765D01*
X163793227Y-133332804D01*
X163817496Y-133329204D01*
X163842000Y-133328000D01*
X165342000Y-133328000D01*
X165366504Y-133329204D01*
X165366504Y-133329204D01*
G37*
D25*
X164592000Y-135128000D03*
D26*
X97536000Y-53848000D03*
X97536000Y-56388000D03*
X94996000Y-53848000D03*
X94996000Y-56388000D03*
X92456000Y-53848000D03*
X92456000Y-56388000D03*
X89916000Y-53848000D03*
X89916000Y-56388000D03*
X87376000Y-53848000D03*
X87376000Y-56388000D03*
X84836000Y-53848000D03*
X84836000Y-56388000D03*
X82296000Y-53848000D03*
X82296000Y-56388000D03*
X79756000Y-53848000D03*
D27*
X79756000Y-56388000D03*
D28*
X184404000Y-55372000D03*
D13*
X181694000Y-50602000D03*
D29*
X184404000Y-57872000D03*
D28*
X181204000Y-55372000D03*
X181204000Y-57872000D03*
D13*
X181694000Y-62642000D03*
D30*
X92456000Y-99614000D03*
X92456000Y-137114000D03*
D31*
X175592064Y-95238616D03*
D32*
X175592064Y-95238616D02*
X175592064Y-95238616D01*
D31*
X171704000Y-85852000D03*
D24*
G36*
X170528093Y-85364924D02*
G01*
X172191076Y-84676093D01*
X172879907Y-86339076D01*
X171216924Y-87027907D01*
X170528093Y-85364924D01*
X170528093Y-85364924D01*
G37*
D31*
X138756205Y-110308205D03*
D32*
X138756205Y-110308205D02*
X138756205Y-110308205D01*
D31*
X131572000Y-103124000D03*
D24*
G36*
X130299208Y-103124000D02*
G01*
X131572000Y-101851208D01*
X132844792Y-103124000D01*
X131572000Y-104396792D01*
X130299208Y-103124000D01*
X130299208Y-103124000D01*
G37*
D33*
G36*
X190370827Y-38186328D02*
G01*
X189447897Y-38803010D01*
X188663010Y-39587897D01*
X188046328Y-40510827D01*
X187621550Y-41536331D01*
X187405000Y-42625001D01*
X187405000Y-43734999D01*
X187621550Y-44823669D01*
X188046328Y-45849173D01*
X188663010Y-46772103D01*
X189447897Y-47556990D01*
X190370827Y-48173672D01*
X191396331Y-48598450D01*
X192485001Y-48815000D01*
X193594999Y-48815000D01*
X194683669Y-48598450D01*
X195709173Y-48173672D01*
X196632103Y-47556990D01*
X197416990Y-46772103D01*
X198033672Y-45849173D01*
X198451000Y-44841655D01*
X198451001Y-144134347D01*
X198033672Y-143126827D01*
X197416990Y-142203897D01*
X196632103Y-141419010D01*
X195709173Y-140802328D01*
X194683669Y-140377550D01*
X193594999Y-140161000D01*
X192485001Y-140161000D01*
X191396331Y-140377550D01*
X190370827Y-140802328D01*
X189447897Y-141419010D01*
X188663010Y-142203897D01*
X188046328Y-143126827D01*
X187621550Y-144152331D01*
X187405000Y-145241001D01*
X187405000Y-146350999D01*
X187621550Y-147439669D01*
X188046328Y-148465173D01*
X188663010Y-149388103D01*
X189447897Y-150172990D01*
X190370827Y-150789672D01*
X191378345Y-151207000D01*
X79385655Y-151207000D01*
X80393173Y-150789672D01*
X81316103Y-150172990D01*
X82100990Y-149388103D01*
X82717672Y-148465173D01*
X83142450Y-147439669D01*
X83359000Y-146350999D01*
X83359000Y-145241001D01*
X83142450Y-144152331D01*
X82717672Y-143126827D01*
X82100990Y-142203897D01*
X81316103Y-141419010D01*
X80393173Y-140802328D01*
X79367669Y-140377550D01*
X78278999Y-140161000D01*
X77169001Y-140161000D01*
X76080331Y-140377550D01*
X75054827Y-140802328D01*
X74131897Y-141419010D01*
X73347010Y-142203897D01*
X72821000Y-142991127D01*
X72821000Y-137114000D01*
X88810065Y-137114000D01*
X88853700Y-137557037D01*
X88982930Y-137983049D01*
X89192787Y-138375664D01*
X89475206Y-138719794D01*
X89819336Y-139002213D01*
X90211951Y-139212070D01*
X90637963Y-139341300D01*
X90969974Y-139374000D01*
X93942026Y-139374000D01*
X94274037Y-139341300D01*
X94700049Y-139212070D01*
X95092664Y-139002213D01*
X95436794Y-138719794D01*
X95719213Y-138375664D01*
X95929070Y-137983049D01*
X96009087Y-137719268D01*
X106877000Y-137719268D01*
X106877000Y-138080732D01*
X106947518Y-138435250D01*
X107085844Y-138769199D01*
X107286662Y-139069744D01*
X107542256Y-139325338D01*
X107842801Y-139526156D01*
X108176750Y-139664482D01*
X108531268Y-139735000D01*
X108892732Y-139735000D01*
X109247250Y-139664482D01*
X109581199Y-139526156D01*
X109881744Y-139325338D01*
X110137338Y-139069744D01*
X110338156Y-138769199D01*
X110476482Y-138435250D01*
X110547000Y-138080732D01*
X110547000Y-137719268D01*
X110476482Y-137364750D01*
X110338156Y-137030801D01*
X110137338Y-136730256D01*
X109881744Y-136474662D01*
X109581199Y-136273844D01*
X109247250Y-136135518D01*
X108892732Y-136065000D01*
X108531268Y-136065000D01*
X108176750Y-136135518D01*
X107842801Y-136273844D01*
X107542256Y-136474662D01*
X107286662Y-136730256D01*
X107085844Y-137030801D01*
X106947518Y-137364750D01*
X106877000Y-137719268D01*
X96009087Y-137719268D01*
X96058300Y-137557037D01*
X96101935Y-137114000D01*
X96058300Y-136670963D01*
X95929070Y-136244951D01*
X95751105Y-135912000D01*
X120789928Y-135912000D01*
X120802188Y-136036482D01*
X120838498Y-136156180D01*
X120897463Y-136266494D01*
X120976815Y-136363185D01*
X121073506Y-136442537D01*
X121183820Y-136501502D01*
X121303518Y-136537812D01*
X121428000Y-136550072D01*
X122142250Y-136547000D01*
X122301000Y-136388250D01*
X122301000Y-134239000D01*
X122555000Y-134239000D01*
X122555000Y-136388250D01*
X122713750Y-136547000D01*
X123428000Y-136550072D01*
X123552482Y-136537812D01*
X123672180Y-136501502D01*
X123782494Y-136442537D01*
X123879185Y-136363185D01*
X123958537Y-136266494D01*
X124017502Y-136156180D01*
X124053812Y-136036482D01*
X124066072Y-135912000D01*
X124063000Y-134397750D01*
X123904250Y-134239000D01*
X122555000Y-134239000D01*
X122301000Y-134239000D01*
X120951750Y-134239000D01*
X120793000Y-134397750D01*
X120789928Y-135912000D01*
X95751105Y-135912000D01*
X95719213Y-135852336D01*
X95436794Y-135508206D01*
X95092664Y-135225787D01*
X94700049Y-135015930D01*
X94274037Y-134886700D01*
X93942026Y-134854000D01*
X90969974Y-134854000D01*
X90637963Y-134886700D01*
X90211951Y-135015930D01*
X89819336Y-135225787D01*
X89475206Y-135508206D01*
X89192787Y-135852336D01*
X88982930Y-136244951D01*
X88853700Y-136670963D01*
X88810065Y-137114000D01*
X72821000Y-137114000D01*
X72821000Y-132269268D01*
X106877000Y-132269268D01*
X106877000Y-132630732D01*
X106947518Y-132985250D01*
X107085844Y-133319199D01*
X107286662Y-133619744D01*
X107542256Y-133875338D01*
X107842801Y-134076156D01*
X108176750Y-134214482D01*
X108531268Y-134285000D01*
X108892732Y-134285000D01*
X109247250Y-134214482D01*
X109581199Y-134076156D01*
X109881744Y-133875338D01*
X110137338Y-133619744D01*
X110338156Y-133319199D01*
X110476482Y-132985250D01*
X110547000Y-132630732D01*
X110547000Y-132312000D01*
X120789928Y-132312000D01*
X120793000Y-133826250D01*
X120951750Y-133985000D01*
X122301000Y-133985000D01*
X122301000Y-131835750D01*
X122555000Y-131835750D01*
X122555000Y-133985000D01*
X123904250Y-133985000D01*
X124063000Y-133826250D01*
X124064206Y-133231679D01*
X128293000Y-133231679D01*
X128293000Y-134992322D01*
X128316658Y-135232516D01*
X128410149Y-135540715D01*
X128561970Y-135824752D01*
X128766287Y-136073714D01*
X129015249Y-136278031D01*
X129299286Y-136429852D01*
X129607485Y-136523343D01*
X129928000Y-136554911D01*
X130248516Y-136523343D01*
X130556715Y-136429852D01*
X130840752Y-136278031D01*
X131089714Y-136073714D01*
X131294031Y-135824752D01*
X131445852Y-135540715D01*
X131539343Y-135232516D01*
X131563000Y-134992322D01*
X131563000Y-133578000D01*
X162953928Y-133578000D01*
X162953928Y-136678000D01*
X162970992Y-136851254D01*
X163021528Y-137017850D01*
X163103595Y-137171386D01*
X163214038Y-137305962D01*
X163348614Y-137416405D01*
X163502150Y-137498472D01*
X163668746Y-137549008D01*
X163842000Y-137566072D01*
X165342000Y-137566072D01*
X165515254Y-137549008D01*
X165681850Y-137498472D01*
X165835386Y-137416405D01*
X165969962Y-137305962D01*
X166080405Y-137171386D01*
X166162472Y-137017850D01*
X166213008Y-136851254D01*
X166230072Y-136678000D01*
X166230072Y-135255000D01*
X170457000Y-135255000D01*
X170457000Y-136055000D01*
X170513193Y-136371532D01*
X170630058Y-136671020D01*
X170803105Y-136941954D01*
X171025683Y-137173922D01*
X171289239Y-137358010D01*
X171583645Y-137487144D01*
X171711566Y-137518124D01*
X171965000Y-137398777D01*
X171965000Y-135255000D01*
X172219000Y-135255000D01*
X172219000Y-137398777D01*
X172472434Y-137518124D01*
X172600355Y-137487144D01*
X172894761Y-137358010D01*
X173158317Y-137173922D01*
X173380895Y-136941954D01*
X173553942Y-136671020D01*
X173670807Y-136371532D01*
X173727000Y-136055000D01*
X173727000Y-135255000D01*
X172219000Y-135255000D01*
X171965000Y-135255000D01*
X170457000Y-135255000D01*
X166230072Y-135255000D01*
X166230072Y-134201000D01*
X170457000Y-134201000D01*
X170457000Y-135001000D01*
X171965000Y-135001000D01*
X171965000Y-132857223D01*
X172219000Y-132857223D01*
X172219000Y-135001000D01*
X173727000Y-135001000D01*
X173727000Y-134201000D01*
X173670807Y-133884468D01*
X173553942Y-133584980D01*
X173380895Y-133314046D01*
X173158317Y-133082078D01*
X172894761Y-132897990D01*
X172600355Y-132768856D01*
X172472434Y-132737876D01*
X172219000Y-132857223D01*
X171965000Y-132857223D01*
X171711566Y-132737876D01*
X171583645Y-132768856D01*
X171289239Y-132897990D01*
X171025683Y-133082078D01*
X170803105Y-133314046D01*
X170630058Y-133584980D01*
X170513193Y-133884468D01*
X170457000Y-134201000D01*
X166230072Y-134201000D01*
X166230072Y-133578000D01*
X166213008Y-133404746D01*
X166162472Y-133238150D01*
X166080405Y-133084614D01*
X165969962Y-132950038D01*
X165835386Y-132839595D01*
X165681850Y-132757528D01*
X165515254Y-132706992D01*
X165342000Y-132689928D01*
X163842000Y-132689928D01*
X163668746Y-132706992D01*
X163502150Y-132757528D01*
X163348614Y-132839595D01*
X163214038Y-132950038D01*
X163103595Y-133084614D01*
X163021528Y-133238150D01*
X162970992Y-133404746D01*
X162953928Y-133578000D01*
X131563000Y-133578000D01*
X131563000Y-133231678D01*
X131539343Y-132991484D01*
X131445852Y-132683285D01*
X131294031Y-132399248D01*
X131089714Y-132150286D01*
X130840751Y-131945969D01*
X130556714Y-131794148D01*
X130248515Y-131700657D01*
X129928000Y-131669089D01*
X129607484Y-131700657D01*
X129299285Y-131794148D01*
X129015248Y-131945969D01*
X128766286Y-132150286D01*
X128561969Y-132399249D01*
X128410148Y-132683286D01*
X128316657Y-132991485D01*
X128293000Y-133231679D01*
X124064206Y-133231679D01*
X124066072Y-132312000D01*
X124053812Y-132187518D01*
X124017502Y-132067820D01*
X123958537Y-131957506D01*
X123879185Y-131860815D01*
X123782494Y-131781463D01*
X123672180Y-131722498D01*
X123552482Y-131686188D01*
X123428000Y-131673928D01*
X122713750Y-131677000D01*
X122555000Y-131835750D01*
X122301000Y-131835750D01*
X122142250Y-131677000D01*
X121428000Y-131673928D01*
X121303518Y-131686188D01*
X121183820Y-131722498D01*
X121073506Y-131781463D01*
X120976815Y-131860815D01*
X120897463Y-131957506D01*
X120838498Y-132067820D01*
X120802188Y-132187518D01*
X120789928Y-132312000D01*
X110547000Y-132312000D01*
X110547000Y-132269268D01*
X110476482Y-131914750D01*
X110338156Y-131580801D01*
X110137338Y-131280256D01*
X109881744Y-131024662D01*
X109581199Y-130823844D01*
X109247250Y-130685518D01*
X108892732Y-130615000D01*
X108531268Y-130615000D01*
X108176750Y-130685518D01*
X107842801Y-130823844D01*
X107542256Y-131024662D01*
X107286662Y-131280256D01*
X107085844Y-131580801D01*
X106947518Y-131914750D01*
X106877000Y-132269268D01*
X72821000Y-132269268D01*
X72821000Y-128200000D01*
X106873928Y-128200000D01*
X106886188Y-128324482D01*
X106922498Y-128444180D01*
X106981463Y-128554494D01*
X107060815Y-128651185D01*
X107157506Y-128730537D01*
X107267820Y-128789502D01*
X107387518Y-128825812D01*
X107512000Y-128838072D01*
X108426250Y-128835000D01*
X108585000Y-128676250D01*
X108585000Y-127127000D01*
X108839000Y-127127000D01*
X108839000Y-128676250D01*
X108997750Y-128835000D01*
X109912000Y-128838072D01*
X110036482Y-128825812D01*
X110156180Y-128789502D01*
X110266494Y-128730537D01*
X110363185Y-128651185D01*
X110442537Y-128554494D01*
X110501502Y-128444180D01*
X110537812Y-128324482D01*
X110550072Y-128200000D01*
X110547000Y-127285750D01*
X110388250Y-127127000D01*
X108839000Y-127127000D01*
X108585000Y-127127000D01*
X107035750Y-127127000D01*
X106877000Y-127285750D01*
X106873928Y-128200000D01*
X72821000Y-128200000D01*
X72821000Y-125800000D01*
X106873928Y-125800000D01*
X106877000Y-126714250D01*
X107035750Y-126873000D01*
X108585000Y-126873000D01*
X108585000Y-125323750D01*
X108839000Y-125323750D01*
X108839000Y-126873000D01*
X110388250Y-126873000D01*
X110547000Y-126714250D01*
X110550072Y-125800000D01*
X110537812Y-125675518D01*
X110501502Y-125555820D01*
X110442537Y-125445506D01*
X110363185Y-125348815D01*
X110266494Y-125269463D01*
X110156180Y-125210498D01*
X110036482Y-125174188D01*
X109912000Y-125161928D01*
X108997750Y-125165000D01*
X108839000Y-125323750D01*
X108585000Y-125323750D01*
X108426250Y-125165000D01*
X107512000Y-125161928D01*
X107387518Y-125174188D01*
X107267820Y-125210498D01*
X107157506Y-125269463D01*
X107060815Y-125348815D01*
X106981463Y-125445506D01*
X106922498Y-125555820D01*
X106886188Y-125675518D01*
X106873928Y-125800000D01*
X72821000Y-125800000D01*
X72821000Y-121209108D01*
X123668000Y-121209108D01*
X123668000Y-121614892D01*
X123747165Y-122012880D01*
X123902452Y-122387776D01*
X124127894Y-122725173D01*
X124414827Y-123012106D01*
X124752224Y-123237548D01*
X125127120Y-123392835D01*
X125525108Y-123472000D01*
X125930892Y-123472000D01*
X126328880Y-123392835D01*
X126703776Y-123237548D01*
X127041173Y-123012106D01*
X127328106Y-122725173D01*
X127553548Y-122387776D01*
X127708835Y-122012880D01*
X127788000Y-121614892D01*
X127788000Y-121209108D01*
X128368000Y-121209108D01*
X128368000Y-121614892D01*
X128447165Y-122012880D01*
X128602452Y-122387776D01*
X128827894Y-122725173D01*
X129114827Y-123012106D01*
X129452224Y-123237548D01*
X129827120Y-123392835D01*
X130225108Y-123472000D01*
X130630892Y-123472000D01*
X131028880Y-123392835D01*
X131403776Y-123237548D01*
X131741173Y-123012106D01*
X132028106Y-122725173D01*
X132253548Y-122387776D01*
X132408835Y-122012880D01*
X132488000Y-121614892D01*
X132488000Y-121209108D01*
X132408835Y-120811120D01*
X132253548Y-120436224D01*
X132028106Y-120098827D01*
X131916279Y-119987000D01*
X133064928Y-119987000D01*
X133064928Y-122837000D01*
X133077188Y-122961482D01*
X133113498Y-123081180D01*
X133172463Y-123191494D01*
X133251815Y-123288185D01*
X133348506Y-123367537D01*
X133458820Y-123426502D01*
X133578518Y-123462812D01*
X133703000Y-123475072D01*
X136553000Y-123475072D01*
X136677482Y-123462812D01*
X136797180Y-123426502D01*
X136907494Y-123367537D01*
X137004185Y-123288185D01*
X137083537Y-123191494D01*
X137142502Y-123081180D01*
X137178812Y-122961482D01*
X137191072Y-122837000D01*
X137191072Y-119987000D01*
X137178812Y-119862518D01*
X137142502Y-119742820D01*
X137083537Y-119632506D01*
X137004185Y-119535815D01*
X136907494Y-119456463D01*
X136797180Y-119397498D01*
X136677482Y-119361188D01*
X136553000Y-119348928D01*
X133703000Y-119348928D01*
X133578518Y-119361188D01*
X133458820Y-119397498D01*
X133348506Y-119456463D01*
X133251815Y-119535815D01*
X133172463Y-119632506D01*
X133113498Y-119742820D01*
X133077188Y-119862518D01*
X133064928Y-119987000D01*
X131916279Y-119987000D01*
X131741173Y-119811894D01*
X131403776Y-119586452D01*
X131028880Y-119431165D01*
X130630892Y-119352000D01*
X130225108Y-119352000D01*
X129827120Y-119431165D01*
X129452224Y-119586452D01*
X129114827Y-119811894D01*
X128827894Y-120098827D01*
X128602452Y-120436224D01*
X128447165Y-120811120D01*
X128368000Y-121209108D01*
X127788000Y-121209108D01*
X127708835Y-120811120D01*
X127553548Y-120436224D01*
X127328106Y-120098827D01*
X127041173Y-119811894D01*
X126703776Y-119586452D01*
X126328880Y-119431165D01*
X125930892Y-119352000D01*
X125525108Y-119352000D01*
X125127120Y-119431165D01*
X124752224Y-119586452D01*
X124414827Y-119811894D01*
X124127894Y-120098827D01*
X123902452Y-120436224D01*
X123747165Y-120811120D01*
X123668000Y-121209108D01*
X72821000Y-121209108D01*
X72821000Y-118143872D01*
X90221000Y-118143872D01*
X90221000Y-118584128D01*
X90306890Y-119015925D01*
X90475369Y-119422669D01*
X90719962Y-119788729D01*
X91031271Y-120100038D01*
X91397331Y-120344631D01*
X91804075Y-120513110D01*
X92235872Y-120599000D01*
X92676128Y-120599000D01*
X93107925Y-120513110D01*
X93514669Y-120344631D01*
X93880729Y-120100038D01*
X94192038Y-119788729D01*
X94436631Y-119422669D01*
X94605110Y-119015925D01*
X94691000Y-118584128D01*
X94691000Y-118143872D01*
X94605110Y-117712075D01*
X94436631Y-117305331D01*
X94192038Y-116939271D01*
X93880729Y-116627962D01*
X93514669Y-116383369D01*
X93107925Y-116214890D01*
X92676128Y-116129000D01*
X92235872Y-116129000D01*
X91804075Y-116214890D01*
X91397331Y-116383369D01*
X91031271Y-116627962D01*
X90719962Y-116939271D01*
X90475369Y-117305331D01*
X90306890Y-117712075D01*
X90221000Y-118143872D01*
X72821000Y-118143872D01*
X72821000Y-115824000D01*
X147910057Y-115824000D01*
X147937764Y-116105309D01*
X148019818Y-116375808D01*
X148153068Y-116625101D01*
X148332392Y-116843608D01*
X148550899Y-117022932D01*
X148800192Y-117156182D01*
X149070691Y-117238236D01*
X149281508Y-117259000D01*
X149422492Y-117259000D01*
X149633309Y-117238236D01*
X149903808Y-117156182D01*
X150153101Y-117022932D01*
X150371608Y-116843608D01*
X150550932Y-116625101D01*
X150684182Y-116375808D01*
X150766236Y-116105309D01*
X150793943Y-115824000D01*
X150780023Y-115682665D01*
X158077000Y-115682665D01*
X158077000Y-115965335D01*
X158132147Y-116242574D01*
X158240320Y-116503727D01*
X158397363Y-116738759D01*
X158597241Y-116938637D01*
X158832273Y-117095680D01*
X159093426Y-117203853D01*
X159370665Y-117259000D01*
X159653335Y-117259000D01*
X159930574Y-117203853D01*
X160191727Y-117095680D01*
X160426759Y-116938637D01*
X160626637Y-116738759D01*
X160783680Y-116503727D01*
X160891853Y-116242574D01*
X160947000Y-115965335D01*
X160947000Y-115682665D01*
X160891853Y-115405426D01*
X160783680Y-115144273D01*
X160626637Y-114909241D01*
X160426759Y-114709363D01*
X160191727Y-114552320D01*
X159930574Y-114444147D01*
X159653335Y-114389000D01*
X159370665Y-114389000D01*
X159093426Y-114444147D01*
X158832273Y-114552320D01*
X158597241Y-114709363D01*
X158397363Y-114909241D01*
X158240320Y-115144273D01*
X158132147Y-115405426D01*
X158077000Y-115682665D01*
X150780023Y-115682665D01*
X150766236Y-115542691D01*
X150684182Y-115272192D01*
X150550932Y-115022899D01*
X150371608Y-114804392D01*
X150153101Y-114625068D01*
X149903808Y-114491818D01*
X149633309Y-114409764D01*
X149422492Y-114389000D01*
X149281508Y-114389000D01*
X149070691Y-114409764D01*
X148800192Y-114491818D01*
X148550899Y-114625068D01*
X148332392Y-114804392D01*
X148153068Y-115022899D01*
X148019818Y-115272192D01*
X147937764Y-115542691D01*
X147910057Y-115824000D01*
X72821000Y-115824000D01*
X72821000Y-110308205D01*
X137213778Y-110308205D01*
X137243415Y-110609118D01*
X137331188Y-110898466D01*
X137473724Y-111165132D01*
X137665544Y-111398866D01*
X137899278Y-111590686D01*
X138165944Y-111733222D01*
X138455292Y-111820995D01*
X138680797Y-111843205D01*
X138831613Y-111843205D01*
X139057118Y-111820995D01*
X139346466Y-111733222D01*
X139613132Y-111590686D01*
X139846866Y-111398866D01*
X140038686Y-111165132D01*
X140067799Y-111110665D01*
X166713000Y-111110665D01*
X166713000Y-111393335D01*
X166768147Y-111670574D01*
X166876320Y-111931727D01*
X167033363Y-112166759D01*
X167233241Y-112366637D01*
X167468273Y-112523680D01*
X167729426Y-112631853D01*
X168006665Y-112687000D01*
X168289335Y-112687000D01*
X168566574Y-112631853D01*
X168827727Y-112523680D01*
X169062759Y-112366637D01*
X169262637Y-112166759D01*
X169419680Y-111931727D01*
X169527853Y-111670574D01*
X169583000Y-111393335D01*
X169583000Y-111110665D01*
X169527853Y-110833426D01*
X169419680Y-110572273D01*
X169262637Y-110337241D01*
X169062759Y-110137363D01*
X168827727Y-109980320D01*
X168566574Y-109872147D01*
X168289335Y-109817000D01*
X168006665Y-109817000D01*
X167729426Y-109872147D01*
X167468273Y-109980320D01*
X167233241Y-110137363D01*
X167033363Y-110337241D01*
X166876320Y-110572273D01*
X166768147Y-110833426D01*
X166713000Y-111110665D01*
X140067799Y-111110665D01*
X140181222Y-110898466D01*
X140268995Y-110609118D01*
X140298632Y-110308205D01*
X140268995Y-110007292D01*
X140181222Y-109717944D01*
X140038686Y-109451278D01*
X139846866Y-109217544D01*
X139613132Y-109025724D01*
X139346466Y-108883188D01*
X139057118Y-108795415D01*
X138831613Y-108773205D01*
X138680797Y-108773205D01*
X138455292Y-108795415D01*
X138165944Y-108883188D01*
X137899278Y-109025724D01*
X137665544Y-109217544D01*
X137473724Y-109451278D01*
X137331188Y-109717944D01*
X137243415Y-110007292D01*
X137213778Y-110308205D01*
X72821000Y-110308205D01*
X72821000Y-105505039D01*
X148576096Y-105505039D01*
X148593633Y-105587818D01*
X148704285Y-105847646D01*
X148863500Y-106080895D01*
X149065161Y-106278601D01*
X149301517Y-106433166D01*
X149563486Y-106538650D01*
X149841000Y-106591000D01*
X150241000Y-106591000D01*
X150241000Y-105283000D01*
X150495000Y-105283000D01*
X150495000Y-106591000D01*
X150895000Y-106591000D01*
X151172514Y-106538650D01*
X151434483Y-106433166D01*
X151670839Y-106278601D01*
X151872500Y-106080895D01*
X152031715Y-105847646D01*
X152142367Y-105587818D01*
X152159904Y-105505039D01*
X152037915Y-105283000D01*
X150495000Y-105283000D01*
X150241000Y-105283000D01*
X148698085Y-105283000D01*
X148576096Y-105505039D01*
X72821000Y-105505039D01*
X72821000Y-103124000D01*
X129661136Y-103124000D01*
X129673396Y-103248482D01*
X129709706Y-103368180D01*
X129768671Y-103478494D01*
X129848023Y-103575185D01*
X131120815Y-104847977D01*
X131217506Y-104927329D01*
X131327820Y-104986294D01*
X131447518Y-105022604D01*
X131572000Y-105034864D01*
X131696482Y-105022604D01*
X131816180Y-104986294D01*
X131926494Y-104927329D01*
X132023185Y-104847977D01*
X133295977Y-103575185D01*
X133375329Y-103478494D01*
X133434294Y-103368180D01*
X133470604Y-103248482D01*
X133482864Y-103124000D01*
X133470604Y-102999518D01*
X133434294Y-102879820D01*
X133375329Y-102769506D01*
X133295977Y-102672815D01*
X132023185Y-101400023D01*
X131926494Y-101320671D01*
X131816180Y-101261706D01*
X131696482Y-101225396D01*
X131572000Y-101213136D01*
X131447518Y-101225396D01*
X131327820Y-101261706D01*
X131217506Y-101320671D01*
X131120815Y-101400023D01*
X129848023Y-102672815D01*
X129768671Y-102769506D01*
X129709706Y-102879820D01*
X129673396Y-102999518D01*
X129661136Y-103124000D01*
X72821000Y-103124000D01*
X72821000Y-99614000D01*
X88810065Y-99614000D01*
X88853700Y-100057037D01*
X88982930Y-100483049D01*
X89192787Y-100875664D01*
X89475206Y-101219794D01*
X89819336Y-101502213D01*
X90211951Y-101712070D01*
X90637963Y-101841300D01*
X90969974Y-101874000D01*
X93942026Y-101874000D01*
X94274037Y-101841300D01*
X94700049Y-101712070D01*
X95092664Y-101502213D01*
X95436794Y-101219794D01*
X95719213Y-100875664D01*
X95929070Y-100483049D01*
X96058300Y-100057037D01*
X96101935Y-99614000D01*
X96058300Y-99170963D01*
X95929070Y-98744951D01*
X95719213Y-98352336D01*
X95436794Y-98008206D01*
X95092664Y-97725787D01*
X94700049Y-97515930D01*
X94274037Y-97386700D01*
X93942026Y-97354000D01*
X90969974Y-97354000D01*
X90637963Y-97386700D01*
X90211951Y-97515930D01*
X89819336Y-97725787D01*
X89475206Y-98008206D01*
X89192787Y-98352336D01*
X88982930Y-98744951D01*
X88853700Y-99170963D01*
X88810065Y-99614000D01*
X72821000Y-99614000D01*
X72821000Y-92456000D01*
X148526057Y-92456000D01*
X148553764Y-92737309D01*
X148635818Y-93007808D01*
X148769068Y-93257101D01*
X148948392Y-93475608D01*
X149166899Y-93654932D01*
X149299858Y-93726000D01*
X149166899Y-93797068D01*
X148948392Y-93976392D01*
X148769068Y-94194899D01*
X148635818Y-94444192D01*
X148553764Y-94714691D01*
X148526057Y-94996000D01*
X148553764Y-95277309D01*
X148635818Y-95547808D01*
X148769068Y-95797101D01*
X148948392Y-96015608D01*
X149166899Y-96194932D01*
X149299858Y-96266000D01*
X149166899Y-96337068D01*
X148948392Y-96516392D01*
X148769068Y-96734899D01*
X148635818Y-96984192D01*
X148553764Y-97254691D01*
X148526057Y-97536000D01*
X148553764Y-97817309D01*
X148635818Y-98087808D01*
X148769068Y-98337101D01*
X148948392Y-98555608D01*
X149166899Y-98734932D01*
X149299858Y-98806000D01*
X149166899Y-98877068D01*
X148948392Y-99056392D01*
X148769068Y-99274899D01*
X148635818Y-99524192D01*
X148553764Y-99794691D01*
X148526057Y-100076000D01*
X148553764Y-100357309D01*
X148635818Y-100627808D01*
X148769068Y-100877101D01*
X148948392Y-101095608D01*
X149166899Y-101274932D01*
X149299858Y-101346000D01*
X149166899Y-101417068D01*
X148948392Y-101596392D01*
X148769068Y-101814899D01*
X148635818Y-102064192D01*
X148553764Y-102334691D01*
X148526057Y-102616000D01*
X148553764Y-102897309D01*
X148635818Y-103167808D01*
X148769068Y-103417101D01*
X148948392Y-103635608D01*
X149166899Y-103814932D01*
X149294741Y-103883265D01*
X149065161Y-104033399D01*
X148863500Y-104231105D01*
X148704285Y-104464354D01*
X148593633Y-104724182D01*
X148576096Y-104806961D01*
X148698085Y-105029000D01*
X150241000Y-105029000D01*
X150241000Y-105009000D01*
X150495000Y-105009000D01*
X150495000Y-105029000D01*
X152037915Y-105029000D01*
X152159904Y-104806961D01*
X152142367Y-104724182D01*
X152031715Y-104464354D01*
X151872500Y-104231105D01*
X151670839Y-104033399D01*
X151441259Y-103883265D01*
X151569101Y-103814932D01*
X151787608Y-103635608D01*
X151966932Y-103417101D01*
X152100182Y-103167808D01*
X152182236Y-102897309D01*
X152209943Y-102616000D01*
X152182236Y-102334691D01*
X152100182Y-102064192D01*
X151966932Y-101814899D01*
X151787608Y-101596392D01*
X151569101Y-101417068D01*
X151436142Y-101346000D01*
X151569101Y-101274932D01*
X151787608Y-101095608D01*
X151966932Y-100877101D01*
X152100182Y-100627808D01*
X152182236Y-100357309D01*
X152209943Y-100076000D01*
X152182236Y-99794691D01*
X152100182Y-99524192D01*
X151966932Y-99274899D01*
X151787608Y-99056392D01*
X151569101Y-98877068D01*
X151436142Y-98806000D01*
X151569101Y-98734932D01*
X151787608Y-98555608D01*
X151966932Y-98337101D01*
X152100182Y-98087808D01*
X152182236Y-97817309D01*
X152209943Y-97536000D01*
X152182236Y-97254691D01*
X152100182Y-96984192D01*
X151966932Y-96734899D01*
X151787608Y-96516392D01*
X151569101Y-96337068D01*
X151436142Y-96266000D01*
X151569101Y-96194932D01*
X151787608Y-96015608D01*
X151966932Y-95797101D01*
X152100182Y-95547808D01*
X152182236Y-95277309D01*
X152209943Y-94996000D01*
X152182236Y-94714691D01*
X152100182Y-94444192D01*
X151966932Y-94194899D01*
X151787608Y-93976392D01*
X151569101Y-93797068D01*
X151436142Y-93726000D01*
X151569101Y-93654932D01*
X151787608Y-93475608D01*
X151966932Y-93257101D01*
X152100182Y-93007808D01*
X152182236Y-92737309D01*
X152209943Y-92456000D01*
X152182236Y-92174691D01*
X152100182Y-91904192D01*
X151966932Y-91654899D01*
X151787608Y-91436392D01*
X151674518Y-91343581D01*
X151692482Y-91341812D01*
X151812180Y-91305502D01*
X151922494Y-91246537D01*
X152019185Y-91167185D01*
X152098537Y-91070494D01*
X152157502Y-90960180D01*
X152193812Y-90840482D01*
X152206072Y-90716000D01*
X152203000Y-90201750D01*
X152044250Y-90043000D01*
X150495000Y-90043000D01*
X150495000Y-90063000D01*
X150241000Y-90063000D01*
X150241000Y-90043000D01*
X148691750Y-90043000D01*
X148533000Y-90201750D01*
X148529928Y-90716000D01*
X148542188Y-90840482D01*
X148578498Y-90960180D01*
X148637463Y-91070494D01*
X148716815Y-91167185D01*
X148813506Y-91246537D01*
X148923820Y-91305502D01*
X149043518Y-91341812D01*
X149061482Y-91343581D01*
X148948392Y-91436392D01*
X148769068Y-91654899D01*
X148635818Y-91904192D01*
X148553764Y-92174691D01*
X148526057Y-92456000D01*
X72821000Y-92456000D01*
X72821000Y-89916000D01*
X156146057Y-89916000D01*
X156173764Y-90197309D01*
X156255818Y-90467808D01*
X156389068Y-90717101D01*
X156568392Y-90935608D01*
X156786899Y-91114932D01*
X156919858Y-91186000D01*
X156786899Y-91257068D01*
X156568392Y-91436392D01*
X156389068Y-91654899D01*
X156255818Y-91904192D01*
X156173764Y-92174691D01*
X156146057Y-92456000D01*
X156173764Y-92737309D01*
X156255818Y-93007808D01*
X156389068Y-93257101D01*
X156568392Y-93475608D01*
X156786899Y-93654932D01*
X156919858Y-93726000D01*
X156786899Y-93797068D01*
X156568392Y-93976392D01*
X156389068Y-94194899D01*
X156255818Y-94444192D01*
X156173764Y-94714691D01*
X156146057Y-94996000D01*
X156173764Y-95277309D01*
X156255818Y-95547808D01*
X156389068Y-95797101D01*
X156568392Y-96015608D01*
X156786899Y-96194932D01*
X156919858Y-96266000D01*
X156786899Y-96337068D01*
X156568392Y-96516392D01*
X156389068Y-96734899D01*
X156255818Y-96984192D01*
X156173764Y-97254691D01*
X156146057Y-97536000D01*
X156173764Y-97817309D01*
X156255818Y-98087808D01*
X156389068Y-98337101D01*
X156568392Y-98555608D01*
X156786899Y-98734932D01*
X156919858Y-98806000D01*
X156786899Y-98877068D01*
X156568392Y-99056392D01*
X156389068Y-99274899D01*
X156255818Y-99524192D01*
X156173764Y-99794691D01*
X156146057Y-100076000D01*
X156173764Y-100357309D01*
X156255818Y-100627808D01*
X156389068Y-100877101D01*
X156568392Y-101095608D01*
X156786899Y-101274932D01*
X156919858Y-101346000D01*
X156786899Y-101417068D01*
X156568392Y-101596392D01*
X156389068Y-101814899D01*
X156255818Y-102064192D01*
X156173764Y-102334691D01*
X156146057Y-102616000D01*
X156173764Y-102897309D01*
X156255818Y-103167808D01*
X156389068Y-103417101D01*
X156568392Y-103635608D01*
X156786899Y-103814932D01*
X156919858Y-103886000D01*
X156786899Y-103957068D01*
X156568392Y-104136392D01*
X156389068Y-104354899D01*
X156255818Y-104604192D01*
X156173764Y-104874691D01*
X156146057Y-105156000D01*
X156173764Y-105437309D01*
X156255818Y-105707808D01*
X156389068Y-105957101D01*
X156568392Y-106175608D01*
X156786899Y-106354932D01*
X157036192Y-106488182D01*
X157306691Y-106570236D01*
X157517508Y-106591000D01*
X158458492Y-106591000D01*
X158669309Y-106570236D01*
X158939808Y-106488182D01*
X159189101Y-106354932D01*
X159407608Y-106175608D01*
X159586932Y-105957101D01*
X159720182Y-105707808D01*
X159802236Y-105437309D01*
X159829943Y-105156000D01*
X159820051Y-105055563D01*
X174524042Y-105055563D01*
X174594788Y-105298828D01*
X174718324Y-105364864D01*
X174983165Y-105459704D01*
X175261420Y-105501053D01*
X175542395Y-105487323D01*
X175815293Y-105419041D01*
X176069625Y-105298832D01*
X176140869Y-105056064D01*
X175332205Y-104247400D01*
X174524042Y-105055563D01*
X159820051Y-105055563D01*
X159802236Y-104874691D01*
X159720182Y-104604192D01*
X159586932Y-104354899D01*
X159409404Y-104138580D01*
X173898947Y-104138580D01*
X173940296Y-104416835D01*
X174035136Y-104681676D01*
X174101172Y-104805212D01*
X174344437Y-104875958D01*
X175152600Y-104067795D01*
X175511810Y-104067795D01*
X176320474Y-104876459D01*
X176563242Y-104805215D01*
X176683451Y-104550883D01*
X176751733Y-104277985D01*
X176765463Y-103997010D01*
X176724114Y-103718755D01*
X176629274Y-103453914D01*
X176563238Y-103330378D01*
X176319973Y-103259632D01*
X175511810Y-104067795D01*
X175152600Y-104067795D01*
X174343936Y-103259131D01*
X174101168Y-103330375D01*
X173980959Y-103584707D01*
X173912677Y-103857605D01*
X173898947Y-104138580D01*
X159409404Y-104138580D01*
X159407608Y-104136392D01*
X159189101Y-103957068D01*
X159056142Y-103886000D01*
X159189101Y-103814932D01*
X159407608Y-103635608D01*
X159586932Y-103417101D01*
X159720182Y-103167808D01*
X159746961Y-103079526D01*
X174523541Y-103079526D01*
X175332205Y-103888190D01*
X176140368Y-103080027D01*
X176069622Y-102836762D01*
X175946086Y-102770726D01*
X175681245Y-102675886D01*
X175402990Y-102634537D01*
X175122015Y-102648267D01*
X174849117Y-102716549D01*
X174594785Y-102836758D01*
X174523541Y-103079526D01*
X159746961Y-103079526D01*
X159802236Y-102897309D01*
X159829943Y-102616000D01*
X159802236Y-102334691D01*
X159720182Y-102064192D01*
X159586932Y-101814899D01*
X159407608Y-101596392D01*
X159189101Y-101417068D01*
X159056142Y-101346000D01*
X159189101Y-101274932D01*
X159407608Y-101095608D01*
X159586932Y-100877101D01*
X159720182Y-100627808D01*
X159802236Y-100357309D01*
X159829943Y-100076000D01*
X159802236Y-99794691D01*
X159720182Y-99524192D01*
X159586932Y-99274899D01*
X159407608Y-99056392D01*
X159189101Y-98877068D01*
X159056142Y-98806000D01*
X159189101Y-98734932D01*
X159407608Y-98555608D01*
X159586932Y-98337101D01*
X159720182Y-98087808D01*
X159802236Y-97817309D01*
X159829943Y-97536000D01*
X159802236Y-97254691D01*
X159720182Y-96984192D01*
X159586932Y-96734899D01*
X159407608Y-96516392D01*
X159189101Y-96337068D01*
X159056142Y-96266000D01*
X159189101Y-96194932D01*
X159407608Y-96015608D01*
X159586932Y-95797101D01*
X159720182Y-95547808D01*
X159802236Y-95277309D01*
X159806046Y-95238616D01*
X174049637Y-95238616D01*
X174079274Y-95539529D01*
X174167047Y-95828877D01*
X174309583Y-96095543D01*
X174501403Y-96329277D01*
X174735137Y-96521097D01*
X175001803Y-96663633D01*
X175291151Y-96751406D01*
X175516656Y-96773616D01*
X175667472Y-96773616D01*
X175892977Y-96751406D01*
X176182325Y-96663633D01*
X176448991Y-96521097D01*
X176682725Y-96329277D01*
X176874545Y-96095543D01*
X177017081Y-95828877D01*
X177104854Y-95539529D01*
X177134491Y-95238616D01*
X177104854Y-94937703D01*
X177017081Y-94648355D01*
X176874545Y-94381689D01*
X176682725Y-94147955D01*
X176448991Y-93956135D01*
X176182325Y-93813599D01*
X175892977Y-93725826D01*
X175667472Y-93703616D01*
X175516656Y-93703616D01*
X175291151Y-93725826D01*
X175001803Y-93813599D01*
X174735137Y-93956135D01*
X174501403Y-94147955D01*
X174309583Y-94381689D01*
X174167047Y-94648355D01*
X174079274Y-94937703D01*
X174049637Y-95238616D01*
X159806046Y-95238616D01*
X159829943Y-94996000D01*
X159802236Y-94714691D01*
X159720182Y-94444192D01*
X159586932Y-94194899D01*
X159407608Y-93976392D01*
X159189101Y-93797068D01*
X159056142Y-93726000D01*
X159189101Y-93654932D01*
X159407608Y-93475608D01*
X159586932Y-93257101D01*
X159720182Y-93007808D01*
X159802236Y-92737309D01*
X159829943Y-92456000D01*
X159802236Y-92174691D01*
X159720182Y-91904192D01*
X159586932Y-91654899D01*
X159407608Y-91436392D01*
X159189101Y-91257068D01*
X159056142Y-91186000D01*
X159189101Y-91114932D01*
X159407608Y-90935608D01*
X159586932Y-90717101D01*
X159720182Y-90467808D01*
X159802236Y-90197309D01*
X159829943Y-89916000D01*
X159802236Y-89634691D01*
X159720182Y-89364192D01*
X159586932Y-89114899D01*
X159407608Y-88896392D01*
X159189101Y-88717068D01*
X158939808Y-88583818D01*
X158669309Y-88501764D01*
X158458492Y-88481000D01*
X157517508Y-88481000D01*
X157306691Y-88501764D01*
X157036192Y-88583818D01*
X156786899Y-88717068D01*
X156568392Y-88896392D01*
X156389068Y-89114899D01*
X156255818Y-89364192D01*
X156173764Y-89634691D01*
X156146057Y-89916000D01*
X72821000Y-89916000D01*
X72821000Y-89116000D01*
X148529928Y-89116000D01*
X148533000Y-89630250D01*
X148691750Y-89789000D01*
X150241000Y-89789000D01*
X150241000Y-88639750D01*
X150495000Y-88639750D01*
X150495000Y-89789000D01*
X152044250Y-89789000D01*
X152203000Y-89630250D01*
X152206072Y-89116000D01*
X152193812Y-88991518D01*
X152157502Y-88871820D01*
X152098537Y-88761506D01*
X152019185Y-88664815D01*
X151922494Y-88585463D01*
X151812180Y-88526498D01*
X151692482Y-88490188D01*
X151568000Y-88477928D01*
X150653750Y-88481000D01*
X150495000Y-88639750D01*
X150241000Y-88639750D01*
X150082250Y-88481000D01*
X149168000Y-88477928D01*
X149043518Y-88490188D01*
X148923820Y-88526498D01*
X148813506Y-88585463D01*
X148716815Y-88664815D01*
X148637463Y-88761506D01*
X148578498Y-88871820D01*
X148542188Y-88991518D01*
X148529928Y-89116000D01*
X72821000Y-89116000D01*
X72821000Y-85364924D01*
X169890021Y-85364924D01*
X169902281Y-85489406D01*
X169938591Y-85609104D01*
X170627422Y-87272087D01*
X170686387Y-87382401D01*
X170765739Y-87479092D01*
X170862430Y-87558445D01*
X170972745Y-87617409D01*
X171092443Y-87653719D01*
X171216924Y-87665979D01*
X171341406Y-87653719D01*
X171461104Y-87617409D01*
X173124087Y-86928578D01*
X173234401Y-86869613D01*
X173331092Y-86790261D01*
X173410445Y-86693570D01*
X173469409Y-86583255D01*
X173505719Y-86463557D01*
X173517979Y-86339076D01*
X173505719Y-86214594D01*
X173469409Y-86094896D01*
X172780578Y-84431913D01*
X172721613Y-84321599D01*
X172642261Y-84224908D01*
X172545570Y-84145555D01*
X172435255Y-84086591D01*
X172315557Y-84050281D01*
X172191076Y-84038021D01*
X172066594Y-84050281D01*
X171946896Y-84086591D01*
X170283913Y-84775422D01*
X170173599Y-84834387D01*
X170076908Y-84913739D01*
X169997555Y-85010430D01*
X169938591Y-85120745D01*
X169902281Y-85240443D01*
X169890021Y-85364924D01*
X72821000Y-85364924D01*
X72821000Y-68494102D01*
X78251892Y-68494102D01*
X78251892Y-68776772D01*
X78307039Y-69054011D01*
X78415212Y-69315164D01*
X78572255Y-69550196D01*
X78772133Y-69750074D01*
X79004651Y-69905437D01*
X78772133Y-70060800D01*
X78572255Y-70260678D01*
X78415212Y-70495710D01*
X78307039Y-70756863D01*
X78251892Y-71034102D01*
X78251892Y-71316772D01*
X78307039Y-71594011D01*
X78415212Y-71855164D01*
X78572255Y-72090196D01*
X78772133Y-72290074D01*
X79004651Y-72445437D01*
X78772133Y-72600800D01*
X78572255Y-72800678D01*
X78415212Y-73035710D01*
X78307039Y-73296863D01*
X78251892Y-73574102D01*
X78251892Y-73856772D01*
X78307039Y-74134011D01*
X78415212Y-74395164D01*
X78572255Y-74630196D01*
X78772133Y-74830074D01*
X79004651Y-74985437D01*
X78772133Y-75140800D01*
X78572255Y-75340678D01*
X78415212Y-75575710D01*
X78307039Y-75836863D01*
X78251892Y-76114102D01*
X78251892Y-76396772D01*
X78307039Y-76674011D01*
X78415212Y-76935164D01*
X78572255Y-77170196D01*
X78772133Y-77370074D01*
X79004651Y-77525437D01*
X78772133Y-77680800D01*
X78572255Y-77880678D01*
X78415212Y-78115710D01*
X78307039Y-78376863D01*
X78251892Y-78654102D01*
X78251892Y-78936772D01*
X78307039Y-79214011D01*
X78415212Y-79475164D01*
X78572255Y-79710196D01*
X78772133Y-79910074D01*
X79004651Y-80065437D01*
X78772133Y-80220800D01*
X78572255Y-80420678D01*
X78415212Y-80655710D01*
X78307039Y-80916863D01*
X78251892Y-81194102D01*
X78251892Y-81476772D01*
X78307039Y-81754011D01*
X78415212Y-82015164D01*
X78572255Y-82250196D01*
X78772133Y-82450074D01*
X79004651Y-82605437D01*
X78772133Y-82760800D01*
X78572255Y-82960678D01*
X78415212Y-83195710D01*
X78307039Y-83456863D01*
X78251892Y-83734102D01*
X78251892Y-84016772D01*
X78307039Y-84294011D01*
X78415212Y-84555164D01*
X78572255Y-84790196D01*
X78772133Y-84990074D01*
X79007165Y-85147117D01*
X79268318Y-85255290D01*
X79545557Y-85310437D01*
X79828227Y-85310437D01*
X80105466Y-85255290D01*
X80366619Y-85147117D01*
X80601651Y-84990074D01*
X80801529Y-84790196D01*
X80956892Y-84557678D01*
X81112255Y-84790196D01*
X81312133Y-84990074D01*
X81547165Y-85147117D01*
X81808318Y-85255290D01*
X82085557Y-85310437D01*
X82368227Y-85310437D01*
X82645466Y-85255290D01*
X82906619Y-85147117D01*
X83141651Y-84990074D01*
X83341529Y-84790196D01*
X83496892Y-84557678D01*
X83652255Y-84790196D01*
X83852133Y-84990074D01*
X84087165Y-85147117D01*
X84348318Y-85255290D01*
X84625557Y-85310437D01*
X84908227Y-85310437D01*
X85185466Y-85255290D01*
X85446619Y-85147117D01*
X85681651Y-84990074D01*
X85881529Y-84790196D01*
X86036892Y-84557678D01*
X86192255Y-84790196D01*
X86392133Y-84990074D01*
X86627165Y-85147117D01*
X86888318Y-85255290D01*
X87165557Y-85310437D01*
X87448227Y-85310437D01*
X87725466Y-85255290D01*
X87986619Y-85147117D01*
X88221651Y-84990074D01*
X88421529Y-84790196D01*
X88576892Y-84557678D01*
X88732255Y-84790196D01*
X88932133Y-84990074D01*
X89167165Y-85147117D01*
X89428318Y-85255290D01*
X89705557Y-85310437D01*
X89988227Y-85310437D01*
X90265466Y-85255290D01*
X90526619Y-85147117D01*
X90761651Y-84990074D01*
X90961529Y-84790196D01*
X91116892Y-84557678D01*
X91272255Y-84790196D01*
X91472133Y-84990074D01*
X91707165Y-85147117D01*
X91968318Y-85255290D01*
X92245557Y-85310437D01*
X92528227Y-85310437D01*
X92805466Y-85255290D01*
X93066619Y-85147117D01*
X93301651Y-84990074D01*
X93501529Y-84790196D01*
X93656892Y-84557678D01*
X93812255Y-84790196D01*
X94012133Y-84990074D01*
X94247165Y-85147117D01*
X94508318Y-85255290D01*
X94785557Y-85310437D01*
X95068227Y-85310437D01*
X95345466Y-85255290D01*
X95606619Y-85147117D01*
X95841651Y-84990074D01*
X96041529Y-84790196D01*
X96196892Y-84557678D01*
X96352255Y-84790196D01*
X96552133Y-84990074D01*
X96787165Y-85147117D01*
X97048318Y-85255290D01*
X97325557Y-85310437D01*
X97608227Y-85310437D01*
X97885466Y-85255290D01*
X98146619Y-85147117D01*
X98381651Y-84990074D01*
X98581529Y-84790196D01*
X98736892Y-84557678D01*
X98892255Y-84790196D01*
X99092133Y-84990074D01*
X99327165Y-85147117D01*
X99588318Y-85255290D01*
X99865557Y-85310437D01*
X100148227Y-85310437D01*
X100425466Y-85255290D01*
X100686619Y-85147117D01*
X100921651Y-84990074D01*
X101121529Y-84790196D01*
X101276892Y-84557678D01*
X101432255Y-84790196D01*
X101632133Y-84990074D01*
X101867165Y-85147117D01*
X102128318Y-85255290D01*
X102405557Y-85310437D01*
X102688227Y-85310437D01*
X102965466Y-85255290D01*
X103226619Y-85147117D01*
X103461651Y-84990074D01*
X103661529Y-84790196D01*
X103816892Y-84557678D01*
X103972255Y-84790196D01*
X104172133Y-84990074D01*
X104407165Y-85147117D01*
X104668318Y-85255290D01*
X104945557Y-85310437D01*
X105228227Y-85310437D01*
X105505466Y-85255290D01*
X105766619Y-85147117D01*
X106001651Y-84990074D01*
X106201529Y-84790196D01*
X106356892Y-84557678D01*
X106512255Y-84790196D01*
X106712133Y-84990074D01*
X106947165Y-85147117D01*
X107208318Y-85255290D01*
X107485557Y-85310437D01*
X107768227Y-85310437D01*
X108045466Y-85255290D01*
X108306619Y-85147117D01*
X108541651Y-84990074D01*
X108741529Y-84790196D01*
X108896892Y-84557678D01*
X109052255Y-84790196D01*
X109252133Y-84990074D01*
X109487165Y-85147117D01*
X109748318Y-85255290D01*
X110025557Y-85310437D01*
X110308227Y-85310437D01*
X110585466Y-85255290D01*
X110846619Y-85147117D01*
X111081651Y-84990074D01*
X111281529Y-84790196D01*
X111436892Y-84557678D01*
X111592255Y-84790196D01*
X111792133Y-84990074D01*
X112027165Y-85147117D01*
X112288318Y-85255290D01*
X112565557Y-85310437D01*
X112848227Y-85310437D01*
X113125466Y-85255290D01*
X113386619Y-85147117D01*
X113621651Y-84990074D01*
X113821529Y-84790196D01*
X113978572Y-84555164D01*
X114086745Y-84294011D01*
X114141892Y-84016772D01*
X114141892Y-83734102D01*
X114086745Y-83456863D01*
X113978572Y-83195710D01*
X113821529Y-82960678D01*
X113621651Y-82760800D01*
X113386619Y-82603757D01*
X113125466Y-82495584D01*
X112848227Y-82440437D01*
X112565557Y-82440437D01*
X112288318Y-82495584D01*
X112027165Y-82603757D01*
X111792133Y-82760800D01*
X111592255Y-82960678D01*
X111436892Y-83193196D01*
X111281529Y-82960678D01*
X111081651Y-82760800D01*
X110849133Y-82605437D01*
X111081651Y-82450074D01*
X111281529Y-82250196D01*
X111332673Y-82173653D01*
X187493952Y-82173653D01*
X187649962Y-82489214D01*
X188024745Y-82680020D01*
X188429551Y-82794044D01*
X188848824Y-82826902D01*
X189266451Y-82777334D01*
X189666383Y-82647243D01*
X189962038Y-82489214D01*
X190118048Y-82173653D01*
X188806000Y-80861605D01*
X187493952Y-82173653D01*
X111332673Y-82173653D01*
X111438572Y-82015164D01*
X111546745Y-81754011D01*
X111601892Y-81476772D01*
X111601892Y-81194102D01*
X111546745Y-80916863D01*
X111467200Y-80724824D01*
X186661098Y-80724824D01*
X186710666Y-81142451D01*
X186840757Y-81542383D01*
X186998786Y-81838038D01*
X187314347Y-81994048D01*
X188626395Y-80682000D01*
X188985605Y-80682000D01*
X190297653Y-81994048D01*
X190613214Y-81838038D01*
X190804020Y-81463255D01*
X190918044Y-81058449D01*
X190950902Y-80639176D01*
X190901334Y-80221549D01*
X190771243Y-79821617D01*
X190613214Y-79525962D01*
X190297653Y-79369952D01*
X188985605Y-80682000D01*
X188626395Y-80682000D01*
X187314347Y-79369952D01*
X186998786Y-79525962D01*
X186807980Y-79900745D01*
X186693956Y-80305551D01*
X186661098Y-80724824D01*
X111467200Y-80724824D01*
X111438572Y-80655710D01*
X111281529Y-80420678D01*
X111081651Y-80220800D01*
X110846619Y-80063757D01*
X110585466Y-79955584D01*
X110308227Y-79900437D01*
X110025557Y-79900437D01*
X109748318Y-79955584D01*
X109487165Y-80063757D01*
X109252133Y-80220800D01*
X109052255Y-80420678D01*
X108895212Y-80655710D01*
X108787039Y-80916863D01*
X108731892Y-81194102D01*
X108731892Y-81476772D01*
X108787039Y-81754011D01*
X108895212Y-82015164D01*
X109052255Y-82250196D01*
X109252133Y-82450074D01*
X109484651Y-82605437D01*
X109252133Y-82760800D01*
X109052255Y-82960678D01*
X108896892Y-83193196D01*
X108741529Y-82960678D01*
X108541651Y-82760800D01*
X108306619Y-82603757D01*
X108045466Y-82495584D01*
X107768227Y-82440437D01*
X107485557Y-82440437D01*
X107208318Y-82495584D01*
X106947165Y-82603757D01*
X106712133Y-82760800D01*
X106512255Y-82960678D01*
X106356892Y-83193196D01*
X106201529Y-82960678D01*
X106001651Y-82760800D01*
X105769133Y-82605437D01*
X106001651Y-82450074D01*
X106201529Y-82250196D01*
X106358572Y-82015164D01*
X106466745Y-81754011D01*
X106521892Y-81476772D01*
X106521892Y-81194102D01*
X106466745Y-80916863D01*
X106358572Y-80655710D01*
X106201529Y-80420678D01*
X106001651Y-80220800D01*
X105766619Y-80063757D01*
X105505466Y-79955584D01*
X105228227Y-79900437D01*
X104945557Y-79900437D01*
X104668318Y-79955584D01*
X104407165Y-80063757D01*
X104172133Y-80220800D01*
X103972255Y-80420678D01*
X103816892Y-80653196D01*
X103661529Y-80420678D01*
X103461651Y-80220800D01*
X103226619Y-80063757D01*
X102965466Y-79955584D01*
X102688227Y-79900437D01*
X102405557Y-79900437D01*
X102128318Y-79955584D01*
X101867165Y-80063757D01*
X101632133Y-80220800D01*
X101432255Y-80420678D01*
X101276892Y-80653196D01*
X101121529Y-80420678D01*
X100921651Y-80220800D01*
X100686619Y-80063757D01*
X100425466Y-79955584D01*
X100148227Y-79900437D01*
X99865557Y-79900437D01*
X99588318Y-79955584D01*
X99327165Y-80063757D01*
X99092133Y-80220800D01*
X98892255Y-80420678D01*
X98735212Y-80655710D01*
X98627039Y-80916863D01*
X98571892Y-81194102D01*
X98571892Y-81476772D01*
X98627039Y-81754011D01*
X98735212Y-82015164D01*
X98892255Y-82250196D01*
X99092133Y-82450074D01*
X99324651Y-82605437D01*
X99092133Y-82760800D01*
X98892255Y-82960678D01*
X98736892Y-83193196D01*
X98581529Y-82960678D01*
X98381651Y-82760800D01*
X98146619Y-82603757D01*
X97885466Y-82495584D01*
X97608227Y-82440437D01*
X97325557Y-82440437D01*
X97048318Y-82495584D01*
X96787165Y-82603757D01*
X96552133Y-82760800D01*
X96352255Y-82960678D01*
X96196892Y-83193196D01*
X96041529Y-82960678D01*
X95841651Y-82760800D01*
X95606619Y-82603757D01*
X95345466Y-82495584D01*
X95068227Y-82440437D01*
X94785557Y-82440437D01*
X94508318Y-82495584D01*
X94247165Y-82603757D01*
X94012133Y-82760800D01*
X93812255Y-82960678D01*
X93656892Y-83193196D01*
X93501529Y-82960678D01*
X93301651Y-82760800D01*
X93066619Y-82603757D01*
X92805466Y-82495584D01*
X92528227Y-82440437D01*
X92245557Y-82440437D01*
X91968318Y-82495584D01*
X91707165Y-82603757D01*
X91472133Y-82760800D01*
X91272255Y-82960678D01*
X91116892Y-83193196D01*
X90961529Y-82960678D01*
X90761651Y-82760800D01*
X90526619Y-82603757D01*
X90265466Y-82495584D01*
X89988227Y-82440437D01*
X89705557Y-82440437D01*
X89428318Y-82495584D01*
X89167165Y-82603757D01*
X88932133Y-82760800D01*
X88732255Y-82960678D01*
X88576892Y-83193196D01*
X88421529Y-82960678D01*
X88221651Y-82760800D01*
X87986619Y-82603757D01*
X87725466Y-82495584D01*
X87448227Y-82440437D01*
X87165557Y-82440437D01*
X86888318Y-82495584D01*
X86627165Y-82603757D01*
X86392133Y-82760800D01*
X86192255Y-82960678D01*
X86036892Y-83193196D01*
X85881529Y-82960678D01*
X85681651Y-82760800D01*
X85446619Y-82603757D01*
X85185466Y-82495584D01*
X84908227Y-82440437D01*
X84625557Y-82440437D01*
X84348318Y-82495584D01*
X84087165Y-82603757D01*
X83852133Y-82760800D01*
X83652255Y-82960678D01*
X83496892Y-83193196D01*
X83341529Y-82960678D01*
X83141651Y-82760800D01*
X82906619Y-82603757D01*
X82645466Y-82495584D01*
X82368227Y-82440437D01*
X82085557Y-82440437D01*
X81808318Y-82495584D01*
X81547165Y-82603757D01*
X81312133Y-82760800D01*
X81112255Y-82960678D01*
X80956892Y-83193196D01*
X80801529Y-82960678D01*
X80601651Y-82760800D01*
X80369133Y-82605437D01*
X80601651Y-82450074D01*
X80801529Y-82250196D01*
X80958572Y-82015164D01*
X81066745Y-81754011D01*
X81121892Y-81476772D01*
X81121892Y-81194102D01*
X81066745Y-80916863D01*
X80958572Y-80655710D01*
X80801529Y-80420678D01*
X80601651Y-80220800D01*
X80369133Y-80065437D01*
X80601651Y-79910074D01*
X80801529Y-79710196D01*
X80958572Y-79475164D01*
X81066745Y-79214011D01*
X81071452Y-79190347D01*
X187493952Y-79190347D01*
X188806000Y-80502395D01*
X190118048Y-79190347D01*
X189962038Y-78874786D01*
X189587255Y-78683980D01*
X189305804Y-78604702D01*
X190702903Y-78604702D01*
X190774486Y-78848671D01*
X191029996Y-78969571D01*
X191304184Y-79038300D01*
X191586512Y-79052217D01*
X191866130Y-79010787D01*
X192132292Y-78915603D01*
X192257514Y-78848671D01*
X192329097Y-78604702D01*
X191516000Y-77791605D01*
X190702903Y-78604702D01*
X189305804Y-78604702D01*
X189182449Y-78569956D01*
X188763176Y-78537098D01*
X188345549Y-78586666D01*
X187945617Y-78716757D01*
X187649962Y-78874786D01*
X187493952Y-79190347D01*
X81071452Y-79190347D01*
X81121892Y-78936772D01*
X81121892Y-78654102D01*
X81066745Y-78376863D01*
X80958572Y-78115710D01*
X80801529Y-77880678D01*
X80601651Y-77680800D01*
X80369133Y-77525437D01*
X80601651Y-77370074D01*
X80801529Y-77170196D01*
X80958572Y-76935164D01*
X81066745Y-76674011D01*
X81121892Y-76396772D01*
X81121892Y-76114102D01*
X81118954Y-76099328D01*
X100961892Y-76099328D01*
X100961892Y-76411546D01*
X101022803Y-76717764D01*
X101142283Y-77006216D01*
X101315742Y-77265816D01*
X101536513Y-77486587D01*
X101796113Y-77660046D01*
X102084565Y-77779526D01*
X102390783Y-77840437D01*
X102703001Y-77840437D01*
X103009219Y-77779526D01*
X103297671Y-77660046D01*
X103557271Y-77486587D01*
X103778042Y-77265816D01*
X103951501Y-77006216D01*
X104070981Y-76717764D01*
X104131892Y-76411546D01*
X104131892Y-76099328D01*
X104771892Y-76099328D01*
X104771892Y-76411546D01*
X104832803Y-76717764D01*
X104952283Y-77006216D01*
X105125742Y-77265816D01*
X105346513Y-77486587D01*
X105606113Y-77660046D01*
X105894565Y-77779526D01*
X106200783Y-77840437D01*
X106513001Y-77840437D01*
X106819219Y-77779526D01*
X107053432Y-77682512D01*
X190075783Y-77682512D01*
X190117213Y-77962130D01*
X190212397Y-78228292D01*
X190279329Y-78353514D01*
X190523298Y-78425097D01*
X191336395Y-77612000D01*
X191695605Y-77612000D01*
X192508702Y-78425097D01*
X192752671Y-78353514D01*
X192873571Y-78098004D01*
X192942300Y-77823816D01*
X192956217Y-77541488D01*
X192914787Y-77261870D01*
X192819603Y-76995708D01*
X192752671Y-76870486D01*
X192508702Y-76798903D01*
X191695605Y-77612000D01*
X191336395Y-77612000D01*
X190523298Y-76798903D01*
X190279329Y-76870486D01*
X190158429Y-77125996D01*
X190089700Y-77400184D01*
X190075783Y-77682512D01*
X107053432Y-77682512D01*
X107107671Y-77660046D01*
X107367271Y-77486587D01*
X107588042Y-77265816D01*
X107761501Y-77006216D01*
X107880981Y-76717764D01*
X107941892Y-76411546D01*
X107941892Y-76099328D01*
X107880981Y-75793110D01*
X107761501Y-75504658D01*
X107588042Y-75245058D01*
X107367271Y-75024287D01*
X107107671Y-74850828D01*
X106819219Y-74731348D01*
X106513001Y-74670437D01*
X106200783Y-74670437D01*
X105894565Y-74731348D01*
X105606113Y-74850828D01*
X105346513Y-75024287D01*
X105125742Y-75245058D01*
X104952283Y-75504658D01*
X104832803Y-75793110D01*
X104771892Y-76099328D01*
X104131892Y-76099328D01*
X104070981Y-75793110D01*
X103951501Y-75504658D01*
X103778042Y-75245058D01*
X103557271Y-75024287D01*
X103297671Y-74850828D01*
X103009219Y-74731348D01*
X102703001Y-74670437D01*
X102390783Y-74670437D01*
X102084565Y-74731348D01*
X101796113Y-74850828D01*
X101536513Y-75024287D01*
X101315742Y-75245058D01*
X101142283Y-75504658D01*
X101022803Y-75793110D01*
X100961892Y-76099328D01*
X81118954Y-76099328D01*
X81066745Y-75836863D01*
X80958572Y-75575710D01*
X80801529Y-75340678D01*
X80601651Y-75140800D01*
X80369133Y-74985437D01*
X80601651Y-74830074D01*
X80801529Y-74630196D01*
X80958572Y-74395164D01*
X81066745Y-74134011D01*
X81121892Y-73856772D01*
X81121892Y-73574102D01*
X81066745Y-73296863D01*
X80958572Y-73035710D01*
X80801529Y-72800678D01*
X80601651Y-72600800D01*
X80369133Y-72445437D01*
X80601651Y-72290074D01*
X80801529Y-72090196D01*
X80958572Y-71855164D01*
X81066745Y-71594011D01*
X81121892Y-71316772D01*
X81121892Y-71034102D01*
X81066745Y-70756863D01*
X80958572Y-70495710D01*
X80801529Y-70260678D01*
X80601651Y-70060800D01*
X80369133Y-69905437D01*
X80601651Y-69750074D01*
X80801529Y-69550196D01*
X80956892Y-69317678D01*
X81112255Y-69550196D01*
X81312133Y-69750074D01*
X81547165Y-69907117D01*
X81808318Y-70015290D01*
X82085557Y-70070437D01*
X82368227Y-70070437D01*
X82645466Y-70015290D01*
X82906619Y-69907117D01*
X83141651Y-69750074D01*
X83341529Y-69550196D01*
X83496892Y-69317678D01*
X83652255Y-69550196D01*
X83852133Y-69750074D01*
X84087165Y-69907117D01*
X84348318Y-70015290D01*
X84625557Y-70070437D01*
X84908227Y-70070437D01*
X85185466Y-70015290D01*
X85446619Y-69907117D01*
X85681651Y-69750074D01*
X85881529Y-69550196D01*
X86036892Y-69317678D01*
X86192255Y-69550196D01*
X86392133Y-69750074D01*
X86627165Y-69907117D01*
X86888318Y-70015290D01*
X87165557Y-70070437D01*
X87448227Y-70070437D01*
X87725466Y-70015290D01*
X87986619Y-69907117D01*
X88221651Y-69750074D01*
X88421529Y-69550196D01*
X88576892Y-69317678D01*
X88732255Y-69550196D01*
X88932133Y-69750074D01*
X89167165Y-69907117D01*
X89428318Y-70015290D01*
X89705557Y-70070437D01*
X89988227Y-70070437D01*
X90265466Y-70015290D01*
X90526619Y-69907117D01*
X90761651Y-69750074D01*
X90961529Y-69550196D01*
X91116892Y-69317678D01*
X91272255Y-69550196D01*
X91472133Y-69750074D01*
X91707165Y-69907117D01*
X91968318Y-70015290D01*
X92245557Y-70070437D01*
X92528227Y-70070437D01*
X92805466Y-70015290D01*
X93066619Y-69907117D01*
X93301651Y-69750074D01*
X93501529Y-69550196D01*
X93656892Y-69317678D01*
X93812255Y-69550196D01*
X94012133Y-69750074D01*
X94247165Y-69907117D01*
X94508318Y-70015290D01*
X94785557Y-70070437D01*
X95068227Y-70070437D01*
X95345466Y-70015290D01*
X95606619Y-69907117D01*
X95841651Y-69750074D01*
X96041529Y-69550196D01*
X96196892Y-69317678D01*
X96352255Y-69550196D01*
X96552133Y-69750074D01*
X96787165Y-69907117D01*
X97048318Y-70015290D01*
X97325557Y-70070437D01*
X97608227Y-70070437D01*
X97885466Y-70015290D01*
X98146619Y-69907117D01*
X98381651Y-69750074D01*
X98581529Y-69550196D01*
X98736892Y-69317678D01*
X98892255Y-69550196D01*
X99092133Y-69750074D01*
X99327165Y-69907117D01*
X99588318Y-70015290D01*
X99865557Y-70070437D01*
X100148227Y-70070437D01*
X100425466Y-70015290D01*
X100686619Y-69907117D01*
X100921651Y-69750074D01*
X101121529Y-69550196D01*
X101276892Y-69317678D01*
X101432255Y-69550196D01*
X101632133Y-69750074D01*
X101867165Y-69907117D01*
X102128318Y-70015290D01*
X102405557Y-70070437D01*
X102688227Y-70070437D01*
X102965466Y-70015290D01*
X103226619Y-69907117D01*
X103461651Y-69750074D01*
X103661529Y-69550196D01*
X103816892Y-69317678D01*
X103972255Y-69550196D01*
X104172133Y-69750074D01*
X104407165Y-69907117D01*
X104668318Y-70015290D01*
X104945557Y-70070437D01*
X105228227Y-70070437D01*
X105505466Y-70015290D01*
X105766619Y-69907117D01*
X106001651Y-69750074D01*
X106201529Y-69550196D01*
X106356892Y-69317678D01*
X106512255Y-69550196D01*
X106712133Y-69750074D01*
X106947165Y-69907117D01*
X107208318Y-70015290D01*
X107485557Y-70070437D01*
X107768227Y-70070437D01*
X108045466Y-70015290D01*
X108306619Y-69907117D01*
X108541651Y-69750074D01*
X108741529Y-69550196D01*
X108896892Y-69317678D01*
X109052255Y-69550196D01*
X109252133Y-69750074D01*
X109487165Y-69907117D01*
X109748318Y-70015290D01*
X110025557Y-70070437D01*
X110308227Y-70070437D01*
X110585466Y-70015290D01*
X110846619Y-69907117D01*
X111081651Y-69750074D01*
X111280249Y-69551476D01*
X111281080Y-69559919D01*
X111317390Y-69679617D01*
X111376355Y-69789931D01*
X111455707Y-69886622D01*
X111552398Y-69965974D01*
X111662712Y-70024939D01*
X111782410Y-70061249D01*
X111906892Y-70073509D01*
X112421142Y-70070437D01*
X112579892Y-69911687D01*
X112579892Y-68762437D01*
X112833892Y-68762437D01*
X112833892Y-69911687D01*
X112992642Y-70070437D01*
X113506892Y-70073509D01*
X113631374Y-70061249D01*
X113751072Y-70024939D01*
X113861386Y-69965974D01*
X113958077Y-69886622D01*
X114019317Y-69812000D01*
X190077928Y-69812000D01*
X190077928Y-71412000D01*
X190090188Y-71536482D01*
X190126498Y-71656180D01*
X190185463Y-71766494D01*
X190264815Y-71863185D01*
X190361506Y-71942537D01*
X190471820Y-72001502D01*
X190567943Y-72030661D01*
X190401363Y-72197241D01*
X190244320Y-72432273D01*
X190136147Y-72693426D01*
X190081000Y-72970665D01*
X190081000Y-73253335D01*
X190136147Y-73530574D01*
X190244320Y-73791727D01*
X190401363Y-74026759D01*
X190486604Y-74112000D01*
X190401363Y-74197241D01*
X190244320Y-74432273D01*
X190136147Y-74693426D01*
X190081000Y-74970665D01*
X190081000Y-75253335D01*
X190136147Y-75530574D01*
X190244320Y-75791727D01*
X190401363Y-76026759D01*
X190601241Y-76226637D01*
X190801869Y-76360692D01*
X190774486Y-76375329D01*
X190702903Y-76619298D01*
X191516000Y-77432395D01*
X192329097Y-76619298D01*
X192257514Y-76375329D01*
X192228659Y-76361676D01*
X192430759Y-76226637D01*
X192630637Y-76026759D01*
X192787680Y-75791727D01*
X192895853Y-75530574D01*
X192951000Y-75253335D01*
X192951000Y-74970665D01*
X192895853Y-74693426D01*
X192787680Y-74432273D01*
X192630637Y-74197241D01*
X192545396Y-74112000D01*
X192630637Y-74026759D01*
X192787680Y-73791727D01*
X192895853Y-73530574D01*
X192951000Y-73253335D01*
X192951000Y-72970665D01*
X192895853Y-72693426D01*
X192787680Y-72432273D01*
X192630637Y-72197241D01*
X192464057Y-72030661D01*
X192560180Y-72001502D01*
X192670494Y-71942537D01*
X192767185Y-71863185D01*
X192846537Y-71766494D01*
X192905502Y-71656180D01*
X192941812Y-71536482D01*
X192954072Y-71412000D01*
X192954072Y-69812000D01*
X192941812Y-69687518D01*
X192905502Y-69567820D01*
X192846537Y-69457506D01*
X192767185Y-69360815D01*
X192670494Y-69281463D01*
X192560180Y-69222498D01*
X192440482Y-69186188D01*
X192316000Y-69173928D01*
X190716000Y-69173928D01*
X190591518Y-69186188D01*
X190471820Y-69222498D01*
X190361506Y-69281463D01*
X190264815Y-69360815D01*
X190185463Y-69457506D01*
X190126498Y-69567820D01*
X190090188Y-69687518D01*
X190077928Y-69812000D01*
X114019317Y-69812000D01*
X114037429Y-69789931D01*
X114096394Y-69679617D01*
X114132704Y-69559919D01*
X114144964Y-69435437D01*
X114142564Y-69033653D01*
X187493952Y-69033653D01*
X187649962Y-69349214D01*
X188024745Y-69540020D01*
X188429551Y-69654044D01*
X188848824Y-69686902D01*
X189266451Y-69637334D01*
X189666383Y-69507243D01*
X189962038Y-69349214D01*
X190118048Y-69033653D01*
X188806000Y-67721605D01*
X187493952Y-69033653D01*
X114142564Y-69033653D01*
X114141892Y-68921187D01*
X113983142Y-68762437D01*
X112833892Y-68762437D01*
X112579892Y-68762437D01*
X112559892Y-68762437D01*
X112559892Y-68508437D01*
X112579892Y-68508437D01*
X112579892Y-67359187D01*
X112833892Y-67359187D01*
X112833892Y-68508437D01*
X113983142Y-68508437D01*
X114141892Y-68349687D01*
X114144964Y-67835437D01*
X114132704Y-67710955D01*
X114096394Y-67591257D01*
X114092956Y-67584824D01*
X186661098Y-67584824D01*
X186710666Y-68002451D01*
X186840757Y-68402383D01*
X186998786Y-68698038D01*
X187314347Y-68854048D01*
X188626395Y-67542000D01*
X188985605Y-67542000D01*
X190297653Y-68854048D01*
X190613214Y-68698038D01*
X190804020Y-68323255D01*
X190918044Y-67918449D01*
X190950902Y-67499176D01*
X190901334Y-67081549D01*
X190771243Y-66681617D01*
X190613214Y-66385962D01*
X190297653Y-66229952D01*
X188985605Y-67542000D01*
X188626395Y-67542000D01*
X187314347Y-66229952D01*
X186998786Y-66385962D01*
X186807980Y-66760745D01*
X186693956Y-67165551D01*
X186661098Y-67584824D01*
X114092956Y-67584824D01*
X114037429Y-67480943D01*
X113958077Y-67384252D01*
X113861386Y-67304900D01*
X113751072Y-67245935D01*
X113631374Y-67209625D01*
X113506892Y-67197365D01*
X112992642Y-67200437D01*
X112833892Y-67359187D01*
X112579892Y-67359187D01*
X112421142Y-67200437D01*
X111906892Y-67197365D01*
X111782410Y-67209625D01*
X111662712Y-67245935D01*
X111552398Y-67304900D01*
X111455707Y-67384252D01*
X111376355Y-67480943D01*
X111317390Y-67591257D01*
X111281080Y-67710955D01*
X111280249Y-67719398D01*
X111081651Y-67520800D01*
X110846619Y-67363757D01*
X110585466Y-67255584D01*
X110308227Y-67200437D01*
X110025557Y-67200437D01*
X109748318Y-67255584D01*
X109487165Y-67363757D01*
X109252133Y-67520800D01*
X109052255Y-67720678D01*
X108896892Y-67953196D01*
X108741529Y-67720678D01*
X108541651Y-67520800D01*
X108306619Y-67363757D01*
X108045466Y-67255584D01*
X107768227Y-67200437D01*
X107485557Y-67200437D01*
X107208318Y-67255584D01*
X106947165Y-67363757D01*
X106712133Y-67520800D01*
X106512255Y-67720678D01*
X106356892Y-67953196D01*
X106201529Y-67720678D01*
X106001651Y-67520800D01*
X105766619Y-67363757D01*
X105505466Y-67255584D01*
X105228227Y-67200437D01*
X104945557Y-67200437D01*
X104668318Y-67255584D01*
X104407165Y-67363757D01*
X104172133Y-67520800D01*
X103972255Y-67720678D01*
X103816892Y-67953196D01*
X103661529Y-67720678D01*
X103461651Y-67520800D01*
X103226619Y-67363757D01*
X102965466Y-67255584D01*
X102688227Y-67200437D01*
X102405557Y-67200437D01*
X102128318Y-67255584D01*
X101867165Y-67363757D01*
X101632133Y-67520800D01*
X101432255Y-67720678D01*
X101276892Y-67953196D01*
X101121529Y-67720678D01*
X100921651Y-67520800D01*
X100686619Y-67363757D01*
X100425466Y-67255584D01*
X100148227Y-67200437D01*
X99865557Y-67200437D01*
X99588318Y-67255584D01*
X99327165Y-67363757D01*
X99092133Y-67520800D01*
X98892255Y-67720678D01*
X98736892Y-67953196D01*
X98581529Y-67720678D01*
X98381651Y-67520800D01*
X98146619Y-67363757D01*
X97885466Y-67255584D01*
X97608227Y-67200437D01*
X97325557Y-67200437D01*
X97048318Y-67255584D01*
X96787165Y-67363757D01*
X96552133Y-67520800D01*
X96352255Y-67720678D01*
X96196892Y-67953196D01*
X96041529Y-67720678D01*
X95841651Y-67520800D01*
X95606619Y-67363757D01*
X95345466Y-67255584D01*
X95068227Y-67200437D01*
X94785557Y-67200437D01*
X94508318Y-67255584D01*
X94247165Y-67363757D01*
X94012133Y-67520800D01*
X93812255Y-67720678D01*
X93656892Y-67953196D01*
X93501529Y-67720678D01*
X93301651Y-67520800D01*
X93066619Y-67363757D01*
X92805466Y-67255584D01*
X92528227Y-67200437D01*
X92245557Y-67200437D01*
X91968318Y-67255584D01*
X91707165Y-67363757D01*
X91472133Y-67520800D01*
X91272255Y-67720678D01*
X91116892Y-67953196D01*
X90961529Y-67720678D01*
X90761651Y-67520800D01*
X90526619Y-67363757D01*
X90265466Y-67255584D01*
X89988227Y-67200437D01*
X89705557Y-67200437D01*
X89428318Y-67255584D01*
X89167165Y-67363757D01*
X88932133Y-67520800D01*
X88732255Y-67720678D01*
X88576892Y-67953196D01*
X88421529Y-67720678D01*
X88221651Y-67520800D01*
X87986619Y-67363757D01*
X87725466Y-67255584D01*
X87448227Y-67200437D01*
X87165557Y-67200437D01*
X86888318Y-67255584D01*
X86627165Y-67363757D01*
X86392133Y-67520800D01*
X86192255Y-67720678D01*
X86036892Y-67953196D01*
X85881529Y-67720678D01*
X85681651Y-67520800D01*
X85446619Y-67363757D01*
X85185466Y-67255584D01*
X84908227Y-67200437D01*
X84625557Y-67200437D01*
X84348318Y-67255584D01*
X84087165Y-67363757D01*
X83852133Y-67520800D01*
X83652255Y-67720678D01*
X83496892Y-67953196D01*
X83341529Y-67720678D01*
X83141651Y-67520800D01*
X82906619Y-67363757D01*
X82645466Y-67255584D01*
X82368227Y-67200437D01*
X82085557Y-67200437D01*
X81808318Y-67255584D01*
X81547165Y-67363757D01*
X81312133Y-67520800D01*
X81112255Y-67720678D01*
X80956892Y-67953196D01*
X80801529Y-67720678D01*
X80601651Y-67520800D01*
X80366619Y-67363757D01*
X80105466Y-67255584D01*
X79828227Y-67200437D01*
X79545557Y-67200437D01*
X79268318Y-67255584D01*
X79007165Y-67363757D01*
X78772133Y-67520800D01*
X78572255Y-67720678D01*
X78415212Y-67955710D01*
X78307039Y-68216863D01*
X78251892Y-68494102D01*
X72821000Y-68494102D01*
X72821000Y-66050347D01*
X187493952Y-66050347D01*
X188806000Y-67362395D01*
X190118048Y-66050347D01*
X189962038Y-65734786D01*
X189587255Y-65543980D01*
X189182449Y-65429956D01*
X188763176Y-65397098D01*
X188345549Y-65446666D01*
X187945617Y-65576757D01*
X187649962Y-65734786D01*
X187493952Y-66050347D01*
X72821000Y-66050347D01*
X72821000Y-64133653D01*
X180381952Y-64133653D01*
X180537962Y-64449214D01*
X180912745Y-64640020D01*
X181317551Y-64754044D01*
X181736824Y-64786902D01*
X182154451Y-64737334D01*
X182554383Y-64607243D01*
X182850038Y-64449214D01*
X183006048Y-64133653D01*
X181694000Y-62821605D01*
X180381952Y-64133653D01*
X72821000Y-64133653D01*
X72821000Y-62684824D01*
X179549098Y-62684824D01*
X179598666Y-63102451D01*
X179728757Y-63502383D01*
X179886786Y-63798038D01*
X180202347Y-63954048D01*
X181514395Y-62642000D01*
X181873605Y-62642000D01*
X183185653Y-63954048D01*
X183501214Y-63798038D01*
X183692020Y-63423255D01*
X183806044Y-63018449D01*
X183838902Y-62599176D01*
X183789334Y-62181549D01*
X183659243Y-61781617D01*
X183501214Y-61485962D01*
X183185653Y-61329952D01*
X181873605Y-62642000D01*
X181514395Y-62642000D01*
X180202347Y-61329952D01*
X179886786Y-61485962D01*
X179695980Y-61860745D01*
X179581956Y-62265551D01*
X179549098Y-62684824D01*
X72821000Y-62684824D01*
X72821000Y-61150347D01*
X180381952Y-61150347D01*
X181694000Y-62462395D01*
X183006048Y-61150347D01*
X182850038Y-60834786D01*
X182475255Y-60643980D01*
X182070449Y-60529956D01*
X181651176Y-60497098D01*
X181233549Y-60546666D01*
X180833617Y-60676757D01*
X180537962Y-60834786D01*
X180381952Y-61150347D01*
X72821000Y-61150347D01*
X72821000Y-58793269D01*
X180462336Y-58793269D01*
X180521797Y-59027037D01*
X180760242Y-59137934D01*
X181015740Y-59200183D01*
X181278473Y-59211390D01*
X181538344Y-59171125D01*
X181785366Y-59080935D01*
X181886203Y-59027037D01*
X181945664Y-58793269D01*
X181204000Y-58051605D01*
X180462336Y-58793269D01*
X72821000Y-58793269D01*
X72821000Y-57946473D01*
X179864610Y-57946473D01*
X179904875Y-58206344D01*
X179995065Y-58453366D01*
X180048963Y-58554203D01*
X180282731Y-58613664D01*
X181024395Y-57872000D01*
X181383605Y-57872000D01*
X182125269Y-58613664D01*
X182359037Y-58554203D01*
X182469934Y-58315758D01*
X182532183Y-58060260D01*
X182543390Y-57797527D01*
X182503125Y-57537656D01*
X182412935Y-57290634D01*
X182359037Y-57189797D01*
X182289069Y-57172000D01*
X183065928Y-57172000D01*
X183065928Y-58572000D01*
X183078188Y-58696482D01*
X183114498Y-58816180D01*
X183173463Y-58926494D01*
X183252815Y-59023185D01*
X183349506Y-59102537D01*
X183459820Y-59161502D01*
X183579518Y-59197812D01*
X183704000Y-59210072D01*
X185104000Y-59210072D01*
X185228482Y-59197812D01*
X185348180Y-59161502D01*
X185458494Y-59102537D01*
X185555185Y-59023185D01*
X185634537Y-58926494D01*
X185693502Y-58816180D01*
X185729812Y-58696482D01*
X185742072Y-58572000D01*
X185742072Y-57172000D01*
X185729812Y-57047518D01*
X185693502Y-56927820D01*
X185634537Y-56817506D01*
X185555185Y-56720815D01*
X185458494Y-56641463D01*
X185348180Y-56582498D01*
X185228482Y-56546188D01*
X185104000Y-56533928D01*
X185067987Y-56533928D01*
X185255013Y-56408962D01*
X185440962Y-56223013D01*
X185587061Y-56004359D01*
X185687696Y-55761405D01*
X185739000Y-55503486D01*
X185739000Y-55240514D01*
X185687696Y-54982595D01*
X185587061Y-54739641D01*
X185440962Y-54520987D01*
X185255013Y-54335038D01*
X185036359Y-54188939D01*
X184793405Y-54088304D01*
X184535486Y-54037000D01*
X184272514Y-54037000D01*
X184014595Y-54088304D01*
X183771641Y-54188939D01*
X183552987Y-54335038D01*
X183367038Y-54520987D01*
X183220939Y-54739641D01*
X183120304Y-54982595D01*
X183069000Y-55240514D01*
X183069000Y-55503486D01*
X183120304Y-55761405D01*
X183220939Y-56004359D01*
X183367038Y-56223013D01*
X183552987Y-56408962D01*
X183740013Y-56533928D01*
X183704000Y-56533928D01*
X183579518Y-56546188D01*
X183459820Y-56582498D01*
X183349506Y-56641463D01*
X183252815Y-56720815D01*
X183173463Y-56817506D01*
X183114498Y-56927820D01*
X183078188Y-57047518D01*
X183065928Y-57172000D01*
X182289069Y-57172000D01*
X182125269Y-57130336D01*
X181383605Y-57872000D01*
X181024395Y-57872000D01*
X180282731Y-57130336D01*
X180048963Y-57189797D01*
X179938066Y-57428242D01*
X179875817Y-57683740D01*
X179864610Y-57946473D01*
X72821000Y-57946473D01*
X72821000Y-55538000D01*
X78267928Y-55538000D01*
X78267928Y-57238000D01*
X78280188Y-57362482D01*
X78316498Y-57482180D01*
X78375463Y-57592494D01*
X78454815Y-57689185D01*
X78551506Y-57768537D01*
X78661820Y-57827502D01*
X78781518Y-57863812D01*
X78906000Y-57876072D01*
X80606000Y-57876072D01*
X80730482Y-57863812D01*
X80850180Y-57827502D01*
X80960494Y-57768537D01*
X81057185Y-57689185D01*
X81136537Y-57592494D01*
X81195502Y-57482180D01*
X81216393Y-57413313D01*
X81240866Y-57443134D01*
X81466986Y-57628706D01*
X81724966Y-57766599D01*
X82004889Y-57851513D01*
X82223050Y-57873000D01*
X82368950Y-57873000D01*
X82587111Y-57851513D01*
X82867034Y-57766599D01*
X83125014Y-57628706D01*
X83351134Y-57443134D01*
X83536706Y-57217014D01*
X83566000Y-57162209D01*
X83595294Y-57217014D01*
X83780866Y-57443134D01*
X84006986Y-57628706D01*
X84264966Y-57766599D01*
X84544889Y-57851513D01*
X84763050Y-57873000D01*
X84908950Y-57873000D01*
X85127111Y-57851513D01*
X85407034Y-57766599D01*
X85665014Y-57628706D01*
X85891134Y-57443134D01*
X86076706Y-57217014D01*
X86106000Y-57162209D01*
X86135294Y-57217014D01*
X86320866Y-57443134D01*
X86546986Y-57628706D01*
X86804966Y-57766599D01*
X87084889Y-57851513D01*
X87303050Y-57873000D01*
X87448950Y-57873000D01*
X87667111Y-57851513D01*
X87947034Y-57766599D01*
X88205014Y-57628706D01*
X88431134Y-57443134D01*
X88616706Y-57217014D01*
X88646000Y-57162209D01*
X88675294Y-57217014D01*
X88860866Y-57443134D01*
X89086986Y-57628706D01*
X89344966Y-57766599D01*
X89624889Y-57851513D01*
X89843050Y-57873000D01*
X89988950Y-57873000D01*
X90207111Y-57851513D01*
X90487034Y-57766599D01*
X90745014Y-57628706D01*
X90971134Y-57443134D01*
X91156706Y-57217014D01*
X91186000Y-57162209D01*
X91215294Y-57217014D01*
X91400866Y-57443134D01*
X91626986Y-57628706D01*
X91884966Y-57766599D01*
X92164889Y-57851513D01*
X92383050Y-57873000D01*
X92528950Y-57873000D01*
X92747111Y-57851513D01*
X93027034Y-57766599D01*
X93285014Y-57628706D01*
X93511134Y-57443134D01*
X93696706Y-57217014D01*
X93726000Y-57162209D01*
X93755294Y-57217014D01*
X93940866Y-57443134D01*
X94166986Y-57628706D01*
X94424966Y-57766599D01*
X94704889Y-57851513D01*
X94923050Y-57873000D01*
X95068950Y-57873000D01*
X95287111Y-57851513D01*
X95567034Y-57766599D01*
X95825014Y-57628706D01*
X96051134Y-57443134D01*
X96236706Y-57217014D01*
X96266000Y-57162209D01*
X96295294Y-57217014D01*
X96480866Y-57443134D01*
X96706986Y-57628706D01*
X96964966Y-57766599D01*
X97244889Y-57851513D01*
X97463050Y-57873000D01*
X97608950Y-57873000D01*
X97827111Y-57851513D01*
X98107034Y-57766599D01*
X98365014Y-57628706D01*
X98591134Y-57443134D01*
X98776706Y-57217014D01*
X98914599Y-56959034D01*
X98999513Y-56679111D01*
X99028185Y-56388000D01*
X98999513Y-56096889D01*
X98914599Y-55816966D01*
X98776706Y-55558986D01*
X98591134Y-55332866D01*
X98478603Y-55240514D01*
X179869000Y-55240514D01*
X179869000Y-55503486D01*
X179920304Y-55761405D01*
X180020939Y-56004359D01*
X180167038Y-56223013D01*
X180352987Y-56408962D01*
X180571641Y-56555061D01*
X180734118Y-56622361D01*
X180622634Y-56663065D01*
X180521797Y-56716963D01*
X180462336Y-56950731D01*
X181204000Y-57692395D01*
X181945664Y-56950731D01*
X181886203Y-56716963D01*
X181678596Y-56620408D01*
X181836359Y-56555061D01*
X182055013Y-56408962D01*
X182240962Y-56223013D01*
X182387061Y-56004359D01*
X182487696Y-55761405D01*
X182539000Y-55503486D01*
X182539000Y-55240514D01*
X182487696Y-54982595D01*
X182387061Y-54739641D01*
X182240962Y-54520987D01*
X182055013Y-54335038D01*
X181836359Y-54188939D01*
X181593405Y-54088304D01*
X181335486Y-54037000D01*
X181072514Y-54037000D01*
X180814595Y-54088304D01*
X180571641Y-54188939D01*
X180352987Y-54335038D01*
X180167038Y-54520987D01*
X180020939Y-54739641D01*
X179920304Y-54982595D01*
X179869000Y-55240514D01*
X98478603Y-55240514D01*
X98365014Y-55147294D01*
X98310209Y-55118000D01*
X98365014Y-55088706D01*
X98591134Y-54903134D01*
X98776706Y-54677014D01*
X98914599Y-54419034D01*
X98999513Y-54139111D01*
X99028185Y-53848000D01*
X98999513Y-53556889D01*
X98914599Y-53276966D01*
X98776706Y-53018986D01*
X98591134Y-52792866D01*
X98365014Y-52607294D01*
X98107034Y-52469401D01*
X97827111Y-52384487D01*
X97608950Y-52363000D01*
X97463050Y-52363000D01*
X97244889Y-52384487D01*
X96964966Y-52469401D01*
X96706986Y-52607294D01*
X96480866Y-52792866D01*
X96295294Y-53018986D01*
X96266000Y-53073791D01*
X96236706Y-53018986D01*
X96051134Y-52792866D01*
X95825014Y-52607294D01*
X95567034Y-52469401D01*
X95287111Y-52384487D01*
X95068950Y-52363000D01*
X94923050Y-52363000D01*
X94704889Y-52384487D01*
X94424966Y-52469401D01*
X94166986Y-52607294D01*
X93940866Y-52792866D01*
X93755294Y-53018986D01*
X93726000Y-53073791D01*
X93696706Y-53018986D01*
X93511134Y-52792866D01*
X93285014Y-52607294D01*
X93027034Y-52469401D01*
X92747111Y-52384487D01*
X92528950Y-52363000D01*
X92383050Y-52363000D01*
X92164889Y-52384487D01*
X91884966Y-52469401D01*
X91626986Y-52607294D01*
X91400866Y-52792866D01*
X91215294Y-53018986D01*
X91186000Y-53073791D01*
X91156706Y-53018986D01*
X90971134Y-52792866D01*
X90745014Y-52607294D01*
X90487034Y-52469401D01*
X90207111Y-52384487D01*
X89988950Y-52363000D01*
X89843050Y-52363000D01*
X89624889Y-52384487D01*
X89344966Y-52469401D01*
X89086986Y-52607294D01*
X88860866Y-52792866D01*
X88675294Y-53018986D01*
X88640799Y-53083523D01*
X88571178Y-52966645D01*
X88376269Y-52750412D01*
X88142920Y-52576359D01*
X87880099Y-52451175D01*
X87732890Y-52406524D01*
X87503000Y-52527845D01*
X87503000Y-53721000D01*
X87523000Y-53721000D01*
X87523000Y-53975000D01*
X87503000Y-53975000D01*
X87503000Y-53995000D01*
X87249000Y-53995000D01*
X87249000Y-53975000D01*
X84963000Y-53975000D01*
X84963000Y-53995000D01*
X84709000Y-53995000D01*
X84709000Y-53975000D01*
X82423000Y-53975000D01*
X82423000Y-53995000D01*
X82169000Y-53995000D01*
X82169000Y-53975000D01*
X79883000Y-53975000D01*
X79883000Y-53995000D01*
X79629000Y-53995000D01*
X79629000Y-53975000D01*
X78435186Y-53975000D01*
X78314519Y-54204891D01*
X78411843Y-54479252D01*
X78560822Y-54729355D01*
X78737626Y-54925502D01*
X78661820Y-54948498D01*
X78551506Y-55007463D01*
X78454815Y-55086815D01*
X78375463Y-55183506D01*
X78316498Y-55293820D01*
X78280188Y-55413518D01*
X78267928Y-55538000D01*
X72821000Y-55538000D01*
X72821000Y-53491109D01*
X78314519Y-53491109D01*
X78435186Y-53721000D01*
X79629000Y-53721000D01*
X79629000Y-52527845D01*
X79883000Y-52527845D01*
X79883000Y-53721000D01*
X82169000Y-53721000D01*
X82169000Y-52527845D01*
X82423000Y-52527845D01*
X82423000Y-53721000D01*
X84709000Y-53721000D01*
X84709000Y-52527845D01*
X84963000Y-52527845D01*
X84963000Y-53721000D01*
X87249000Y-53721000D01*
X87249000Y-52527845D01*
X87019110Y-52406524D01*
X86871901Y-52451175D01*
X86609080Y-52576359D01*
X86375731Y-52750412D01*
X86180822Y-52966645D01*
X86106000Y-53092255D01*
X86031178Y-52966645D01*
X85836269Y-52750412D01*
X85602920Y-52576359D01*
X85340099Y-52451175D01*
X85192890Y-52406524D01*
X84963000Y-52527845D01*
X84709000Y-52527845D01*
X84479110Y-52406524D01*
X84331901Y-52451175D01*
X84069080Y-52576359D01*
X83835731Y-52750412D01*
X83640822Y-52966645D01*
X83566000Y-53092255D01*
X83491178Y-52966645D01*
X83296269Y-52750412D01*
X83062920Y-52576359D01*
X82800099Y-52451175D01*
X82652890Y-52406524D01*
X82423000Y-52527845D01*
X82169000Y-52527845D01*
X81939110Y-52406524D01*
X81791901Y-52451175D01*
X81529080Y-52576359D01*
X81295731Y-52750412D01*
X81100822Y-52966645D01*
X81026000Y-53092255D01*
X80951178Y-52966645D01*
X80756269Y-52750412D01*
X80522920Y-52576359D01*
X80260099Y-52451175D01*
X80112890Y-52406524D01*
X79883000Y-52527845D01*
X79629000Y-52527845D01*
X79399110Y-52406524D01*
X79251901Y-52451175D01*
X78989080Y-52576359D01*
X78755731Y-52750412D01*
X78560822Y-52966645D01*
X78411843Y-53216748D01*
X78314519Y-53491109D01*
X72821000Y-53491109D01*
X72821000Y-52093653D01*
X180381952Y-52093653D01*
X180537962Y-52409214D01*
X180912745Y-52600020D01*
X181317551Y-52714044D01*
X181736824Y-52746902D01*
X182154451Y-52697334D01*
X182554383Y-52567243D01*
X182850038Y-52409214D01*
X183006048Y-52093653D01*
X181694000Y-50781605D01*
X180381952Y-52093653D01*
X72821000Y-52093653D01*
X72821000Y-50644824D01*
X179549098Y-50644824D01*
X179598666Y-51062451D01*
X179728757Y-51462383D01*
X179886786Y-51758038D01*
X180202347Y-51914048D01*
X181514395Y-50602000D01*
X181873605Y-50602000D01*
X183185653Y-51914048D01*
X183501214Y-51758038D01*
X183692020Y-51383255D01*
X183806044Y-50978449D01*
X183838902Y-50559176D01*
X183789334Y-50141549D01*
X183659243Y-49741617D01*
X183501214Y-49445962D01*
X183185653Y-49289952D01*
X181873605Y-50602000D01*
X181514395Y-50602000D01*
X180202347Y-49289952D01*
X179886786Y-49445962D01*
X179695980Y-49820745D01*
X179581956Y-50225551D01*
X179549098Y-50644824D01*
X72821000Y-50644824D01*
X72821000Y-49110347D01*
X180381952Y-49110347D01*
X181694000Y-50422395D01*
X183006048Y-49110347D01*
X182850038Y-48794786D01*
X182475255Y-48603980D01*
X182070449Y-48489956D01*
X181651176Y-48457098D01*
X181233549Y-48506666D01*
X180833617Y-48636757D01*
X180537962Y-48794786D01*
X180381952Y-49110347D01*
X72821000Y-49110347D01*
X72821000Y-44333655D01*
X73238328Y-45341173D01*
X73855010Y-46264103D01*
X74639897Y-47048990D01*
X75562827Y-47665672D01*
X76588331Y-48090450D01*
X77677001Y-48307000D01*
X78786999Y-48307000D01*
X79875669Y-48090450D01*
X80901173Y-47665672D01*
X81824103Y-47048990D01*
X82608990Y-46264103D01*
X83225672Y-45341173D01*
X83650450Y-44315669D01*
X83867000Y-43226999D01*
X83867000Y-42117001D01*
X83650450Y-41028331D01*
X83225672Y-40002827D01*
X82608990Y-39079897D01*
X81824103Y-38295010D01*
X81036873Y-37769000D01*
X191378345Y-37769000D01*
X190370827Y-38186328D01*
X190370827Y-38186328D01*
G37*
X190370827Y-38186328D02*
X189447897Y-38803010D01*
X188663010Y-39587897D01*
X188046328Y-40510827D01*
X187621550Y-41536331D01*
X187405000Y-42625001D01*
X187405000Y-43734999D01*
X187621550Y-44823669D01*
X188046328Y-45849173D01*
X188663010Y-46772103D01*
X189447897Y-47556990D01*
X190370827Y-48173672D01*
X191396331Y-48598450D01*
X192485001Y-48815000D01*
X193594999Y-48815000D01*
X194683669Y-48598450D01*
X195709173Y-48173672D01*
X196632103Y-47556990D01*
X197416990Y-46772103D01*
X198033672Y-45849173D01*
X198451000Y-44841655D01*
X198451001Y-144134347D01*
X198033672Y-143126827D01*
X197416990Y-142203897D01*
X196632103Y-141419010D01*
X195709173Y-140802328D01*
X194683669Y-140377550D01*
X193594999Y-140161000D01*
X192485001Y-140161000D01*
X191396331Y-140377550D01*
X190370827Y-140802328D01*
X189447897Y-141419010D01*
X188663010Y-142203897D01*
X188046328Y-143126827D01*
X187621550Y-144152331D01*
X187405000Y-145241001D01*
X187405000Y-146350999D01*
X187621550Y-147439669D01*
X188046328Y-148465173D01*
X188663010Y-149388103D01*
X189447897Y-150172990D01*
X190370827Y-150789672D01*
X191378345Y-151207000D01*
X79385655Y-151207000D01*
X80393173Y-150789672D01*
X81316103Y-150172990D01*
X82100990Y-149388103D01*
X82717672Y-148465173D01*
X83142450Y-147439669D01*
X83359000Y-146350999D01*
X83359000Y-145241001D01*
X83142450Y-144152331D01*
X82717672Y-143126827D01*
X82100990Y-142203897D01*
X81316103Y-141419010D01*
X80393173Y-140802328D01*
X79367669Y-140377550D01*
X78278999Y-140161000D01*
X77169001Y-140161000D01*
X76080331Y-140377550D01*
X75054827Y-140802328D01*
X74131897Y-141419010D01*
X73347010Y-142203897D01*
X72821000Y-142991127D01*
X72821000Y-137114000D01*
X88810065Y-137114000D01*
X88853700Y-137557037D01*
X88982930Y-137983049D01*
X89192787Y-138375664D01*
X89475206Y-138719794D01*
X89819336Y-139002213D01*
X90211951Y-139212070D01*
X90637963Y-139341300D01*
X90969974Y-139374000D01*
X93942026Y-139374000D01*
X94274037Y-139341300D01*
X94700049Y-139212070D01*
X95092664Y-139002213D01*
X95436794Y-138719794D01*
X95719213Y-138375664D01*
X95929070Y-137983049D01*
X96009087Y-137719268D01*
X106877000Y-137719268D01*
X106877000Y-138080732D01*
X106947518Y-138435250D01*
X107085844Y-138769199D01*
X107286662Y-139069744D01*
X107542256Y-139325338D01*
X107842801Y-139526156D01*
X108176750Y-139664482D01*
X108531268Y-139735000D01*
X108892732Y-139735000D01*
X109247250Y-139664482D01*
X109581199Y-139526156D01*
X109881744Y-139325338D01*
X110137338Y-139069744D01*
X110338156Y-138769199D01*
X110476482Y-138435250D01*
X110547000Y-138080732D01*
X110547000Y-137719268D01*
X110476482Y-137364750D01*
X110338156Y-137030801D01*
X110137338Y-136730256D01*
X109881744Y-136474662D01*
X109581199Y-136273844D01*
X109247250Y-136135518D01*
X108892732Y-136065000D01*
X108531268Y-136065000D01*
X108176750Y-136135518D01*
X107842801Y-136273844D01*
X107542256Y-136474662D01*
X107286662Y-136730256D01*
X107085844Y-137030801D01*
X106947518Y-137364750D01*
X106877000Y-137719268D01*
X96009087Y-137719268D01*
X96058300Y-137557037D01*
X96101935Y-137114000D01*
X96058300Y-136670963D01*
X95929070Y-136244951D01*
X95751105Y-135912000D01*
X120789928Y-135912000D01*
X120802188Y-136036482D01*
X120838498Y-136156180D01*
X120897463Y-136266494D01*
X120976815Y-136363185D01*
X121073506Y-136442537D01*
X121183820Y-136501502D01*
X121303518Y-136537812D01*
X121428000Y-136550072D01*
X122142250Y-136547000D01*
X122301000Y-136388250D01*
X122301000Y-134239000D01*
X122555000Y-134239000D01*
X122555000Y-136388250D01*
X122713750Y-136547000D01*
X123428000Y-136550072D01*
X123552482Y-136537812D01*
X123672180Y-136501502D01*
X123782494Y-136442537D01*
X123879185Y-136363185D01*
X123958537Y-136266494D01*
X124017502Y-136156180D01*
X124053812Y-136036482D01*
X124066072Y-135912000D01*
X124063000Y-134397750D01*
X123904250Y-134239000D01*
X122555000Y-134239000D01*
X122301000Y-134239000D01*
X120951750Y-134239000D01*
X120793000Y-134397750D01*
X120789928Y-135912000D01*
X95751105Y-135912000D01*
X95719213Y-135852336D01*
X95436794Y-135508206D01*
X95092664Y-135225787D01*
X94700049Y-135015930D01*
X94274037Y-134886700D01*
X93942026Y-134854000D01*
X90969974Y-134854000D01*
X90637963Y-134886700D01*
X90211951Y-135015930D01*
X89819336Y-135225787D01*
X89475206Y-135508206D01*
X89192787Y-135852336D01*
X88982930Y-136244951D01*
X88853700Y-136670963D01*
X88810065Y-137114000D01*
X72821000Y-137114000D01*
X72821000Y-132269268D01*
X106877000Y-132269268D01*
X106877000Y-132630732D01*
X106947518Y-132985250D01*
X107085844Y-133319199D01*
X107286662Y-133619744D01*
X107542256Y-133875338D01*
X107842801Y-134076156D01*
X108176750Y-134214482D01*
X108531268Y-134285000D01*
X108892732Y-134285000D01*
X109247250Y-134214482D01*
X109581199Y-134076156D01*
X109881744Y-133875338D01*
X110137338Y-133619744D01*
X110338156Y-133319199D01*
X110476482Y-132985250D01*
X110547000Y-132630732D01*
X110547000Y-132312000D01*
X120789928Y-132312000D01*
X120793000Y-133826250D01*
X120951750Y-133985000D01*
X122301000Y-133985000D01*
X122301000Y-131835750D01*
X122555000Y-131835750D01*
X122555000Y-133985000D01*
X123904250Y-133985000D01*
X124063000Y-133826250D01*
X124064206Y-133231679D01*
X128293000Y-133231679D01*
X128293000Y-134992322D01*
X128316658Y-135232516D01*
X128410149Y-135540715D01*
X128561970Y-135824752D01*
X128766287Y-136073714D01*
X129015249Y-136278031D01*
X129299286Y-136429852D01*
X129607485Y-136523343D01*
X129928000Y-136554911D01*
X130248516Y-136523343D01*
X130556715Y-136429852D01*
X130840752Y-136278031D01*
X131089714Y-136073714D01*
X131294031Y-135824752D01*
X131445852Y-135540715D01*
X131539343Y-135232516D01*
X131563000Y-134992322D01*
X131563000Y-133578000D01*
X162953928Y-133578000D01*
X162953928Y-136678000D01*
X162970992Y-136851254D01*
X163021528Y-137017850D01*
X163103595Y-137171386D01*
X163214038Y-137305962D01*
X163348614Y-137416405D01*
X163502150Y-137498472D01*
X163668746Y-137549008D01*
X163842000Y-137566072D01*
X165342000Y-137566072D01*
X165515254Y-137549008D01*
X165681850Y-137498472D01*
X165835386Y-137416405D01*
X165969962Y-137305962D01*
X166080405Y-137171386D01*
X166162472Y-137017850D01*
X166213008Y-136851254D01*
X166230072Y-136678000D01*
X166230072Y-135255000D01*
X170457000Y-135255000D01*
X170457000Y-136055000D01*
X170513193Y-136371532D01*
X170630058Y-136671020D01*
X170803105Y-136941954D01*
X171025683Y-137173922D01*
X171289239Y-137358010D01*
X171583645Y-137487144D01*
X171711566Y-137518124D01*
X171965000Y-137398777D01*
X171965000Y-135255000D01*
X172219000Y-135255000D01*
X172219000Y-137398777D01*
X172472434Y-137518124D01*
X172600355Y-137487144D01*
X172894761Y-137358010D01*
X173158317Y-137173922D01*
X173380895Y-136941954D01*
X173553942Y-136671020D01*
X173670807Y-136371532D01*
X173727000Y-136055000D01*
X173727000Y-135255000D01*
X172219000Y-135255000D01*
X171965000Y-135255000D01*
X170457000Y-135255000D01*
X166230072Y-135255000D01*
X166230072Y-134201000D01*
X170457000Y-134201000D01*
X170457000Y-135001000D01*
X171965000Y-135001000D01*
X171965000Y-132857223D01*
X172219000Y-132857223D01*
X172219000Y-135001000D01*
X173727000Y-135001000D01*
X173727000Y-134201000D01*
X173670807Y-133884468D01*
X173553942Y-133584980D01*
X173380895Y-133314046D01*
X173158317Y-133082078D01*
X172894761Y-132897990D01*
X172600355Y-132768856D01*
X172472434Y-132737876D01*
X172219000Y-132857223D01*
X171965000Y-132857223D01*
X171711566Y-132737876D01*
X171583645Y-132768856D01*
X171289239Y-132897990D01*
X171025683Y-133082078D01*
X170803105Y-133314046D01*
X170630058Y-133584980D01*
X170513193Y-133884468D01*
X170457000Y-134201000D01*
X166230072Y-134201000D01*
X166230072Y-133578000D01*
X166213008Y-133404746D01*
X166162472Y-133238150D01*
X166080405Y-133084614D01*
X165969962Y-132950038D01*
X165835386Y-132839595D01*
X165681850Y-132757528D01*
X165515254Y-132706992D01*
X165342000Y-132689928D01*
X163842000Y-132689928D01*
X163668746Y-132706992D01*
X163502150Y-132757528D01*
X163348614Y-132839595D01*
X163214038Y-132950038D01*
X163103595Y-133084614D01*
X163021528Y-133238150D01*
X162970992Y-133404746D01*
X162953928Y-133578000D01*
X131563000Y-133578000D01*
X131563000Y-133231678D01*
X131539343Y-132991484D01*
X131445852Y-132683285D01*
X131294031Y-132399248D01*
X131089714Y-132150286D01*
X130840751Y-131945969D01*
X130556714Y-131794148D01*
X130248515Y-131700657D01*
X129928000Y-131669089D01*
X129607484Y-131700657D01*
X129299285Y-131794148D01*
X129015248Y-131945969D01*
X128766286Y-132150286D01*
X128561969Y-132399249D01*
X128410148Y-132683286D01*
X128316657Y-132991485D01*
X128293000Y-133231679D01*
X124064206Y-133231679D01*
X124066072Y-132312000D01*
X124053812Y-132187518D01*
X124017502Y-132067820D01*
X123958537Y-131957506D01*
X123879185Y-131860815D01*
X123782494Y-131781463D01*
X123672180Y-131722498D01*
X123552482Y-131686188D01*
X123428000Y-131673928D01*
X122713750Y-131677000D01*
X122555000Y-131835750D01*
X122301000Y-131835750D01*
X122142250Y-131677000D01*
X121428000Y-131673928D01*
X121303518Y-131686188D01*
X121183820Y-131722498D01*
X121073506Y-131781463D01*
X120976815Y-131860815D01*
X120897463Y-131957506D01*
X120838498Y-132067820D01*
X120802188Y-132187518D01*
X120789928Y-132312000D01*
X110547000Y-132312000D01*
X110547000Y-132269268D01*
X110476482Y-131914750D01*
X110338156Y-131580801D01*
X110137338Y-131280256D01*
X109881744Y-131024662D01*
X109581199Y-130823844D01*
X109247250Y-130685518D01*
X108892732Y-130615000D01*
X108531268Y-130615000D01*
X108176750Y-130685518D01*
X107842801Y-130823844D01*
X107542256Y-131024662D01*
X107286662Y-131280256D01*
X107085844Y-131580801D01*
X106947518Y-131914750D01*
X106877000Y-132269268D01*
X72821000Y-132269268D01*
X72821000Y-128200000D01*
X106873928Y-128200000D01*
X106886188Y-128324482D01*
X106922498Y-128444180D01*
X106981463Y-128554494D01*
X107060815Y-128651185D01*
X107157506Y-128730537D01*
X107267820Y-128789502D01*
X107387518Y-128825812D01*
X107512000Y-128838072D01*
X108426250Y-128835000D01*
X108585000Y-128676250D01*
X108585000Y-127127000D01*
X108839000Y-127127000D01*
X108839000Y-128676250D01*
X108997750Y-128835000D01*
X109912000Y-128838072D01*
X110036482Y-128825812D01*
X110156180Y-128789502D01*
X110266494Y-128730537D01*
X110363185Y-128651185D01*
X110442537Y-128554494D01*
X110501502Y-128444180D01*
X110537812Y-128324482D01*
X110550072Y-128200000D01*
X110547000Y-127285750D01*
X110388250Y-127127000D01*
X108839000Y-127127000D01*
X108585000Y-127127000D01*
X107035750Y-127127000D01*
X106877000Y-127285750D01*
X106873928Y-128200000D01*
X72821000Y-128200000D01*
X72821000Y-125800000D01*
X106873928Y-125800000D01*
X106877000Y-126714250D01*
X107035750Y-126873000D01*
X108585000Y-126873000D01*
X108585000Y-125323750D01*
X108839000Y-125323750D01*
X108839000Y-126873000D01*
X110388250Y-126873000D01*
X110547000Y-126714250D01*
X110550072Y-125800000D01*
X110537812Y-125675518D01*
X110501502Y-125555820D01*
X110442537Y-125445506D01*
X110363185Y-125348815D01*
X110266494Y-125269463D01*
X110156180Y-125210498D01*
X110036482Y-125174188D01*
X109912000Y-125161928D01*
X108997750Y-125165000D01*
X108839000Y-125323750D01*
X108585000Y-125323750D01*
X108426250Y-125165000D01*
X107512000Y-125161928D01*
X107387518Y-125174188D01*
X107267820Y-125210498D01*
X107157506Y-125269463D01*
X107060815Y-125348815D01*
X106981463Y-125445506D01*
X106922498Y-125555820D01*
X106886188Y-125675518D01*
X106873928Y-125800000D01*
X72821000Y-125800000D01*
X72821000Y-121209108D01*
X123668000Y-121209108D01*
X123668000Y-121614892D01*
X123747165Y-122012880D01*
X123902452Y-122387776D01*
X124127894Y-122725173D01*
X124414827Y-123012106D01*
X124752224Y-123237548D01*
X125127120Y-123392835D01*
X125525108Y-123472000D01*
X125930892Y-123472000D01*
X126328880Y-123392835D01*
X126703776Y-123237548D01*
X127041173Y-123012106D01*
X127328106Y-122725173D01*
X127553548Y-122387776D01*
X127708835Y-122012880D01*
X127788000Y-121614892D01*
X127788000Y-121209108D01*
X128368000Y-121209108D01*
X128368000Y-121614892D01*
X128447165Y-122012880D01*
X128602452Y-122387776D01*
X128827894Y-122725173D01*
X129114827Y-123012106D01*
X129452224Y-123237548D01*
X129827120Y-123392835D01*
X130225108Y-123472000D01*
X130630892Y-123472000D01*
X131028880Y-123392835D01*
X131403776Y-123237548D01*
X131741173Y-123012106D01*
X132028106Y-122725173D01*
X132253548Y-122387776D01*
X132408835Y-122012880D01*
X132488000Y-121614892D01*
X132488000Y-121209108D01*
X132408835Y-120811120D01*
X132253548Y-120436224D01*
X132028106Y-120098827D01*
X131916279Y-119987000D01*
X133064928Y-119987000D01*
X133064928Y-122837000D01*
X133077188Y-122961482D01*
X133113498Y-123081180D01*
X133172463Y-123191494D01*
X133251815Y-123288185D01*
X133348506Y-123367537D01*
X133458820Y-123426502D01*
X133578518Y-123462812D01*
X133703000Y-123475072D01*
X136553000Y-123475072D01*
X136677482Y-123462812D01*
X136797180Y-123426502D01*
X136907494Y-123367537D01*
X137004185Y-123288185D01*
X137083537Y-123191494D01*
X137142502Y-123081180D01*
X137178812Y-122961482D01*
X137191072Y-122837000D01*
X137191072Y-119987000D01*
X137178812Y-119862518D01*
X137142502Y-119742820D01*
X137083537Y-119632506D01*
X137004185Y-119535815D01*
X136907494Y-119456463D01*
X136797180Y-119397498D01*
X136677482Y-119361188D01*
X136553000Y-119348928D01*
X133703000Y-119348928D01*
X133578518Y-119361188D01*
X133458820Y-119397498D01*
X133348506Y-119456463D01*
X133251815Y-119535815D01*
X133172463Y-119632506D01*
X133113498Y-119742820D01*
X133077188Y-119862518D01*
X133064928Y-119987000D01*
X131916279Y-119987000D01*
X131741173Y-119811894D01*
X131403776Y-119586452D01*
X131028880Y-119431165D01*
X130630892Y-119352000D01*
X130225108Y-119352000D01*
X129827120Y-119431165D01*
X129452224Y-119586452D01*
X129114827Y-119811894D01*
X128827894Y-120098827D01*
X128602452Y-120436224D01*
X128447165Y-120811120D01*
X128368000Y-121209108D01*
X127788000Y-121209108D01*
X127708835Y-120811120D01*
X127553548Y-120436224D01*
X127328106Y-120098827D01*
X127041173Y-119811894D01*
X126703776Y-119586452D01*
X126328880Y-119431165D01*
X125930892Y-119352000D01*
X125525108Y-119352000D01*
X125127120Y-119431165D01*
X124752224Y-119586452D01*
X124414827Y-119811894D01*
X124127894Y-120098827D01*
X123902452Y-120436224D01*
X123747165Y-120811120D01*
X123668000Y-121209108D01*
X72821000Y-121209108D01*
X72821000Y-118143872D01*
X90221000Y-118143872D01*
X90221000Y-118584128D01*
X90306890Y-119015925D01*
X90475369Y-119422669D01*
X90719962Y-119788729D01*
X91031271Y-120100038D01*
X91397331Y-120344631D01*
X91804075Y-120513110D01*
X92235872Y-120599000D01*
X92676128Y-120599000D01*
X93107925Y-120513110D01*
X93514669Y-120344631D01*
X93880729Y-120100038D01*
X94192038Y-119788729D01*
X94436631Y-119422669D01*
X94605110Y-119015925D01*
X94691000Y-118584128D01*
X94691000Y-118143872D01*
X94605110Y-117712075D01*
X94436631Y-117305331D01*
X94192038Y-116939271D01*
X93880729Y-116627962D01*
X93514669Y-116383369D01*
X93107925Y-116214890D01*
X92676128Y-116129000D01*
X92235872Y-116129000D01*
X91804075Y-116214890D01*
X91397331Y-116383369D01*
X91031271Y-116627962D01*
X90719962Y-116939271D01*
X90475369Y-117305331D01*
X90306890Y-117712075D01*
X90221000Y-118143872D01*
X72821000Y-118143872D01*
X72821000Y-115824000D01*
X147910057Y-115824000D01*
X147937764Y-116105309D01*
X148019818Y-116375808D01*
X148153068Y-116625101D01*
X148332392Y-116843608D01*
X148550899Y-117022932D01*
X148800192Y-117156182D01*
X149070691Y-117238236D01*
X149281508Y-117259000D01*
X149422492Y-117259000D01*
X149633309Y-117238236D01*
X149903808Y-117156182D01*
X150153101Y-117022932D01*
X150371608Y-116843608D01*
X150550932Y-116625101D01*
X150684182Y-116375808D01*
X150766236Y-116105309D01*
X150793943Y-115824000D01*
X150780023Y-115682665D01*
X158077000Y-115682665D01*
X158077000Y-115965335D01*
X158132147Y-116242574D01*
X158240320Y-116503727D01*
X158397363Y-116738759D01*
X158597241Y-116938637D01*
X158832273Y-117095680D01*
X159093426Y-117203853D01*
X159370665Y-117259000D01*
X159653335Y-117259000D01*
X159930574Y-117203853D01*
X160191727Y-117095680D01*
X160426759Y-116938637D01*
X160626637Y-116738759D01*
X160783680Y-116503727D01*
X160891853Y-116242574D01*
X160947000Y-115965335D01*
X160947000Y-115682665D01*
X160891853Y-115405426D01*
X160783680Y-115144273D01*
X160626637Y-114909241D01*
X160426759Y-114709363D01*
X160191727Y-114552320D01*
X159930574Y-114444147D01*
X159653335Y-114389000D01*
X159370665Y-114389000D01*
X159093426Y-114444147D01*
X158832273Y-114552320D01*
X158597241Y-114709363D01*
X158397363Y-114909241D01*
X158240320Y-115144273D01*
X158132147Y-115405426D01*
X158077000Y-115682665D01*
X150780023Y-115682665D01*
X150766236Y-115542691D01*
X150684182Y-115272192D01*
X150550932Y-115022899D01*
X150371608Y-114804392D01*
X150153101Y-114625068D01*
X149903808Y-114491818D01*
X149633309Y-114409764D01*
X149422492Y-114389000D01*
X149281508Y-114389000D01*
X149070691Y-114409764D01*
X148800192Y-114491818D01*
X148550899Y-114625068D01*
X148332392Y-114804392D01*
X148153068Y-115022899D01*
X148019818Y-115272192D01*
X147937764Y-115542691D01*
X147910057Y-115824000D01*
X72821000Y-115824000D01*
X72821000Y-110308205D01*
X137213778Y-110308205D01*
X137243415Y-110609118D01*
X137331188Y-110898466D01*
X137473724Y-111165132D01*
X137665544Y-111398866D01*
X137899278Y-111590686D01*
X138165944Y-111733222D01*
X138455292Y-111820995D01*
X138680797Y-111843205D01*
X138831613Y-111843205D01*
X139057118Y-111820995D01*
X139346466Y-111733222D01*
X139613132Y-111590686D01*
X139846866Y-111398866D01*
X140038686Y-111165132D01*
X140067799Y-111110665D01*
X166713000Y-111110665D01*
X166713000Y-111393335D01*
X166768147Y-111670574D01*
X166876320Y-111931727D01*
X167033363Y-112166759D01*
X167233241Y-112366637D01*
X167468273Y-112523680D01*
X167729426Y-112631853D01*
X168006665Y-112687000D01*
X168289335Y-112687000D01*
X168566574Y-112631853D01*
X168827727Y-112523680D01*
X169062759Y-112366637D01*
X169262637Y-112166759D01*
X169419680Y-111931727D01*
X169527853Y-111670574D01*
X169583000Y-111393335D01*
X169583000Y-111110665D01*
X169527853Y-110833426D01*
X169419680Y-110572273D01*
X169262637Y-110337241D01*
X169062759Y-110137363D01*
X168827727Y-109980320D01*
X168566574Y-109872147D01*
X168289335Y-109817000D01*
X168006665Y-109817000D01*
X167729426Y-109872147D01*
X167468273Y-109980320D01*
X167233241Y-110137363D01*
X167033363Y-110337241D01*
X166876320Y-110572273D01*
X166768147Y-110833426D01*
X166713000Y-111110665D01*
X140067799Y-111110665D01*
X140181222Y-110898466D01*
X140268995Y-110609118D01*
X140298632Y-110308205D01*
X140268995Y-110007292D01*
X140181222Y-109717944D01*
X140038686Y-109451278D01*
X139846866Y-109217544D01*
X139613132Y-109025724D01*
X139346466Y-108883188D01*
X139057118Y-108795415D01*
X138831613Y-108773205D01*
X138680797Y-108773205D01*
X138455292Y-108795415D01*
X138165944Y-108883188D01*
X137899278Y-109025724D01*
X137665544Y-109217544D01*
X137473724Y-109451278D01*
X137331188Y-109717944D01*
X137243415Y-110007292D01*
X137213778Y-110308205D01*
X72821000Y-110308205D01*
X72821000Y-105505039D01*
X148576096Y-105505039D01*
X148593633Y-105587818D01*
X148704285Y-105847646D01*
X148863500Y-106080895D01*
X149065161Y-106278601D01*
X149301517Y-106433166D01*
X149563486Y-106538650D01*
X149841000Y-106591000D01*
X150241000Y-106591000D01*
X150241000Y-105283000D01*
X150495000Y-105283000D01*
X150495000Y-106591000D01*
X150895000Y-106591000D01*
X151172514Y-106538650D01*
X151434483Y-106433166D01*
X151670839Y-106278601D01*
X151872500Y-106080895D01*
X152031715Y-105847646D01*
X152142367Y-105587818D01*
X152159904Y-105505039D01*
X152037915Y-105283000D01*
X150495000Y-105283000D01*
X150241000Y-105283000D01*
X148698085Y-105283000D01*
X148576096Y-105505039D01*
X72821000Y-105505039D01*
X72821000Y-103124000D01*
X129661136Y-103124000D01*
X129673396Y-103248482D01*
X129709706Y-103368180D01*
X129768671Y-103478494D01*
X129848023Y-103575185D01*
X131120815Y-104847977D01*
X131217506Y-104927329D01*
X131327820Y-104986294D01*
X131447518Y-105022604D01*
X131572000Y-105034864D01*
X131696482Y-105022604D01*
X131816180Y-104986294D01*
X131926494Y-104927329D01*
X132023185Y-104847977D01*
X133295977Y-103575185D01*
X133375329Y-103478494D01*
X133434294Y-103368180D01*
X133470604Y-103248482D01*
X133482864Y-103124000D01*
X133470604Y-102999518D01*
X133434294Y-102879820D01*
X133375329Y-102769506D01*
X133295977Y-102672815D01*
X132023185Y-101400023D01*
X131926494Y-101320671D01*
X131816180Y-101261706D01*
X131696482Y-101225396D01*
X131572000Y-101213136D01*
X131447518Y-101225396D01*
X131327820Y-101261706D01*
X131217506Y-101320671D01*
X131120815Y-101400023D01*
X129848023Y-102672815D01*
X129768671Y-102769506D01*
X129709706Y-102879820D01*
X129673396Y-102999518D01*
X129661136Y-103124000D01*
X72821000Y-103124000D01*
X72821000Y-99614000D01*
X88810065Y-99614000D01*
X88853700Y-100057037D01*
X88982930Y-100483049D01*
X89192787Y-100875664D01*
X89475206Y-101219794D01*
X89819336Y-101502213D01*
X90211951Y-101712070D01*
X90637963Y-101841300D01*
X90969974Y-101874000D01*
X93942026Y-101874000D01*
X94274037Y-101841300D01*
X94700049Y-101712070D01*
X95092664Y-101502213D01*
X95436794Y-101219794D01*
X95719213Y-100875664D01*
X95929070Y-100483049D01*
X96058300Y-100057037D01*
X96101935Y-99614000D01*
X96058300Y-99170963D01*
X95929070Y-98744951D01*
X95719213Y-98352336D01*
X95436794Y-98008206D01*
X95092664Y-97725787D01*
X94700049Y-97515930D01*
X94274037Y-97386700D01*
X93942026Y-97354000D01*
X90969974Y-97354000D01*
X90637963Y-97386700D01*
X90211951Y-97515930D01*
X89819336Y-97725787D01*
X89475206Y-98008206D01*
X89192787Y-98352336D01*
X88982930Y-98744951D01*
X88853700Y-99170963D01*
X88810065Y-99614000D01*
X72821000Y-99614000D01*
X72821000Y-92456000D01*
X148526057Y-92456000D01*
X148553764Y-92737309D01*
X148635818Y-93007808D01*
X148769068Y-93257101D01*
X148948392Y-93475608D01*
X149166899Y-93654932D01*
X149299858Y-93726000D01*
X149166899Y-93797068D01*
X148948392Y-93976392D01*
X148769068Y-94194899D01*
X148635818Y-94444192D01*
X148553764Y-94714691D01*
X148526057Y-94996000D01*
X148553764Y-95277309D01*
X148635818Y-95547808D01*
X148769068Y-95797101D01*
X148948392Y-96015608D01*
X149166899Y-96194932D01*
X149299858Y-96266000D01*
X149166899Y-96337068D01*
X148948392Y-96516392D01*
X148769068Y-96734899D01*
X148635818Y-96984192D01*
X148553764Y-97254691D01*
X148526057Y-97536000D01*
X148553764Y-97817309D01*
X148635818Y-98087808D01*
X148769068Y-98337101D01*
X148948392Y-98555608D01*
X149166899Y-98734932D01*
X149299858Y-98806000D01*
X149166899Y-98877068D01*
X148948392Y-99056392D01*
X148769068Y-99274899D01*
X148635818Y-99524192D01*
X148553764Y-99794691D01*
X148526057Y-100076000D01*
X148553764Y-100357309D01*
X148635818Y-100627808D01*
X148769068Y-100877101D01*
X148948392Y-101095608D01*
X149166899Y-101274932D01*
X149299858Y-101346000D01*
X149166899Y-101417068D01*
X148948392Y-101596392D01*
X148769068Y-101814899D01*
X148635818Y-102064192D01*
X148553764Y-102334691D01*
X148526057Y-102616000D01*
X148553764Y-102897309D01*
X148635818Y-103167808D01*
X148769068Y-103417101D01*
X148948392Y-103635608D01*
X149166899Y-103814932D01*
X149294741Y-103883265D01*
X149065161Y-104033399D01*
X148863500Y-104231105D01*
X148704285Y-104464354D01*
X148593633Y-104724182D01*
X148576096Y-104806961D01*
X148698085Y-105029000D01*
X150241000Y-105029000D01*
X150241000Y-105009000D01*
X150495000Y-105009000D01*
X150495000Y-105029000D01*
X152037915Y-105029000D01*
X152159904Y-104806961D01*
X152142367Y-104724182D01*
X152031715Y-104464354D01*
X151872500Y-104231105D01*
X151670839Y-104033399D01*
X151441259Y-103883265D01*
X151569101Y-103814932D01*
X151787608Y-103635608D01*
X151966932Y-103417101D01*
X152100182Y-103167808D01*
X152182236Y-102897309D01*
X152209943Y-102616000D01*
X152182236Y-102334691D01*
X152100182Y-102064192D01*
X151966932Y-101814899D01*
X151787608Y-101596392D01*
X151569101Y-101417068D01*
X151436142Y-101346000D01*
X151569101Y-101274932D01*
X151787608Y-101095608D01*
X151966932Y-100877101D01*
X152100182Y-100627808D01*
X152182236Y-100357309D01*
X152209943Y-100076000D01*
X152182236Y-99794691D01*
X152100182Y-99524192D01*
X151966932Y-99274899D01*
X151787608Y-99056392D01*
X151569101Y-98877068D01*
X151436142Y-98806000D01*
X151569101Y-98734932D01*
X151787608Y-98555608D01*
X151966932Y-98337101D01*
X152100182Y-98087808D01*
X152182236Y-97817309D01*
X152209943Y-97536000D01*
X152182236Y-97254691D01*
X152100182Y-96984192D01*
X151966932Y-96734899D01*
X151787608Y-96516392D01*
X151569101Y-96337068D01*
X151436142Y-96266000D01*
X151569101Y-96194932D01*
X151787608Y-96015608D01*
X151966932Y-95797101D01*
X152100182Y-95547808D01*
X152182236Y-95277309D01*
X152209943Y-94996000D01*
X152182236Y-94714691D01*
X152100182Y-94444192D01*
X151966932Y-94194899D01*
X151787608Y-93976392D01*
X151569101Y-93797068D01*
X151436142Y-93726000D01*
X151569101Y-93654932D01*
X151787608Y-93475608D01*
X151966932Y-93257101D01*
X152100182Y-93007808D01*
X152182236Y-92737309D01*
X152209943Y-92456000D01*
X152182236Y-92174691D01*
X152100182Y-91904192D01*
X151966932Y-91654899D01*
X151787608Y-91436392D01*
X151674518Y-91343581D01*
X151692482Y-91341812D01*
X151812180Y-91305502D01*
X151922494Y-91246537D01*
X152019185Y-91167185D01*
X152098537Y-91070494D01*
X152157502Y-90960180D01*
X152193812Y-90840482D01*
X152206072Y-90716000D01*
X152203000Y-90201750D01*
X152044250Y-90043000D01*
X150495000Y-90043000D01*
X150495000Y-90063000D01*
X150241000Y-90063000D01*
X150241000Y-90043000D01*
X148691750Y-90043000D01*
X148533000Y-90201750D01*
X148529928Y-90716000D01*
X148542188Y-90840482D01*
X148578498Y-90960180D01*
X148637463Y-91070494D01*
X148716815Y-91167185D01*
X148813506Y-91246537D01*
X148923820Y-91305502D01*
X149043518Y-91341812D01*
X149061482Y-91343581D01*
X148948392Y-91436392D01*
X148769068Y-91654899D01*
X148635818Y-91904192D01*
X148553764Y-92174691D01*
X148526057Y-92456000D01*
X72821000Y-92456000D01*
X72821000Y-89916000D01*
X156146057Y-89916000D01*
X156173764Y-90197309D01*
X156255818Y-90467808D01*
X156389068Y-90717101D01*
X156568392Y-90935608D01*
X156786899Y-91114932D01*
X156919858Y-91186000D01*
X156786899Y-91257068D01*
X156568392Y-91436392D01*
X156389068Y-91654899D01*
X156255818Y-91904192D01*
X156173764Y-92174691D01*
X156146057Y-92456000D01*
X156173764Y-92737309D01*
X156255818Y-93007808D01*
X156389068Y-93257101D01*
X156568392Y-93475608D01*
X156786899Y-93654932D01*
X156919858Y-93726000D01*
X156786899Y-93797068D01*
X156568392Y-93976392D01*
X156389068Y-94194899D01*
X156255818Y-94444192D01*
X156173764Y-94714691D01*
X156146057Y-94996000D01*
X156173764Y-95277309D01*
X156255818Y-95547808D01*
X156389068Y-95797101D01*
X156568392Y-96015608D01*
X156786899Y-96194932D01*
X156919858Y-96266000D01*
X156786899Y-96337068D01*
X156568392Y-96516392D01*
X156389068Y-96734899D01*
X156255818Y-96984192D01*
X156173764Y-97254691D01*
X156146057Y-97536000D01*
X156173764Y-97817309D01*
X156255818Y-98087808D01*
X156389068Y-98337101D01*
X156568392Y-98555608D01*
X156786899Y-98734932D01*
X156919858Y-98806000D01*
X156786899Y-98877068D01*
X156568392Y-99056392D01*
X156389068Y-99274899D01*
X156255818Y-99524192D01*
X156173764Y-99794691D01*
X156146057Y-100076000D01*
X156173764Y-100357309D01*
X156255818Y-100627808D01*
X156389068Y-100877101D01*
X156568392Y-101095608D01*
X156786899Y-101274932D01*
X156919858Y-101346000D01*
X156786899Y-101417068D01*
X156568392Y-101596392D01*
X156389068Y-101814899D01*
X156255818Y-102064192D01*
X156173764Y-102334691D01*
X156146057Y-102616000D01*
X156173764Y-102897309D01*
X156255818Y-103167808D01*
X156389068Y-103417101D01*
X156568392Y-103635608D01*
X156786899Y-103814932D01*
X156919858Y-103886000D01*
X156786899Y-103957068D01*
X156568392Y-104136392D01*
X156389068Y-104354899D01*
X156255818Y-104604192D01*
X156173764Y-104874691D01*
X156146057Y-105156000D01*
X156173764Y-105437309D01*
X156255818Y-105707808D01*
X156389068Y-105957101D01*
X156568392Y-106175608D01*
X156786899Y-106354932D01*
X157036192Y-106488182D01*
X157306691Y-106570236D01*
X157517508Y-106591000D01*
X158458492Y-106591000D01*
X158669309Y-106570236D01*
X158939808Y-106488182D01*
X159189101Y-106354932D01*
X159407608Y-106175608D01*
X159586932Y-105957101D01*
X159720182Y-105707808D01*
X159802236Y-105437309D01*
X159829943Y-105156000D01*
X159820051Y-105055563D01*
X174524042Y-105055563D01*
X174594788Y-105298828D01*
X174718324Y-105364864D01*
X174983165Y-105459704D01*
X175261420Y-105501053D01*
X175542395Y-105487323D01*
X175815293Y-105419041D01*
X176069625Y-105298832D01*
X176140869Y-105056064D01*
X175332205Y-104247400D01*
X174524042Y-105055563D01*
X159820051Y-105055563D01*
X159802236Y-104874691D01*
X159720182Y-104604192D01*
X159586932Y-104354899D01*
X159409404Y-104138580D01*
X173898947Y-104138580D01*
X173940296Y-104416835D01*
X174035136Y-104681676D01*
X174101172Y-104805212D01*
X174344437Y-104875958D01*
X175152600Y-104067795D01*
X175511810Y-104067795D01*
X176320474Y-104876459D01*
X176563242Y-104805215D01*
X176683451Y-104550883D01*
X176751733Y-104277985D01*
X176765463Y-103997010D01*
X176724114Y-103718755D01*
X176629274Y-103453914D01*
X176563238Y-103330378D01*
X176319973Y-103259632D01*
X175511810Y-104067795D01*
X175152600Y-104067795D01*
X174343936Y-103259131D01*
X174101168Y-103330375D01*
X173980959Y-103584707D01*
X173912677Y-103857605D01*
X173898947Y-104138580D01*
X159409404Y-104138580D01*
X159407608Y-104136392D01*
X159189101Y-103957068D01*
X159056142Y-103886000D01*
X159189101Y-103814932D01*
X159407608Y-103635608D01*
X159586932Y-103417101D01*
X159720182Y-103167808D01*
X159746961Y-103079526D01*
X174523541Y-103079526D01*
X175332205Y-103888190D01*
X176140368Y-103080027D01*
X176069622Y-102836762D01*
X175946086Y-102770726D01*
X175681245Y-102675886D01*
X175402990Y-102634537D01*
X175122015Y-102648267D01*
X174849117Y-102716549D01*
X174594785Y-102836758D01*
X174523541Y-103079526D01*
X159746961Y-103079526D01*
X159802236Y-102897309D01*
X159829943Y-102616000D01*
X159802236Y-102334691D01*
X159720182Y-102064192D01*
X159586932Y-101814899D01*
X159407608Y-101596392D01*
X159189101Y-101417068D01*
X159056142Y-101346000D01*
X159189101Y-101274932D01*
X159407608Y-101095608D01*
X159586932Y-100877101D01*
X159720182Y-100627808D01*
X159802236Y-100357309D01*
X159829943Y-100076000D01*
X159802236Y-99794691D01*
X159720182Y-99524192D01*
X159586932Y-99274899D01*
X159407608Y-99056392D01*
X159189101Y-98877068D01*
X159056142Y-98806000D01*
X159189101Y-98734932D01*
X159407608Y-98555608D01*
X159586932Y-98337101D01*
X159720182Y-98087808D01*
X159802236Y-97817309D01*
X159829943Y-97536000D01*
X159802236Y-97254691D01*
X159720182Y-96984192D01*
X159586932Y-96734899D01*
X159407608Y-96516392D01*
X159189101Y-96337068D01*
X159056142Y-96266000D01*
X159189101Y-96194932D01*
X159407608Y-96015608D01*
X159586932Y-95797101D01*
X159720182Y-95547808D01*
X159802236Y-95277309D01*
X159806046Y-95238616D01*
X174049637Y-95238616D01*
X174079274Y-95539529D01*
X174167047Y-95828877D01*
X174309583Y-96095543D01*
X174501403Y-96329277D01*
X174735137Y-96521097D01*
X175001803Y-96663633D01*
X175291151Y-96751406D01*
X175516656Y-96773616D01*
X175667472Y-96773616D01*
X175892977Y-96751406D01*
X176182325Y-96663633D01*
X176448991Y-96521097D01*
X176682725Y-96329277D01*
X176874545Y-96095543D01*
X177017081Y-95828877D01*
X177104854Y-95539529D01*
X177134491Y-95238616D01*
X177104854Y-94937703D01*
X177017081Y-94648355D01*
X176874545Y-94381689D01*
X176682725Y-94147955D01*
X176448991Y-93956135D01*
X176182325Y-93813599D01*
X175892977Y-93725826D01*
X175667472Y-93703616D01*
X175516656Y-93703616D01*
X175291151Y-93725826D01*
X175001803Y-93813599D01*
X174735137Y-93956135D01*
X174501403Y-94147955D01*
X174309583Y-94381689D01*
X174167047Y-94648355D01*
X174079274Y-94937703D01*
X174049637Y-95238616D01*
X159806046Y-95238616D01*
X159829943Y-94996000D01*
X159802236Y-94714691D01*
X159720182Y-94444192D01*
X159586932Y-94194899D01*
X159407608Y-93976392D01*
X159189101Y-93797068D01*
X159056142Y-93726000D01*
X159189101Y-93654932D01*
X159407608Y-93475608D01*
X159586932Y-93257101D01*
X159720182Y-93007808D01*
X159802236Y-92737309D01*
X159829943Y-92456000D01*
X159802236Y-92174691D01*
X159720182Y-91904192D01*
X159586932Y-91654899D01*
X159407608Y-91436392D01*
X159189101Y-91257068D01*
X159056142Y-91186000D01*
X159189101Y-91114932D01*
X159407608Y-90935608D01*
X159586932Y-90717101D01*
X159720182Y-90467808D01*
X159802236Y-90197309D01*
X159829943Y-89916000D01*
X159802236Y-89634691D01*
X159720182Y-89364192D01*
X159586932Y-89114899D01*
X159407608Y-88896392D01*
X159189101Y-88717068D01*
X158939808Y-88583818D01*
X158669309Y-88501764D01*
X158458492Y-88481000D01*
X157517508Y-88481000D01*
X157306691Y-88501764D01*
X157036192Y-88583818D01*
X156786899Y-88717068D01*
X156568392Y-88896392D01*
X156389068Y-89114899D01*
X156255818Y-89364192D01*
X156173764Y-89634691D01*
X156146057Y-89916000D01*
X72821000Y-89916000D01*
X72821000Y-89116000D01*
X148529928Y-89116000D01*
X148533000Y-89630250D01*
X148691750Y-89789000D01*
X150241000Y-89789000D01*
X150241000Y-88639750D01*
X150495000Y-88639750D01*
X150495000Y-89789000D01*
X152044250Y-89789000D01*
X152203000Y-89630250D01*
X152206072Y-89116000D01*
X152193812Y-88991518D01*
X152157502Y-88871820D01*
X152098537Y-88761506D01*
X152019185Y-88664815D01*
X151922494Y-88585463D01*
X151812180Y-88526498D01*
X151692482Y-88490188D01*
X151568000Y-88477928D01*
X150653750Y-88481000D01*
X150495000Y-88639750D01*
X150241000Y-88639750D01*
X150082250Y-88481000D01*
X149168000Y-88477928D01*
X149043518Y-88490188D01*
X148923820Y-88526498D01*
X148813506Y-88585463D01*
X148716815Y-88664815D01*
X148637463Y-88761506D01*
X148578498Y-88871820D01*
X148542188Y-88991518D01*
X148529928Y-89116000D01*
X72821000Y-89116000D01*
X72821000Y-85364924D01*
X169890021Y-85364924D01*
X169902281Y-85489406D01*
X169938591Y-85609104D01*
X170627422Y-87272087D01*
X170686387Y-87382401D01*
X170765739Y-87479092D01*
X170862430Y-87558445D01*
X170972745Y-87617409D01*
X171092443Y-87653719D01*
X171216924Y-87665979D01*
X171341406Y-87653719D01*
X171461104Y-87617409D01*
X173124087Y-86928578D01*
X173234401Y-86869613D01*
X173331092Y-86790261D01*
X173410445Y-86693570D01*
X173469409Y-86583255D01*
X173505719Y-86463557D01*
X173517979Y-86339076D01*
X173505719Y-86214594D01*
X173469409Y-86094896D01*
X172780578Y-84431913D01*
X172721613Y-84321599D01*
X172642261Y-84224908D01*
X172545570Y-84145555D01*
X172435255Y-84086591D01*
X172315557Y-84050281D01*
X172191076Y-84038021D01*
X172066594Y-84050281D01*
X171946896Y-84086591D01*
X170283913Y-84775422D01*
X170173599Y-84834387D01*
X170076908Y-84913739D01*
X169997555Y-85010430D01*
X169938591Y-85120745D01*
X169902281Y-85240443D01*
X169890021Y-85364924D01*
X72821000Y-85364924D01*
X72821000Y-68494102D01*
X78251892Y-68494102D01*
X78251892Y-68776772D01*
X78307039Y-69054011D01*
X78415212Y-69315164D01*
X78572255Y-69550196D01*
X78772133Y-69750074D01*
X79004651Y-69905437D01*
X78772133Y-70060800D01*
X78572255Y-70260678D01*
X78415212Y-70495710D01*
X78307039Y-70756863D01*
X78251892Y-71034102D01*
X78251892Y-71316772D01*
X78307039Y-71594011D01*
X78415212Y-71855164D01*
X78572255Y-72090196D01*
X78772133Y-72290074D01*
X79004651Y-72445437D01*
X78772133Y-72600800D01*
X78572255Y-72800678D01*
X78415212Y-73035710D01*
X78307039Y-73296863D01*
X78251892Y-73574102D01*
X78251892Y-73856772D01*
X78307039Y-74134011D01*
X78415212Y-74395164D01*
X78572255Y-74630196D01*
X78772133Y-74830074D01*
X79004651Y-74985437D01*
X78772133Y-75140800D01*
X78572255Y-75340678D01*
X78415212Y-75575710D01*
X78307039Y-75836863D01*
X78251892Y-76114102D01*
X78251892Y-76396772D01*
X78307039Y-76674011D01*
X78415212Y-76935164D01*
X78572255Y-77170196D01*
X78772133Y-77370074D01*
X79004651Y-77525437D01*
X78772133Y-77680800D01*
X78572255Y-77880678D01*
X78415212Y-78115710D01*
X78307039Y-78376863D01*
X78251892Y-78654102D01*
X78251892Y-78936772D01*
X78307039Y-79214011D01*
X78415212Y-79475164D01*
X78572255Y-79710196D01*
X78772133Y-79910074D01*
X79004651Y-80065437D01*
X78772133Y-80220800D01*
X78572255Y-80420678D01*
X78415212Y-80655710D01*
X78307039Y-80916863D01*
X78251892Y-81194102D01*
X78251892Y-81476772D01*
X78307039Y-81754011D01*
X78415212Y-82015164D01*
X78572255Y-82250196D01*
X78772133Y-82450074D01*
X79004651Y-82605437D01*
X78772133Y-82760800D01*
X78572255Y-82960678D01*
X78415212Y-83195710D01*
X78307039Y-83456863D01*
X78251892Y-83734102D01*
X78251892Y-84016772D01*
X78307039Y-84294011D01*
X78415212Y-84555164D01*
X78572255Y-84790196D01*
X78772133Y-84990074D01*
X79007165Y-85147117D01*
X79268318Y-85255290D01*
X79545557Y-85310437D01*
X79828227Y-85310437D01*
X80105466Y-85255290D01*
X80366619Y-85147117D01*
X80601651Y-84990074D01*
X80801529Y-84790196D01*
X80956892Y-84557678D01*
X81112255Y-84790196D01*
X81312133Y-84990074D01*
X81547165Y-85147117D01*
X81808318Y-85255290D01*
X82085557Y-85310437D01*
X82368227Y-85310437D01*
X82645466Y-85255290D01*
X82906619Y-85147117D01*
X83141651Y-84990074D01*
X83341529Y-84790196D01*
X83496892Y-84557678D01*
X83652255Y-84790196D01*
X83852133Y-84990074D01*
X84087165Y-85147117D01*
X84348318Y-85255290D01*
X84625557Y-85310437D01*
X84908227Y-85310437D01*
X85185466Y-85255290D01*
X85446619Y-85147117D01*
X85681651Y-84990074D01*
X85881529Y-84790196D01*
X86036892Y-84557678D01*
X86192255Y-84790196D01*
X86392133Y-84990074D01*
X86627165Y-85147117D01*
X86888318Y-85255290D01*
X87165557Y-85310437D01*
X87448227Y-85310437D01*
X87725466Y-85255290D01*
X87986619Y-85147117D01*
X88221651Y-84990074D01*
X88421529Y-84790196D01*
X88576892Y-84557678D01*
X88732255Y-84790196D01*
X88932133Y-84990074D01*
X89167165Y-85147117D01*
X89428318Y-85255290D01*
X89705557Y-85310437D01*
X89988227Y-85310437D01*
X90265466Y-85255290D01*
X90526619Y-85147117D01*
X90761651Y-84990074D01*
X90961529Y-84790196D01*
X91116892Y-84557678D01*
X91272255Y-84790196D01*
X91472133Y-84990074D01*
X91707165Y-85147117D01*
X91968318Y-85255290D01*
X92245557Y-85310437D01*
X92528227Y-85310437D01*
X92805466Y-85255290D01*
X93066619Y-85147117D01*
X93301651Y-84990074D01*
X93501529Y-84790196D01*
X93656892Y-84557678D01*
X93812255Y-84790196D01*
X94012133Y-84990074D01*
X94247165Y-85147117D01*
X94508318Y-85255290D01*
X94785557Y-85310437D01*
X95068227Y-85310437D01*
X95345466Y-85255290D01*
X95606619Y-85147117D01*
X95841651Y-84990074D01*
X96041529Y-84790196D01*
X96196892Y-84557678D01*
X96352255Y-84790196D01*
X96552133Y-84990074D01*
X96787165Y-85147117D01*
X97048318Y-85255290D01*
X97325557Y-85310437D01*
X97608227Y-85310437D01*
X97885466Y-85255290D01*
X98146619Y-85147117D01*
X98381651Y-84990074D01*
X98581529Y-84790196D01*
X98736892Y-84557678D01*
X98892255Y-84790196D01*
X99092133Y-84990074D01*
X99327165Y-85147117D01*
X99588318Y-85255290D01*
X99865557Y-85310437D01*
X100148227Y-85310437D01*
X100425466Y-85255290D01*
X100686619Y-85147117D01*
X100921651Y-84990074D01*
X101121529Y-84790196D01*
X101276892Y-84557678D01*
X101432255Y-84790196D01*
X101632133Y-84990074D01*
X101867165Y-85147117D01*
X102128318Y-85255290D01*
X102405557Y-85310437D01*
X102688227Y-85310437D01*
X102965466Y-85255290D01*
X103226619Y-85147117D01*
X103461651Y-84990074D01*
X103661529Y-84790196D01*
X103816892Y-84557678D01*
X103972255Y-84790196D01*
X104172133Y-84990074D01*
X104407165Y-85147117D01*
X104668318Y-85255290D01*
X104945557Y-85310437D01*
X105228227Y-85310437D01*
X105505466Y-85255290D01*
X105766619Y-85147117D01*
X106001651Y-84990074D01*
X106201529Y-84790196D01*
X106356892Y-84557678D01*
X106512255Y-84790196D01*
X106712133Y-84990074D01*
X106947165Y-85147117D01*
X107208318Y-85255290D01*
X107485557Y-85310437D01*
X107768227Y-85310437D01*
X108045466Y-85255290D01*
X108306619Y-85147117D01*
X108541651Y-84990074D01*
X108741529Y-84790196D01*
X108896892Y-84557678D01*
X109052255Y-84790196D01*
X109252133Y-84990074D01*
X109487165Y-85147117D01*
X109748318Y-85255290D01*
X110025557Y-85310437D01*
X110308227Y-85310437D01*
X110585466Y-85255290D01*
X110846619Y-85147117D01*
X111081651Y-84990074D01*
X111281529Y-84790196D01*
X111436892Y-84557678D01*
X111592255Y-84790196D01*
X111792133Y-84990074D01*
X112027165Y-85147117D01*
X112288318Y-85255290D01*
X112565557Y-85310437D01*
X112848227Y-85310437D01*
X113125466Y-85255290D01*
X113386619Y-85147117D01*
X113621651Y-84990074D01*
X113821529Y-84790196D01*
X113978572Y-84555164D01*
X114086745Y-84294011D01*
X114141892Y-84016772D01*
X114141892Y-83734102D01*
X114086745Y-83456863D01*
X113978572Y-83195710D01*
X113821529Y-82960678D01*
X113621651Y-82760800D01*
X113386619Y-82603757D01*
X113125466Y-82495584D01*
X112848227Y-82440437D01*
X112565557Y-82440437D01*
X112288318Y-82495584D01*
X112027165Y-82603757D01*
X111792133Y-82760800D01*
X111592255Y-82960678D01*
X111436892Y-83193196D01*
X111281529Y-82960678D01*
X111081651Y-82760800D01*
X110849133Y-82605437D01*
X111081651Y-82450074D01*
X111281529Y-82250196D01*
X111332673Y-82173653D01*
X187493952Y-82173653D01*
X187649962Y-82489214D01*
X188024745Y-82680020D01*
X188429551Y-82794044D01*
X188848824Y-82826902D01*
X189266451Y-82777334D01*
X189666383Y-82647243D01*
X189962038Y-82489214D01*
X190118048Y-82173653D01*
X188806000Y-80861605D01*
X187493952Y-82173653D01*
X111332673Y-82173653D01*
X111438572Y-82015164D01*
X111546745Y-81754011D01*
X111601892Y-81476772D01*
X111601892Y-81194102D01*
X111546745Y-80916863D01*
X111467200Y-80724824D01*
X186661098Y-80724824D01*
X186710666Y-81142451D01*
X186840757Y-81542383D01*
X186998786Y-81838038D01*
X187314347Y-81994048D01*
X188626395Y-80682000D01*
X188985605Y-80682000D01*
X190297653Y-81994048D01*
X190613214Y-81838038D01*
X190804020Y-81463255D01*
X190918044Y-81058449D01*
X190950902Y-80639176D01*
X190901334Y-80221549D01*
X190771243Y-79821617D01*
X190613214Y-79525962D01*
X190297653Y-79369952D01*
X188985605Y-80682000D01*
X188626395Y-80682000D01*
X187314347Y-79369952D01*
X186998786Y-79525962D01*
X186807980Y-79900745D01*
X186693956Y-80305551D01*
X186661098Y-80724824D01*
X111467200Y-80724824D01*
X111438572Y-80655710D01*
X111281529Y-80420678D01*
X111081651Y-80220800D01*
X110846619Y-80063757D01*
X110585466Y-79955584D01*
X110308227Y-79900437D01*
X110025557Y-79900437D01*
X109748318Y-79955584D01*
X109487165Y-80063757D01*
X109252133Y-80220800D01*
X109052255Y-80420678D01*
X108895212Y-80655710D01*
X108787039Y-80916863D01*
X108731892Y-81194102D01*
X108731892Y-81476772D01*
X108787039Y-81754011D01*
X108895212Y-82015164D01*
X109052255Y-82250196D01*
X109252133Y-82450074D01*
X109484651Y-82605437D01*
X109252133Y-82760800D01*
X109052255Y-82960678D01*
X108896892Y-83193196D01*
X108741529Y-82960678D01*
X108541651Y-82760800D01*
X108306619Y-82603757D01*
X108045466Y-82495584D01*
X107768227Y-82440437D01*
X107485557Y-82440437D01*
X107208318Y-82495584D01*
X106947165Y-82603757D01*
X106712133Y-82760800D01*
X106512255Y-82960678D01*
X106356892Y-83193196D01*
X106201529Y-82960678D01*
X106001651Y-82760800D01*
X105769133Y-82605437D01*
X106001651Y-82450074D01*
X106201529Y-82250196D01*
X106358572Y-82015164D01*
X106466745Y-81754011D01*
X106521892Y-81476772D01*
X106521892Y-81194102D01*
X106466745Y-80916863D01*
X106358572Y-80655710D01*
X106201529Y-80420678D01*
X106001651Y-80220800D01*
X105766619Y-80063757D01*
X105505466Y-79955584D01*
X105228227Y-79900437D01*
X104945557Y-79900437D01*
X104668318Y-79955584D01*
X104407165Y-80063757D01*
X104172133Y-80220800D01*
X103972255Y-80420678D01*
X103816892Y-80653196D01*
X103661529Y-80420678D01*
X103461651Y-80220800D01*
X103226619Y-80063757D01*
X102965466Y-79955584D01*
X102688227Y-79900437D01*
X102405557Y-79900437D01*
X102128318Y-79955584D01*
X101867165Y-80063757D01*
X101632133Y-80220800D01*
X101432255Y-80420678D01*
X101276892Y-80653196D01*
X101121529Y-80420678D01*
X100921651Y-80220800D01*
X100686619Y-80063757D01*
X100425466Y-79955584D01*
X100148227Y-79900437D01*
X99865557Y-79900437D01*
X99588318Y-79955584D01*
X99327165Y-80063757D01*
X99092133Y-80220800D01*
X98892255Y-80420678D01*
X98735212Y-80655710D01*
X98627039Y-80916863D01*
X98571892Y-81194102D01*
X98571892Y-81476772D01*
X98627039Y-81754011D01*
X98735212Y-82015164D01*
X98892255Y-82250196D01*
X99092133Y-82450074D01*
X99324651Y-82605437D01*
X99092133Y-82760800D01*
X98892255Y-82960678D01*
X98736892Y-83193196D01*
X98581529Y-82960678D01*
X98381651Y-82760800D01*
X98146619Y-82603757D01*
X97885466Y-82495584D01*
X97608227Y-82440437D01*
X97325557Y-82440437D01*
X97048318Y-82495584D01*
X96787165Y-82603757D01*
X96552133Y-82760800D01*
X96352255Y-82960678D01*
X96196892Y-83193196D01*
X96041529Y-82960678D01*
X95841651Y-82760800D01*
X95606619Y-82603757D01*
X95345466Y-82495584D01*
X95068227Y-82440437D01*
X94785557Y-82440437D01*
X94508318Y-82495584D01*
X94247165Y-82603757D01*
X94012133Y-82760800D01*
X93812255Y-82960678D01*
X93656892Y-83193196D01*
X93501529Y-82960678D01*
X93301651Y-82760800D01*
X93066619Y-82603757D01*
X92805466Y-82495584D01*
X92528227Y-82440437D01*
X92245557Y-82440437D01*
X91968318Y-82495584D01*
X91707165Y-82603757D01*
X91472133Y-82760800D01*
X91272255Y-82960678D01*
X91116892Y-83193196D01*
X90961529Y-82960678D01*
X90761651Y-82760800D01*
X90526619Y-82603757D01*
X90265466Y-82495584D01*
X89988227Y-82440437D01*
X89705557Y-82440437D01*
X89428318Y-82495584D01*
X89167165Y-82603757D01*
X88932133Y-82760800D01*
X88732255Y-82960678D01*
X88576892Y-83193196D01*
X88421529Y-82960678D01*
X88221651Y-82760800D01*
X87986619Y-82603757D01*
X87725466Y-82495584D01*
X87448227Y-82440437D01*
X87165557Y-82440437D01*
X86888318Y-82495584D01*
X86627165Y-82603757D01*
X86392133Y-82760800D01*
X86192255Y-82960678D01*
X86036892Y-83193196D01*
X85881529Y-82960678D01*
X85681651Y-82760800D01*
X85446619Y-82603757D01*
X85185466Y-82495584D01*
X84908227Y-82440437D01*
X84625557Y-82440437D01*
X84348318Y-82495584D01*
X84087165Y-82603757D01*
X83852133Y-82760800D01*
X83652255Y-82960678D01*
X83496892Y-83193196D01*
X83341529Y-82960678D01*
X83141651Y-82760800D01*
X82906619Y-82603757D01*
X82645466Y-82495584D01*
X82368227Y-82440437D01*
X82085557Y-82440437D01*
X81808318Y-82495584D01*
X81547165Y-82603757D01*
X81312133Y-82760800D01*
X81112255Y-82960678D01*
X80956892Y-83193196D01*
X80801529Y-82960678D01*
X80601651Y-82760800D01*
X80369133Y-82605437D01*
X80601651Y-82450074D01*
X80801529Y-82250196D01*
X80958572Y-82015164D01*
X81066745Y-81754011D01*
X81121892Y-81476772D01*
X81121892Y-81194102D01*
X81066745Y-80916863D01*
X80958572Y-80655710D01*
X80801529Y-80420678D01*
X80601651Y-80220800D01*
X80369133Y-80065437D01*
X80601651Y-79910074D01*
X80801529Y-79710196D01*
X80958572Y-79475164D01*
X81066745Y-79214011D01*
X81071452Y-79190347D01*
X187493952Y-79190347D01*
X188806000Y-80502395D01*
X190118048Y-79190347D01*
X189962038Y-78874786D01*
X189587255Y-78683980D01*
X189305804Y-78604702D01*
X190702903Y-78604702D01*
X190774486Y-78848671D01*
X191029996Y-78969571D01*
X191304184Y-79038300D01*
X191586512Y-79052217D01*
X191866130Y-79010787D01*
X192132292Y-78915603D01*
X192257514Y-78848671D01*
X192329097Y-78604702D01*
X191516000Y-77791605D01*
X190702903Y-78604702D01*
X189305804Y-78604702D01*
X189182449Y-78569956D01*
X188763176Y-78537098D01*
X188345549Y-78586666D01*
X187945617Y-78716757D01*
X187649962Y-78874786D01*
X187493952Y-79190347D01*
X81071452Y-79190347D01*
X81121892Y-78936772D01*
X81121892Y-78654102D01*
X81066745Y-78376863D01*
X80958572Y-78115710D01*
X80801529Y-77880678D01*
X80601651Y-77680800D01*
X80369133Y-77525437D01*
X80601651Y-77370074D01*
X80801529Y-77170196D01*
X80958572Y-76935164D01*
X81066745Y-76674011D01*
X81121892Y-76396772D01*
X81121892Y-76114102D01*
X81118954Y-76099328D01*
X100961892Y-76099328D01*
X100961892Y-76411546D01*
X101022803Y-76717764D01*
X101142283Y-77006216D01*
X101315742Y-77265816D01*
X101536513Y-77486587D01*
X101796113Y-77660046D01*
X102084565Y-77779526D01*
X102390783Y-77840437D01*
X102703001Y-77840437D01*
X103009219Y-77779526D01*
X103297671Y-77660046D01*
X103557271Y-77486587D01*
X103778042Y-77265816D01*
X103951501Y-77006216D01*
X104070981Y-76717764D01*
X104131892Y-76411546D01*
X104131892Y-76099328D01*
X104771892Y-76099328D01*
X104771892Y-76411546D01*
X104832803Y-76717764D01*
X104952283Y-77006216D01*
X105125742Y-77265816D01*
X105346513Y-77486587D01*
X105606113Y-77660046D01*
X105894565Y-77779526D01*
X106200783Y-77840437D01*
X106513001Y-77840437D01*
X106819219Y-77779526D01*
X107053432Y-77682512D01*
X190075783Y-77682512D01*
X190117213Y-77962130D01*
X190212397Y-78228292D01*
X190279329Y-78353514D01*
X190523298Y-78425097D01*
X191336395Y-77612000D01*
X191695605Y-77612000D01*
X192508702Y-78425097D01*
X192752671Y-78353514D01*
X192873571Y-78098004D01*
X192942300Y-77823816D01*
X192956217Y-77541488D01*
X192914787Y-77261870D01*
X192819603Y-76995708D01*
X192752671Y-76870486D01*
X192508702Y-76798903D01*
X191695605Y-77612000D01*
X191336395Y-77612000D01*
X190523298Y-76798903D01*
X190279329Y-76870486D01*
X190158429Y-77125996D01*
X190089700Y-77400184D01*
X190075783Y-77682512D01*
X107053432Y-77682512D01*
X107107671Y-77660046D01*
X107367271Y-77486587D01*
X107588042Y-77265816D01*
X107761501Y-77006216D01*
X107880981Y-76717764D01*
X107941892Y-76411546D01*
X107941892Y-76099328D01*
X107880981Y-75793110D01*
X107761501Y-75504658D01*
X107588042Y-75245058D01*
X107367271Y-75024287D01*
X107107671Y-74850828D01*
X106819219Y-74731348D01*
X106513001Y-74670437D01*
X106200783Y-74670437D01*
X105894565Y-74731348D01*
X105606113Y-74850828D01*
X105346513Y-75024287D01*
X105125742Y-75245058D01*
X104952283Y-75504658D01*
X104832803Y-75793110D01*
X104771892Y-76099328D01*
X104131892Y-76099328D01*
X104070981Y-75793110D01*
X103951501Y-75504658D01*
X103778042Y-75245058D01*
X103557271Y-75024287D01*
X103297671Y-74850828D01*
X103009219Y-74731348D01*
X102703001Y-74670437D01*
X102390783Y-74670437D01*
X102084565Y-74731348D01*
X101796113Y-74850828D01*
X101536513Y-75024287D01*
X101315742Y-75245058D01*
X101142283Y-75504658D01*
X101022803Y-75793110D01*
X100961892Y-76099328D01*
X81118954Y-76099328D01*
X81066745Y-75836863D01*
X80958572Y-75575710D01*
X80801529Y-75340678D01*
X80601651Y-75140800D01*
X80369133Y-74985437D01*
X80601651Y-74830074D01*
X80801529Y-74630196D01*
X80958572Y-74395164D01*
X81066745Y-74134011D01*
X81121892Y-73856772D01*
X81121892Y-73574102D01*
X81066745Y-73296863D01*
X80958572Y-73035710D01*
X80801529Y-72800678D01*
X80601651Y-72600800D01*
X80369133Y-72445437D01*
X80601651Y-72290074D01*
X80801529Y-72090196D01*
X80958572Y-71855164D01*
X81066745Y-71594011D01*
X81121892Y-71316772D01*
X81121892Y-71034102D01*
X81066745Y-70756863D01*
X80958572Y-70495710D01*
X80801529Y-70260678D01*
X80601651Y-70060800D01*
X80369133Y-69905437D01*
X80601651Y-69750074D01*
X80801529Y-69550196D01*
X80956892Y-69317678D01*
X81112255Y-69550196D01*
X81312133Y-69750074D01*
X81547165Y-69907117D01*
X81808318Y-70015290D01*
X82085557Y-70070437D01*
X82368227Y-70070437D01*
X82645466Y-70015290D01*
X82906619Y-69907117D01*
X83141651Y-69750074D01*
X83341529Y-69550196D01*
X83496892Y-69317678D01*
X83652255Y-69550196D01*
X83852133Y-69750074D01*
X84087165Y-69907117D01*
X84348318Y-70015290D01*
X84625557Y-70070437D01*
X84908227Y-70070437D01*
X85185466Y-70015290D01*
X85446619Y-69907117D01*
X85681651Y-69750074D01*
X85881529Y-69550196D01*
X86036892Y-69317678D01*
X86192255Y-69550196D01*
X86392133Y-69750074D01*
X86627165Y-69907117D01*
X86888318Y-70015290D01*
X87165557Y-70070437D01*
X87448227Y-70070437D01*
X87725466Y-70015290D01*
X87986619Y-69907117D01*
X88221651Y-69750074D01*
X88421529Y-69550196D01*
X88576892Y-69317678D01*
X88732255Y-69550196D01*
X88932133Y-69750074D01*
X89167165Y-69907117D01*
X89428318Y-70015290D01*
X89705557Y-70070437D01*
X89988227Y-70070437D01*
X90265466Y-70015290D01*
X90526619Y-69907117D01*
X90761651Y-69750074D01*
X90961529Y-69550196D01*
X91116892Y-69317678D01*
X91272255Y-69550196D01*
X91472133Y-69750074D01*
X91707165Y-69907117D01*
X91968318Y-70015290D01*
X92245557Y-70070437D01*
X92528227Y-70070437D01*
X92805466Y-70015290D01*
X93066619Y-69907117D01*
X93301651Y-69750074D01*
X93501529Y-69550196D01*
X93656892Y-69317678D01*
X93812255Y-69550196D01*
X94012133Y-69750074D01*
X94247165Y-69907117D01*
X94508318Y-70015290D01*
X94785557Y-70070437D01*
X95068227Y-70070437D01*
X95345466Y-70015290D01*
X95606619Y-69907117D01*
X95841651Y-69750074D01*
X96041529Y-69550196D01*
X96196892Y-69317678D01*
X96352255Y-69550196D01*
X96552133Y-69750074D01*
X96787165Y-69907117D01*
X97048318Y-70015290D01*
X97325557Y-70070437D01*
X97608227Y-70070437D01*
X97885466Y-70015290D01*
X98146619Y-69907117D01*
X98381651Y-69750074D01*
X98581529Y-69550196D01*
X98736892Y-69317678D01*
X98892255Y-69550196D01*
X99092133Y-69750074D01*
X99327165Y-69907117D01*
X99588318Y-70015290D01*
X99865557Y-70070437D01*
X100148227Y-70070437D01*
X100425466Y-70015290D01*
X100686619Y-69907117D01*
X100921651Y-69750074D01*
X101121529Y-69550196D01*
X101276892Y-69317678D01*
X101432255Y-69550196D01*
X101632133Y-69750074D01*
X101867165Y-69907117D01*
X102128318Y-70015290D01*
X102405557Y-70070437D01*
X102688227Y-70070437D01*
X102965466Y-70015290D01*
X103226619Y-69907117D01*
X103461651Y-69750074D01*
X103661529Y-69550196D01*
X103816892Y-69317678D01*
X103972255Y-69550196D01*
X104172133Y-69750074D01*
X104407165Y-69907117D01*
X104668318Y-70015290D01*
X104945557Y-70070437D01*
X105228227Y-70070437D01*
X105505466Y-70015290D01*
X105766619Y-69907117D01*
X106001651Y-69750074D01*
X106201529Y-69550196D01*
X106356892Y-69317678D01*
X106512255Y-69550196D01*
X106712133Y-69750074D01*
X106947165Y-69907117D01*
X107208318Y-70015290D01*
X107485557Y-70070437D01*
X107768227Y-70070437D01*
X108045466Y-70015290D01*
X108306619Y-69907117D01*
X108541651Y-69750074D01*
X108741529Y-69550196D01*
X108896892Y-69317678D01*
X109052255Y-69550196D01*
X109252133Y-69750074D01*
X109487165Y-69907117D01*
X109748318Y-70015290D01*
X110025557Y-70070437D01*
X110308227Y-70070437D01*
X110585466Y-70015290D01*
X110846619Y-69907117D01*
X111081651Y-69750074D01*
X111280249Y-69551476D01*
X111281080Y-69559919D01*
X111317390Y-69679617D01*
X111376355Y-69789931D01*
X111455707Y-69886622D01*
X111552398Y-69965974D01*
X111662712Y-70024939D01*
X111782410Y-70061249D01*
X111906892Y-70073509D01*
X112421142Y-70070437D01*
X112579892Y-69911687D01*
X112579892Y-68762437D01*
X112833892Y-68762437D01*
X112833892Y-69911687D01*
X112992642Y-70070437D01*
X113506892Y-70073509D01*
X113631374Y-70061249D01*
X113751072Y-70024939D01*
X113861386Y-69965974D01*
X113958077Y-69886622D01*
X114019317Y-69812000D01*
X190077928Y-69812000D01*
X190077928Y-71412000D01*
X190090188Y-71536482D01*
X190126498Y-71656180D01*
X190185463Y-71766494D01*
X190264815Y-71863185D01*
X190361506Y-71942537D01*
X190471820Y-72001502D01*
X190567943Y-72030661D01*
X190401363Y-72197241D01*
X190244320Y-72432273D01*
X190136147Y-72693426D01*
X190081000Y-72970665D01*
X190081000Y-73253335D01*
X190136147Y-73530574D01*
X190244320Y-73791727D01*
X190401363Y-74026759D01*
X190486604Y-74112000D01*
X190401363Y-74197241D01*
X190244320Y-74432273D01*
X190136147Y-74693426D01*
X190081000Y-74970665D01*
X190081000Y-75253335D01*
X190136147Y-75530574D01*
X190244320Y-75791727D01*
X190401363Y-76026759D01*
X190601241Y-76226637D01*
X190801869Y-76360692D01*
X190774486Y-76375329D01*
X190702903Y-76619298D01*
X191516000Y-77432395D01*
X192329097Y-76619298D01*
X192257514Y-76375329D01*
X192228659Y-76361676D01*
X192430759Y-76226637D01*
X192630637Y-76026759D01*
X192787680Y-75791727D01*
X192895853Y-75530574D01*
X192951000Y-75253335D01*
X192951000Y-74970665D01*
X192895853Y-74693426D01*
X192787680Y-74432273D01*
X192630637Y-74197241D01*
X192545396Y-74112000D01*
X192630637Y-74026759D01*
X192787680Y-73791727D01*
X192895853Y-73530574D01*
X192951000Y-73253335D01*
X192951000Y-72970665D01*
X192895853Y-72693426D01*
X192787680Y-72432273D01*
X192630637Y-72197241D01*
X192464057Y-72030661D01*
X192560180Y-72001502D01*
X192670494Y-71942537D01*
X192767185Y-71863185D01*
X192846537Y-71766494D01*
X192905502Y-71656180D01*
X192941812Y-71536482D01*
X192954072Y-71412000D01*
X192954072Y-69812000D01*
X192941812Y-69687518D01*
X192905502Y-69567820D01*
X192846537Y-69457506D01*
X192767185Y-69360815D01*
X192670494Y-69281463D01*
X192560180Y-69222498D01*
X192440482Y-69186188D01*
X192316000Y-69173928D01*
X190716000Y-69173928D01*
X190591518Y-69186188D01*
X190471820Y-69222498D01*
X190361506Y-69281463D01*
X190264815Y-69360815D01*
X190185463Y-69457506D01*
X190126498Y-69567820D01*
X190090188Y-69687518D01*
X190077928Y-69812000D01*
X114019317Y-69812000D01*
X114037429Y-69789931D01*
X114096394Y-69679617D01*
X114132704Y-69559919D01*
X114144964Y-69435437D01*
X114142564Y-69033653D01*
X187493952Y-69033653D01*
X187649962Y-69349214D01*
X188024745Y-69540020D01*
X188429551Y-69654044D01*
X188848824Y-69686902D01*
X189266451Y-69637334D01*
X189666383Y-69507243D01*
X189962038Y-69349214D01*
X190118048Y-69033653D01*
X188806000Y-67721605D01*
X187493952Y-69033653D01*
X114142564Y-69033653D01*
X114141892Y-68921187D01*
X113983142Y-68762437D01*
X112833892Y-68762437D01*
X112579892Y-68762437D01*
X112559892Y-68762437D01*
X112559892Y-68508437D01*
X112579892Y-68508437D01*
X112579892Y-67359187D01*
X112833892Y-67359187D01*
X112833892Y-68508437D01*
X113983142Y-68508437D01*
X114141892Y-68349687D01*
X114144964Y-67835437D01*
X114132704Y-67710955D01*
X114096394Y-67591257D01*
X114092956Y-67584824D01*
X186661098Y-67584824D01*
X186710666Y-68002451D01*
X186840757Y-68402383D01*
X186998786Y-68698038D01*
X187314347Y-68854048D01*
X188626395Y-67542000D01*
X188985605Y-67542000D01*
X190297653Y-68854048D01*
X190613214Y-68698038D01*
X190804020Y-68323255D01*
X190918044Y-67918449D01*
X190950902Y-67499176D01*
X190901334Y-67081549D01*
X190771243Y-66681617D01*
X190613214Y-66385962D01*
X190297653Y-66229952D01*
X188985605Y-67542000D01*
X188626395Y-67542000D01*
X187314347Y-66229952D01*
X186998786Y-66385962D01*
X186807980Y-66760745D01*
X186693956Y-67165551D01*
X186661098Y-67584824D01*
X114092956Y-67584824D01*
X114037429Y-67480943D01*
X113958077Y-67384252D01*
X113861386Y-67304900D01*
X113751072Y-67245935D01*
X113631374Y-67209625D01*
X113506892Y-67197365D01*
X112992642Y-67200437D01*
X112833892Y-67359187D01*
X112579892Y-67359187D01*
X112421142Y-67200437D01*
X111906892Y-67197365D01*
X111782410Y-67209625D01*
X111662712Y-67245935D01*
X111552398Y-67304900D01*
X111455707Y-67384252D01*
X111376355Y-67480943D01*
X111317390Y-67591257D01*
X111281080Y-67710955D01*
X111280249Y-67719398D01*
X111081651Y-67520800D01*
X110846619Y-67363757D01*
X110585466Y-67255584D01*
X110308227Y-67200437D01*
X110025557Y-67200437D01*
X109748318Y-67255584D01*
X109487165Y-67363757D01*
X109252133Y-67520800D01*
X109052255Y-67720678D01*
X108896892Y-67953196D01*
X108741529Y-67720678D01*
X108541651Y-67520800D01*
X108306619Y-67363757D01*
X108045466Y-67255584D01*
X107768227Y-67200437D01*
X107485557Y-67200437D01*
X107208318Y-67255584D01*
X106947165Y-67363757D01*
X106712133Y-67520800D01*
X106512255Y-67720678D01*
X106356892Y-67953196D01*
X106201529Y-67720678D01*
X106001651Y-67520800D01*
X105766619Y-67363757D01*
X105505466Y-67255584D01*
X105228227Y-67200437D01*
X104945557Y-67200437D01*
X104668318Y-67255584D01*
X104407165Y-67363757D01*
X104172133Y-67520800D01*
X103972255Y-67720678D01*
X103816892Y-67953196D01*
X103661529Y-67720678D01*
X103461651Y-67520800D01*
X103226619Y-67363757D01*
X102965466Y-67255584D01*
X102688227Y-67200437D01*
X102405557Y-67200437D01*
X102128318Y-67255584D01*
X101867165Y-67363757D01*
X101632133Y-67520800D01*
X101432255Y-67720678D01*
X101276892Y-67953196D01*
X101121529Y-67720678D01*
X100921651Y-67520800D01*
X100686619Y-67363757D01*
X100425466Y-67255584D01*
X100148227Y-67200437D01*
X99865557Y-67200437D01*
X99588318Y-67255584D01*
X99327165Y-67363757D01*
X99092133Y-67520800D01*
X98892255Y-67720678D01*
X98736892Y-67953196D01*
X98581529Y-67720678D01*
X98381651Y-67520800D01*
X98146619Y-67363757D01*
X97885466Y-67255584D01*
X97608227Y-67200437D01*
X97325557Y-67200437D01*
X97048318Y-67255584D01*
X96787165Y-67363757D01*
X96552133Y-67520800D01*
X96352255Y-67720678D01*
X96196892Y-67953196D01*
X96041529Y-67720678D01*
X95841651Y-67520800D01*
X95606619Y-67363757D01*
X95345466Y-67255584D01*
X95068227Y-67200437D01*
X94785557Y-67200437D01*
X94508318Y-67255584D01*
X94247165Y-67363757D01*
X94012133Y-67520800D01*
X93812255Y-67720678D01*
X93656892Y-67953196D01*
X93501529Y-67720678D01*
X93301651Y-67520800D01*
X93066619Y-67363757D01*
X92805466Y-67255584D01*
X92528227Y-67200437D01*
X92245557Y-67200437D01*
X91968318Y-67255584D01*
X91707165Y-67363757D01*
X91472133Y-67520800D01*
X91272255Y-67720678D01*
X91116892Y-67953196D01*
X90961529Y-67720678D01*
X90761651Y-67520800D01*
X90526619Y-67363757D01*
X90265466Y-67255584D01*
X89988227Y-67200437D01*
X89705557Y-67200437D01*
X89428318Y-67255584D01*
X89167165Y-67363757D01*
X88932133Y-67520800D01*
X88732255Y-67720678D01*
X88576892Y-67953196D01*
X88421529Y-67720678D01*
X88221651Y-67520800D01*
X87986619Y-67363757D01*
X87725466Y-67255584D01*
X87448227Y-67200437D01*
X87165557Y-67200437D01*
X86888318Y-67255584D01*
X86627165Y-67363757D01*
X86392133Y-67520800D01*
X86192255Y-67720678D01*
X86036892Y-67953196D01*
X85881529Y-67720678D01*
X85681651Y-67520800D01*
X85446619Y-67363757D01*
X85185466Y-67255584D01*
X84908227Y-67200437D01*
X84625557Y-67200437D01*
X84348318Y-67255584D01*
X84087165Y-67363757D01*
X83852133Y-67520800D01*
X83652255Y-67720678D01*
X83496892Y-67953196D01*
X83341529Y-67720678D01*
X83141651Y-67520800D01*
X82906619Y-67363757D01*
X82645466Y-67255584D01*
X82368227Y-67200437D01*
X82085557Y-67200437D01*
X81808318Y-67255584D01*
X81547165Y-67363757D01*
X81312133Y-67520800D01*
X81112255Y-67720678D01*
X80956892Y-67953196D01*
X80801529Y-67720678D01*
X80601651Y-67520800D01*
X80366619Y-67363757D01*
X80105466Y-67255584D01*
X79828227Y-67200437D01*
X79545557Y-67200437D01*
X79268318Y-67255584D01*
X79007165Y-67363757D01*
X78772133Y-67520800D01*
X78572255Y-67720678D01*
X78415212Y-67955710D01*
X78307039Y-68216863D01*
X78251892Y-68494102D01*
X72821000Y-68494102D01*
X72821000Y-66050347D01*
X187493952Y-66050347D01*
X188806000Y-67362395D01*
X190118048Y-66050347D01*
X189962038Y-65734786D01*
X189587255Y-65543980D01*
X189182449Y-65429956D01*
X188763176Y-65397098D01*
X188345549Y-65446666D01*
X187945617Y-65576757D01*
X187649962Y-65734786D01*
X187493952Y-66050347D01*
X72821000Y-66050347D01*
X72821000Y-64133653D01*
X180381952Y-64133653D01*
X180537962Y-64449214D01*
X180912745Y-64640020D01*
X181317551Y-64754044D01*
X181736824Y-64786902D01*
X182154451Y-64737334D01*
X182554383Y-64607243D01*
X182850038Y-64449214D01*
X183006048Y-64133653D01*
X181694000Y-62821605D01*
X180381952Y-64133653D01*
X72821000Y-64133653D01*
X72821000Y-62684824D01*
X179549098Y-62684824D01*
X179598666Y-63102451D01*
X179728757Y-63502383D01*
X179886786Y-63798038D01*
X180202347Y-63954048D01*
X181514395Y-62642000D01*
X181873605Y-62642000D01*
X183185653Y-63954048D01*
X183501214Y-63798038D01*
X183692020Y-63423255D01*
X183806044Y-63018449D01*
X183838902Y-62599176D01*
X183789334Y-62181549D01*
X183659243Y-61781617D01*
X183501214Y-61485962D01*
X183185653Y-61329952D01*
X181873605Y-62642000D01*
X181514395Y-62642000D01*
X180202347Y-61329952D01*
X179886786Y-61485962D01*
X179695980Y-61860745D01*
X179581956Y-62265551D01*
X179549098Y-62684824D01*
X72821000Y-62684824D01*
X72821000Y-61150347D01*
X180381952Y-61150347D01*
X181694000Y-62462395D01*
X183006048Y-61150347D01*
X182850038Y-60834786D01*
X182475255Y-60643980D01*
X182070449Y-60529956D01*
X181651176Y-60497098D01*
X181233549Y-60546666D01*
X180833617Y-60676757D01*
X180537962Y-60834786D01*
X180381952Y-61150347D01*
X72821000Y-61150347D01*
X72821000Y-58793269D01*
X180462336Y-58793269D01*
X180521797Y-59027037D01*
X180760242Y-59137934D01*
X181015740Y-59200183D01*
X181278473Y-59211390D01*
X181538344Y-59171125D01*
X181785366Y-59080935D01*
X181886203Y-59027037D01*
X181945664Y-58793269D01*
X181204000Y-58051605D01*
X180462336Y-58793269D01*
X72821000Y-58793269D01*
X72821000Y-57946473D01*
X179864610Y-57946473D01*
X179904875Y-58206344D01*
X179995065Y-58453366D01*
X180048963Y-58554203D01*
X180282731Y-58613664D01*
X181024395Y-57872000D01*
X181383605Y-57872000D01*
X182125269Y-58613664D01*
X182359037Y-58554203D01*
X182469934Y-58315758D01*
X182532183Y-58060260D01*
X182543390Y-57797527D01*
X182503125Y-57537656D01*
X182412935Y-57290634D01*
X182359037Y-57189797D01*
X182289069Y-57172000D01*
X183065928Y-57172000D01*
X183065928Y-58572000D01*
X183078188Y-58696482D01*
X183114498Y-58816180D01*
X183173463Y-58926494D01*
X183252815Y-59023185D01*
X183349506Y-59102537D01*
X183459820Y-59161502D01*
X183579518Y-59197812D01*
X183704000Y-59210072D01*
X185104000Y-59210072D01*
X185228482Y-59197812D01*
X185348180Y-59161502D01*
X185458494Y-59102537D01*
X185555185Y-59023185D01*
X185634537Y-58926494D01*
X185693502Y-58816180D01*
X185729812Y-58696482D01*
X185742072Y-58572000D01*
X185742072Y-57172000D01*
X185729812Y-57047518D01*
X185693502Y-56927820D01*
X185634537Y-56817506D01*
X185555185Y-56720815D01*
X185458494Y-56641463D01*
X185348180Y-56582498D01*
X185228482Y-56546188D01*
X185104000Y-56533928D01*
X185067987Y-56533928D01*
X185255013Y-56408962D01*
X185440962Y-56223013D01*
X185587061Y-56004359D01*
X185687696Y-55761405D01*
X185739000Y-55503486D01*
X185739000Y-55240514D01*
X185687696Y-54982595D01*
X185587061Y-54739641D01*
X185440962Y-54520987D01*
X185255013Y-54335038D01*
X185036359Y-54188939D01*
X184793405Y-54088304D01*
X184535486Y-54037000D01*
X184272514Y-54037000D01*
X184014595Y-54088304D01*
X183771641Y-54188939D01*
X183552987Y-54335038D01*
X183367038Y-54520987D01*
X183220939Y-54739641D01*
X183120304Y-54982595D01*
X183069000Y-55240514D01*
X183069000Y-55503486D01*
X183120304Y-55761405D01*
X183220939Y-56004359D01*
X183367038Y-56223013D01*
X183552987Y-56408962D01*
X183740013Y-56533928D01*
X183704000Y-56533928D01*
X183579518Y-56546188D01*
X183459820Y-56582498D01*
X183349506Y-56641463D01*
X183252815Y-56720815D01*
X183173463Y-56817506D01*
X183114498Y-56927820D01*
X183078188Y-57047518D01*
X183065928Y-57172000D01*
X182289069Y-57172000D01*
X182125269Y-57130336D01*
X181383605Y-57872000D01*
X181024395Y-57872000D01*
X180282731Y-57130336D01*
X180048963Y-57189797D01*
X179938066Y-57428242D01*
X179875817Y-57683740D01*
X179864610Y-57946473D01*
X72821000Y-57946473D01*
X72821000Y-55538000D01*
X78267928Y-55538000D01*
X78267928Y-57238000D01*
X78280188Y-57362482D01*
X78316498Y-57482180D01*
X78375463Y-57592494D01*
X78454815Y-57689185D01*
X78551506Y-57768537D01*
X78661820Y-57827502D01*
X78781518Y-57863812D01*
X78906000Y-57876072D01*
X80606000Y-57876072D01*
X80730482Y-57863812D01*
X80850180Y-57827502D01*
X80960494Y-57768537D01*
X81057185Y-57689185D01*
X81136537Y-57592494D01*
X81195502Y-57482180D01*
X81216393Y-57413313D01*
X81240866Y-57443134D01*
X81466986Y-57628706D01*
X81724966Y-57766599D01*
X82004889Y-57851513D01*
X82223050Y-57873000D01*
X82368950Y-57873000D01*
X82587111Y-57851513D01*
X82867034Y-57766599D01*
X83125014Y-57628706D01*
X83351134Y-57443134D01*
X83536706Y-57217014D01*
X83566000Y-57162209D01*
X83595294Y-57217014D01*
X83780866Y-57443134D01*
X84006986Y-57628706D01*
X84264966Y-57766599D01*
X84544889Y-57851513D01*
X84763050Y-57873000D01*
X84908950Y-57873000D01*
X85127111Y-57851513D01*
X85407034Y-57766599D01*
X85665014Y-57628706D01*
X85891134Y-57443134D01*
X86076706Y-57217014D01*
X86106000Y-57162209D01*
X86135294Y-57217014D01*
X86320866Y-57443134D01*
X86546986Y-57628706D01*
X86804966Y-57766599D01*
X87084889Y-57851513D01*
X87303050Y-57873000D01*
X87448950Y-57873000D01*
X87667111Y-57851513D01*
X87947034Y-57766599D01*
X88205014Y-57628706D01*
X88431134Y-57443134D01*
X88616706Y-57217014D01*
X88646000Y-57162209D01*
X88675294Y-57217014D01*
X88860866Y-57443134D01*
X89086986Y-57628706D01*
X89344966Y-57766599D01*
X89624889Y-57851513D01*
X89843050Y-57873000D01*
X89988950Y-57873000D01*
X90207111Y-57851513D01*
X90487034Y-57766599D01*
X90745014Y-57628706D01*
X90971134Y-57443134D01*
X91156706Y-57217014D01*
X91186000Y-57162209D01*
X91215294Y-57217014D01*
X91400866Y-57443134D01*
X91626986Y-57628706D01*
X91884966Y-57766599D01*
X92164889Y-57851513D01*
X92383050Y-57873000D01*
X92528950Y-57873000D01*
X92747111Y-57851513D01*
X93027034Y-57766599D01*
X93285014Y-57628706D01*
X93511134Y-57443134D01*
X93696706Y-57217014D01*
X93726000Y-57162209D01*
X93755294Y-57217014D01*
X93940866Y-57443134D01*
X94166986Y-57628706D01*
X94424966Y-57766599D01*
X94704889Y-57851513D01*
X94923050Y-57873000D01*
X95068950Y-57873000D01*
X95287111Y-57851513D01*
X95567034Y-57766599D01*
X95825014Y-57628706D01*
X96051134Y-57443134D01*
X96236706Y-57217014D01*
X96266000Y-57162209D01*
X96295294Y-57217014D01*
X96480866Y-57443134D01*
X96706986Y-57628706D01*
X96964966Y-57766599D01*
X97244889Y-57851513D01*
X97463050Y-57873000D01*
X97608950Y-57873000D01*
X97827111Y-57851513D01*
X98107034Y-57766599D01*
X98365014Y-57628706D01*
X98591134Y-57443134D01*
X98776706Y-57217014D01*
X98914599Y-56959034D01*
X98999513Y-56679111D01*
X99028185Y-56388000D01*
X98999513Y-56096889D01*
X98914599Y-55816966D01*
X98776706Y-55558986D01*
X98591134Y-55332866D01*
X98478603Y-55240514D01*
X179869000Y-55240514D01*
X179869000Y-55503486D01*
X179920304Y-55761405D01*
X180020939Y-56004359D01*
X180167038Y-56223013D01*
X180352987Y-56408962D01*
X180571641Y-56555061D01*
X180734118Y-56622361D01*
X180622634Y-56663065D01*
X180521797Y-56716963D01*
X180462336Y-56950731D01*
X181204000Y-57692395D01*
X181945664Y-56950731D01*
X181886203Y-56716963D01*
X181678596Y-56620408D01*
X181836359Y-56555061D01*
X182055013Y-56408962D01*
X182240962Y-56223013D01*
X182387061Y-56004359D01*
X182487696Y-55761405D01*
X182539000Y-55503486D01*
X182539000Y-55240514D01*
X182487696Y-54982595D01*
X182387061Y-54739641D01*
X182240962Y-54520987D01*
X182055013Y-54335038D01*
X181836359Y-54188939D01*
X181593405Y-54088304D01*
X181335486Y-54037000D01*
X181072514Y-54037000D01*
X180814595Y-54088304D01*
X180571641Y-54188939D01*
X180352987Y-54335038D01*
X180167038Y-54520987D01*
X180020939Y-54739641D01*
X179920304Y-54982595D01*
X179869000Y-55240514D01*
X98478603Y-55240514D01*
X98365014Y-55147294D01*
X98310209Y-55118000D01*
X98365014Y-55088706D01*
X98591134Y-54903134D01*
X98776706Y-54677014D01*
X98914599Y-54419034D01*
X98999513Y-54139111D01*
X99028185Y-53848000D01*
X98999513Y-53556889D01*
X98914599Y-53276966D01*
X98776706Y-53018986D01*
X98591134Y-52792866D01*
X98365014Y-52607294D01*
X98107034Y-52469401D01*
X97827111Y-52384487D01*
X97608950Y-52363000D01*
X97463050Y-52363000D01*
X97244889Y-52384487D01*
X96964966Y-52469401D01*
X96706986Y-52607294D01*
X96480866Y-52792866D01*
X96295294Y-53018986D01*
X96266000Y-53073791D01*
X96236706Y-53018986D01*
X96051134Y-52792866D01*
X95825014Y-52607294D01*
X95567034Y-52469401D01*
X95287111Y-52384487D01*
X95068950Y-52363000D01*
X94923050Y-52363000D01*
X94704889Y-52384487D01*
X94424966Y-52469401D01*
X94166986Y-52607294D01*
X93940866Y-52792866D01*
X93755294Y-53018986D01*
X93726000Y-53073791D01*
X93696706Y-53018986D01*
X93511134Y-52792866D01*
X93285014Y-52607294D01*
X93027034Y-52469401D01*
X92747111Y-52384487D01*
X92528950Y-52363000D01*
X92383050Y-52363000D01*
X92164889Y-52384487D01*
X91884966Y-52469401D01*
X91626986Y-52607294D01*
X91400866Y-52792866D01*
X91215294Y-53018986D01*
X91186000Y-53073791D01*
X91156706Y-53018986D01*
X90971134Y-52792866D01*
X90745014Y-52607294D01*
X90487034Y-52469401D01*
X90207111Y-52384487D01*
X89988950Y-52363000D01*
X89843050Y-52363000D01*
X89624889Y-52384487D01*
X89344966Y-52469401D01*
X89086986Y-52607294D01*
X88860866Y-52792866D01*
X88675294Y-53018986D01*
X88640799Y-53083523D01*
X88571178Y-52966645D01*
X88376269Y-52750412D01*
X88142920Y-52576359D01*
X87880099Y-52451175D01*
X87732890Y-52406524D01*
X87503000Y-52527845D01*
X87503000Y-53721000D01*
X87523000Y-53721000D01*
X87523000Y-53975000D01*
X87503000Y-53975000D01*
X87503000Y-53995000D01*
X87249000Y-53995000D01*
X87249000Y-53975000D01*
X84963000Y-53975000D01*
X84963000Y-53995000D01*
X84709000Y-53995000D01*
X84709000Y-53975000D01*
X82423000Y-53975000D01*
X82423000Y-53995000D01*
X82169000Y-53995000D01*
X82169000Y-53975000D01*
X79883000Y-53975000D01*
X79883000Y-53995000D01*
X79629000Y-53995000D01*
X79629000Y-53975000D01*
X78435186Y-53975000D01*
X78314519Y-54204891D01*
X78411843Y-54479252D01*
X78560822Y-54729355D01*
X78737626Y-54925502D01*
X78661820Y-54948498D01*
X78551506Y-55007463D01*
X78454815Y-55086815D01*
X78375463Y-55183506D01*
X78316498Y-55293820D01*
X78280188Y-55413518D01*
X78267928Y-55538000D01*
X72821000Y-55538000D01*
X72821000Y-53491109D01*
X78314519Y-53491109D01*
X78435186Y-53721000D01*
X79629000Y-53721000D01*
X79629000Y-52527845D01*
X79883000Y-52527845D01*
X79883000Y-53721000D01*
X82169000Y-53721000D01*
X82169000Y-52527845D01*
X82423000Y-52527845D01*
X82423000Y-53721000D01*
X84709000Y-53721000D01*
X84709000Y-52527845D01*
X84963000Y-52527845D01*
X84963000Y-53721000D01*
X87249000Y-53721000D01*
X87249000Y-52527845D01*
X87019110Y-52406524D01*
X86871901Y-52451175D01*
X86609080Y-52576359D01*
X86375731Y-52750412D01*
X86180822Y-52966645D01*
X86106000Y-53092255D01*
X86031178Y-52966645D01*
X85836269Y-52750412D01*
X85602920Y-52576359D01*
X85340099Y-52451175D01*
X85192890Y-52406524D01*
X84963000Y-52527845D01*
X84709000Y-52527845D01*
X84479110Y-52406524D01*
X84331901Y-52451175D01*
X84069080Y-52576359D01*
X83835731Y-52750412D01*
X83640822Y-52966645D01*
X83566000Y-53092255D01*
X83491178Y-52966645D01*
X83296269Y-52750412D01*
X83062920Y-52576359D01*
X82800099Y-52451175D01*
X82652890Y-52406524D01*
X82423000Y-52527845D01*
X82169000Y-52527845D01*
X81939110Y-52406524D01*
X81791901Y-52451175D01*
X81529080Y-52576359D01*
X81295731Y-52750412D01*
X81100822Y-52966645D01*
X81026000Y-53092255D01*
X80951178Y-52966645D01*
X80756269Y-52750412D01*
X80522920Y-52576359D01*
X80260099Y-52451175D01*
X80112890Y-52406524D01*
X79883000Y-52527845D01*
X79629000Y-52527845D01*
X79399110Y-52406524D01*
X79251901Y-52451175D01*
X78989080Y-52576359D01*
X78755731Y-52750412D01*
X78560822Y-52966645D01*
X78411843Y-53216748D01*
X78314519Y-53491109D01*
X72821000Y-53491109D01*
X72821000Y-52093653D01*
X180381952Y-52093653D01*
X180537962Y-52409214D01*
X180912745Y-52600020D01*
X181317551Y-52714044D01*
X181736824Y-52746902D01*
X182154451Y-52697334D01*
X182554383Y-52567243D01*
X182850038Y-52409214D01*
X183006048Y-52093653D01*
X181694000Y-50781605D01*
X180381952Y-52093653D01*
X72821000Y-52093653D01*
X72821000Y-50644824D01*
X179549098Y-50644824D01*
X179598666Y-51062451D01*
X179728757Y-51462383D01*
X179886786Y-51758038D01*
X180202347Y-51914048D01*
X181514395Y-50602000D01*
X181873605Y-50602000D01*
X183185653Y-51914048D01*
X183501214Y-51758038D01*
X183692020Y-51383255D01*
X183806044Y-50978449D01*
X183838902Y-50559176D01*
X183789334Y-50141549D01*
X183659243Y-49741617D01*
X183501214Y-49445962D01*
X183185653Y-49289952D01*
X181873605Y-50602000D01*
X181514395Y-50602000D01*
X180202347Y-49289952D01*
X179886786Y-49445962D01*
X179695980Y-49820745D01*
X179581956Y-50225551D01*
X179549098Y-50644824D01*
X72821000Y-50644824D01*
X72821000Y-49110347D01*
X180381952Y-49110347D01*
X181694000Y-50422395D01*
X183006048Y-49110347D01*
X182850038Y-48794786D01*
X182475255Y-48603980D01*
X182070449Y-48489956D01*
X181651176Y-48457098D01*
X181233549Y-48506666D01*
X180833617Y-48636757D01*
X180537962Y-48794786D01*
X180381952Y-49110347D01*
X72821000Y-49110347D01*
X72821000Y-44333655D01*
X73238328Y-45341173D01*
X73855010Y-46264103D01*
X74639897Y-47048990D01*
X75562827Y-47665672D01*
X76588331Y-48090450D01*
X77677001Y-48307000D01*
X78786999Y-48307000D01*
X79875669Y-48090450D01*
X80901173Y-47665672D01*
X81824103Y-47048990D01*
X82608990Y-46264103D01*
X83225672Y-45341173D01*
X83650450Y-44315669D01*
X83867000Y-43226999D01*
X83867000Y-42117001D01*
X83650450Y-41028331D01*
X83225672Y-40002827D01*
X82608990Y-39079897D01*
X81824103Y-38295010D01*
X81036873Y-37769000D01*
X191378345Y-37769000D01*
X190370827Y-38186328D01*
M02*
