G04 #@! TF.GenerationSoftware,KiCad,Pcbnew,(5.1.4)-1*
G04 #@! TF.CreationDate,2021-03-17T02:00:29-04:00*
G04 #@! TF.ProjectId,RB_switch_pcb,52425f73-7769-4746-9368-5f7063622e6b,rev?*
G04 #@! TF.SameCoordinates,Original*
G04 #@! TF.FileFunction,Legend,Top*
G04 #@! TF.FilePolarity,Positive*
%FSLAX46Y46*%
G04 Gerber Fmt 4.6, Leading zero omitted, Abs format (unit mm)*
G04 Created by KiCad (PCBNEW (5.1.4)-1) date 2021-03-17 02:00:29*
%MOMM*%
%LPD*%
G04 APERTURE LIST*
%ADD10C,0.120000*%
%ADD11C,0.150000*%
%ADD12C,0.250000*%
%ADD13C,0.100000*%
G04 APERTURE END LIST*
D10*
X166517609Y-99441000D02*
G75*
G03X166517609Y-99441000I-401609J0D01*
G01*
X167320828Y-99695000D02*
G75*
G03X167320828Y-99695000I-1204828J0D01*
G01*
X170037838Y-99441000D02*
G75*
G03X170037838Y-99441000I-2651838J0D01*
G01*
X171908528Y-99695000D02*
G75*
G03X171908528Y-99695000I-3887528J0D01*
G01*
X72282654Y-143002000D02*
G75*
G03X72282654Y-143002000I-3702654J0D01*
G01*
X67703575Y-143002000D02*
G75*
G03X67703575Y-143002000I-647575J0D01*
G01*
X69614051Y-143129000D02*
G75*
G03X69614051Y-143129000I-1796051J0D01*
G01*
X71524720Y-143129000D02*
G75*
G03X71524720Y-143129000I-3071720J0D01*
G01*
D11*
X69792705Y-89772142D02*
X70364133Y-89772142D01*
X69756991Y-91772142D02*
X70078419Y-89200714D01*
X70185562Y-88915000D01*
X70346276Y-88772142D01*
X70489133Y-88772142D01*
X69721276Y-96422142D02*
X69971276Y-94422142D01*
X69899848Y-94993571D02*
X70006991Y-94707857D01*
X70096276Y-94565000D01*
X70256991Y-94422142D01*
X70399848Y-94422142D01*
X70131991Y-100929285D02*
X69971276Y-101072142D01*
X69685562Y-101072142D01*
X69560562Y-100929285D01*
X69524848Y-100643571D01*
X69667705Y-99500714D01*
X69774848Y-99215000D01*
X69935562Y-99072142D01*
X70221276Y-99072142D01*
X70346276Y-99215000D01*
X70381991Y-99500714D01*
X70346276Y-99786428D01*
X69596276Y-100072142D01*
X70149848Y-105722142D02*
X70346276Y-104150714D01*
X70310562Y-103865000D01*
X70185562Y-103722142D01*
X69899848Y-103722142D01*
X69739133Y-103865000D01*
X70167705Y-105579285D02*
X70006991Y-105722142D01*
X69649848Y-105722142D01*
X69524848Y-105579285D01*
X69489133Y-105293571D01*
X69524848Y-105007857D01*
X69631991Y-104722142D01*
X69792705Y-104579285D01*
X70149848Y-104579285D01*
X70310562Y-104436428D01*
X69578419Y-110372142D02*
X69953419Y-107372142D01*
X69864133Y-109229285D02*
X70149848Y-110372142D01*
X70399848Y-108372142D02*
X69685562Y-109515000D01*
X69721276Y-113022142D02*
X69828419Y-115022142D01*
X70435562Y-113022142D02*
X69828419Y-115022142D01*
X69596276Y-115736428D01*
X69506991Y-115879285D01*
X69346276Y-116022142D01*
X70006991Y-119672142D02*
X69881991Y-119529285D01*
X69846276Y-119243571D01*
X70167705Y-116672142D01*
X70149848Y-124322142D02*
X70346276Y-122750714D01*
X70310562Y-122465000D01*
X70185562Y-122322142D01*
X69899848Y-122322142D01*
X69739133Y-122465000D01*
X70167705Y-124179285D02*
X70006991Y-124322142D01*
X69649848Y-124322142D01*
X69524848Y-124179285D01*
X69489133Y-123893571D01*
X69524848Y-123607857D01*
X69631991Y-123322142D01*
X69792705Y-123179285D01*
X70149848Y-123179285D01*
X70310562Y-123036428D01*
X69185562Y-128972142D02*
X69435562Y-126972142D01*
X69399848Y-127257857D02*
X69489133Y-127115000D01*
X69649848Y-126972142D01*
X69864133Y-126972142D01*
X69989133Y-127115000D01*
X70024848Y-127400714D01*
X69828419Y-128972142D01*
X70024848Y-127400714D02*
X70131991Y-127115000D01*
X70292705Y-126972142D01*
X70506991Y-126972142D01*
X70631991Y-127115000D01*
X70667705Y-127400714D01*
X70471276Y-128972142D01*
X69756991Y-131622142D02*
X69381991Y-134622142D01*
X69739133Y-131765000D02*
X69899848Y-131622142D01*
X70185562Y-131622142D01*
X70310562Y-131765000D01*
X70364133Y-131907857D01*
X70399848Y-132193571D01*
X70292705Y-133050714D01*
X70185562Y-133336428D01*
X70096276Y-133479285D01*
X69935562Y-133622142D01*
X69649848Y-133622142D01*
X69524848Y-133479285D01*
X69524848Y-138129285D02*
X69649848Y-138272142D01*
X69935562Y-138272142D01*
X70096276Y-138129285D01*
X70203419Y-137843571D01*
X70221276Y-137700714D01*
X70185562Y-137415000D01*
X70060562Y-137272142D01*
X69846276Y-137272142D01*
X69721276Y-137129285D01*
X69685562Y-136843571D01*
X69703419Y-136700714D01*
X69810562Y-136415000D01*
X69971276Y-136272142D01*
X70185562Y-136272142D01*
X70310562Y-136415000D01*
X67506705Y-87232142D02*
X68078133Y-87232142D01*
X67470991Y-89232142D02*
X67792419Y-86660714D01*
X67899562Y-86375000D01*
X68060276Y-86232142D01*
X68203133Y-86232142D01*
X67435276Y-93882142D02*
X67685276Y-91882142D01*
X67613848Y-92453571D02*
X67720991Y-92167857D01*
X67810276Y-92025000D01*
X67970991Y-91882142D01*
X68113848Y-91882142D01*
X67845991Y-98389285D02*
X67685276Y-98532142D01*
X67399562Y-98532142D01*
X67274562Y-98389285D01*
X67238848Y-98103571D01*
X67381705Y-96960714D01*
X67488848Y-96675000D01*
X67649562Y-96532142D01*
X67935276Y-96532142D01*
X68060276Y-96675000D01*
X68095991Y-96960714D01*
X68060276Y-97246428D01*
X67310276Y-97532142D01*
X67863848Y-103182142D02*
X68060276Y-101610714D01*
X68024562Y-101325000D01*
X67899562Y-101182142D01*
X67613848Y-101182142D01*
X67453133Y-101325000D01*
X67881705Y-103039285D02*
X67720991Y-103182142D01*
X67363848Y-103182142D01*
X67238848Y-103039285D01*
X67203133Y-102753571D01*
X67238848Y-102467857D01*
X67345991Y-102182142D01*
X67506705Y-102039285D01*
X67863848Y-102039285D01*
X68024562Y-101896428D01*
X67292419Y-107832142D02*
X67667419Y-104832142D01*
X67578133Y-106689285D02*
X67863848Y-107832142D01*
X68113848Y-105832142D02*
X67399562Y-106975000D01*
X67435276Y-110482142D02*
X67542419Y-112482142D01*
X68149562Y-110482142D02*
X67542419Y-112482142D01*
X67310276Y-113196428D01*
X67220991Y-113339285D01*
X67060276Y-113482142D01*
X67720991Y-117132142D02*
X67595991Y-116989285D01*
X67560276Y-116703571D01*
X67881705Y-114132142D01*
X67863848Y-121782142D02*
X68060276Y-120210714D01*
X68024562Y-119925000D01*
X67899562Y-119782142D01*
X67613848Y-119782142D01*
X67453133Y-119925000D01*
X67881705Y-121639285D02*
X67720991Y-121782142D01*
X67363848Y-121782142D01*
X67238848Y-121639285D01*
X67203133Y-121353571D01*
X67238848Y-121067857D01*
X67345991Y-120782142D01*
X67506705Y-120639285D01*
X67863848Y-120639285D01*
X68024562Y-120496428D01*
X66899562Y-126432142D02*
X67149562Y-124432142D01*
X67113848Y-124717857D02*
X67203133Y-124575000D01*
X67363848Y-124432142D01*
X67578133Y-124432142D01*
X67703133Y-124575000D01*
X67738848Y-124860714D01*
X67542419Y-126432142D01*
X67738848Y-124860714D02*
X67845991Y-124575000D01*
X68006705Y-124432142D01*
X68220991Y-124432142D01*
X68345991Y-124575000D01*
X68381705Y-124860714D01*
X68185276Y-126432142D01*
X67470991Y-129082142D02*
X67095991Y-132082142D01*
X67453133Y-129225000D02*
X67613848Y-129082142D01*
X67899562Y-129082142D01*
X68024562Y-129225000D01*
X68078133Y-129367857D01*
X68113848Y-129653571D01*
X68006705Y-130510714D01*
X67899562Y-130796428D01*
X67810276Y-130939285D01*
X67649562Y-131082142D01*
X67363848Y-131082142D01*
X67238848Y-130939285D01*
X67238848Y-135589285D02*
X67363848Y-135732142D01*
X67649562Y-135732142D01*
X67810276Y-135589285D01*
X67917419Y-135303571D01*
X67935276Y-135160714D01*
X67899562Y-134875000D01*
X67774562Y-134732142D01*
X67560276Y-134732142D01*
X67435276Y-134589285D01*
X67399562Y-134303571D01*
X67417419Y-134160714D01*
X67524562Y-133875000D01*
X67685276Y-133732142D01*
X67899562Y-133732142D01*
X68024562Y-133875000D01*
X65220705Y-84565142D02*
X65792133Y-84565142D01*
X65184991Y-86565142D02*
X65506419Y-83993714D01*
X65613562Y-83708000D01*
X65774276Y-83565142D01*
X65917133Y-83565142D01*
X65149276Y-91215142D02*
X65399276Y-89215142D01*
X65327848Y-89786571D02*
X65434991Y-89500857D01*
X65524276Y-89358000D01*
X65684991Y-89215142D01*
X65827848Y-89215142D01*
X65559991Y-95722285D02*
X65399276Y-95865142D01*
X65113562Y-95865142D01*
X64988562Y-95722285D01*
X64952848Y-95436571D01*
X65095705Y-94293714D01*
X65202848Y-94008000D01*
X65363562Y-93865142D01*
X65649276Y-93865142D01*
X65774276Y-94008000D01*
X65809991Y-94293714D01*
X65774276Y-94579428D01*
X65024276Y-94865142D01*
X65577848Y-100515142D02*
X65774276Y-98943714D01*
X65738562Y-98658000D01*
X65613562Y-98515142D01*
X65327848Y-98515142D01*
X65167133Y-98658000D01*
X65595705Y-100372285D02*
X65434991Y-100515142D01*
X65077848Y-100515142D01*
X64952848Y-100372285D01*
X64917133Y-100086571D01*
X64952848Y-99800857D01*
X65059991Y-99515142D01*
X65220705Y-99372285D01*
X65577848Y-99372285D01*
X65738562Y-99229428D01*
X65006419Y-105165142D02*
X65381419Y-102165142D01*
X65292133Y-104022285D02*
X65577848Y-105165142D01*
X65827848Y-103165142D02*
X65113562Y-104308000D01*
X65149276Y-107815142D02*
X65256419Y-109815142D01*
X65863562Y-107815142D02*
X65256419Y-109815142D01*
X65024276Y-110529428D01*
X64934991Y-110672285D01*
X64774276Y-110815142D01*
X65434991Y-114465142D02*
X65309991Y-114322285D01*
X65274276Y-114036571D01*
X65595705Y-111465142D01*
X65577848Y-119115142D02*
X65774276Y-117543714D01*
X65738562Y-117258000D01*
X65613562Y-117115142D01*
X65327848Y-117115142D01*
X65167133Y-117258000D01*
X65595705Y-118972285D02*
X65434991Y-119115142D01*
X65077848Y-119115142D01*
X64952848Y-118972285D01*
X64917133Y-118686571D01*
X64952848Y-118400857D01*
X65059991Y-118115142D01*
X65220705Y-117972285D01*
X65577848Y-117972285D01*
X65738562Y-117829428D01*
X64613562Y-123765142D02*
X64863562Y-121765142D01*
X64827848Y-122050857D02*
X64917133Y-121908000D01*
X65077848Y-121765142D01*
X65292133Y-121765142D01*
X65417133Y-121908000D01*
X65452848Y-122193714D01*
X65256419Y-123765142D01*
X65452848Y-122193714D02*
X65559991Y-121908000D01*
X65720705Y-121765142D01*
X65934991Y-121765142D01*
X66059991Y-121908000D01*
X66095705Y-122193714D01*
X65899276Y-123765142D01*
X65184991Y-126415142D02*
X64809991Y-129415142D01*
X65167133Y-126558000D02*
X65327848Y-126415142D01*
X65613562Y-126415142D01*
X65738562Y-126558000D01*
X65792133Y-126700857D01*
X65827848Y-126986571D01*
X65720705Y-127843714D01*
X65613562Y-128129428D01*
X65524276Y-128272285D01*
X65363562Y-128415142D01*
X65077848Y-128415142D01*
X64952848Y-128272285D01*
X64952848Y-132922285D02*
X65077848Y-133065142D01*
X65363562Y-133065142D01*
X65524276Y-132922285D01*
X65631419Y-132636571D01*
X65649276Y-132493714D01*
X65613562Y-132208000D01*
X65488562Y-132065142D01*
X65274276Y-132065142D01*
X65149276Y-131922285D01*
X65113562Y-131636571D01*
X65131419Y-131493714D01*
X65238562Y-131208000D01*
X65399276Y-131065142D01*
X65613562Y-131065142D01*
X65738562Y-131208000D01*
D12*
X156989000Y-68335000D02*
X159274714Y-68335000D01*
X157465190Y-70184095D02*
X157465190Y-68884095D01*
X158131857Y-69812666D01*
X158798523Y-68884095D01*
X158798523Y-70184095D01*
X159274714Y-68335000D02*
X161084238Y-68335000D01*
X160608047Y-70184095D02*
X160608047Y-69503142D01*
X160512809Y-69379333D01*
X160322333Y-69317428D01*
X159941380Y-69317428D01*
X159750904Y-69379333D01*
X160608047Y-70122190D02*
X160417571Y-70184095D01*
X159941380Y-70184095D01*
X159750904Y-70122190D01*
X159655666Y-69998380D01*
X159655666Y-69874571D01*
X159750904Y-69750761D01*
X159941380Y-69688857D01*
X160417571Y-69688857D01*
X160608047Y-69626952D01*
X161084238Y-68335000D02*
X162322333Y-68335000D01*
X161560428Y-70184095D02*
X161560428Y-69317428D01*
X161560428Y-69565047D02*
X161655666Y-69441238D01*
X161750904Y-69379333D01*
X161941380Y-69317428D01*
X162131857Y-69317428D01*
X162322333Y-68335000D02*
X164036619Y-68335000D01*
X163655666Y-70122190D02*
X163465190Y-70184095D01*
X163084238Y-70184095D01*
X162893761Y-70122190D01*
X162798523Y-70060285D01*
X162703285Y-69936476D01*
X162703285Y-69565047D01*
X162798523Y-69441238D01*
X162893761Y-69379333D01*
X163084238Y-69317428D01*
X163465190Y-69317428D01*
X163655666Y-69379333D01*
X164036619Y-68335000D02*
X165846142Y-68335000D01*
X164512809Y-70184095D02*
X164512809Y-68884095D01*
X165369952Y-70184095D02*
X165369952Y-69503142D01*
X165274714Y-69379333D01*
X165084238Y-69317428D01*
X164798523Y-69317428D01*
X164608047Y-69379333D01*
X164512809Y-69441238D01*
X165846142Y-68335000D02*
X167369952Y-68335000D01*
X167369952Y-68335000D02*
X169274714Y-68335000D01*
X167750904Y-69007904D02*
X167846142Y-68946000D01*
X168036619Y-68884095D01*
X168512809Y-68884095D01*
X168703285Y-68946000D01*
X168798523Y-69007904D01*
X168893761Y-69131714D01*
X168893761Y-69255523D01*
X168798523Y-69441238D01*
X167655666Y-70184095D01*
X168893761Y-70184095D01*
X169274714Y-68335000D02*
X171179476Y-68335000D01*
X170131857Y-68884095D02*
X170322333Y-68884095D01*
X170512809Y-68946000D01*
X170608047Y-69007904D01*
X170703285Y-69131714D01*
X170798523Y-69379333D01*
X170798523Y-69688857D01*
X170703285Y-69936476D01*
X170608047Y-70060285D01*
X170512809Y-70122190D01*
X170322333Y-70184095D01*
X170131857Y-70184095D01*
X169941380Y-70122190D01*
X169846142Y-70060285D01*
X169750904Y-69936476D01*
X169655666Y-69688857D01*
X169655666Y-69379333D01*
X169750904Y-69131714D01*
X169846142Y-69007904D01*
X169941380Y-68946000D01*
X170131857Y-68884095D01*
X171179476Y-68335000D02*
X173084238Y-68335000D01*
X171560428Y-69007904D02*
X171655666Y-68946000D01*
X171846142Y-68884095D01*
X172322333Y-68884095D01*
X172512809Y-68946000D01*
X172608047Y-69007904D01*
X172703285Y-69131714D01*
X172703285Y-69255523D01*
X172608047Y-69441238D01*
X171465190Y-70184095D01*
X172703285Y-70184095D01*
X173084238Y-68335000D02*
X174989000Y-68335000D01*
X174608047Y-70184095D02*
X173465190Y-70184095D01*
X174036619Y-70184095D02*
X174036619Y-68884095D01*
X173846142Y-69069809D01*
X173655666Y-69193619D01*
X173465190Y-69255523D01*
D11*
X62934705Y-81771142D02*
X63506133Y-81771142D01*
X62898991Y-83771142D02*
X63220419Y-81199714D01*
X63327562Y-80914000D01*
X63488276Y-80771142D01*
X63631133Y-80771142D01*
X62863276Y-88421142D02*
X63113276Y-86421142D01*
X63041848Y-86992571D02*
X63148991Y-86706857D01*
X63238276Y-86564000D01*
X63398991Y-86421142D01*
X63541848Y-86421142D01*
X63273991Y-92928285D02*
X63113276Y-93071142D01*
X62827562Y-93071142D01*
X62702562Y-92928285D01*
X62666848Y-92642571D01*
X62809705Y-91499714D01*
X62916848Y-91214000D01*
X63077562Y-91071142D01*
X63363276Y-91071142D01*
X63488276Y-91214000D01*
X63523991Y-91499714D01*
X63488276Y-91785428D01*
X62738276Y-92071142D01*
X63291848Y-97721142D02*
X63488276Y-96149714D01*
X63452562Y-95864000D01*
X63327562Y-95721142D01*
X63041848Y-95721142D01*
X62881133Y-95864000D01*
X63309705Y-97578285D02*
X63148991Y-97721142D01*
X62791848Y-97721142D01*
X62666848Y-97578285D01*
X62631133Y-97292571D01*
X62666848Y-97006857D01*
X62773991Y-96721142D01*
X62934705Y-96578285D01*
X63291848Y-96578285D01*
X63452562Y-96435428D01*
X62720419Y-102371142D02*
X63095419Y-99371142D01*
X63006133Y-101228285D02*
X63291848Y-102371142D01*
X63541848Y-100371142D02*
X62827562Y-101514000D01*
X62863276Y-105021142D02*
X62970419Y-107021142D01*
X63577562Y-105021142D02*
X62970419Y-107021142D01*
X62738276Y-107735428D01*
X62648991Y-107878285D01*
X62488276Y-108021142D01*
X63148991Y-111671142D02*
X63023991Y-111528285D01*
X62988276Y-111242571D01*
X63309705Y-108671142D01*
X63291848Y-116321142D02*
X63488276Y-114749714D01*
X63452562Y-114464000D01*
X63327562Y-114321142D01*
X63041848Y-114321142D01*
X62881133Y-114464000D01*
X63309705Y-116178285D02*
X63148991Y-116321142D01*
X62791848Y-116321142D01*
X62666848Y-116178285D01*
X62631133Y-115892571D01*
X62666848Y-115606857D01*
X62773991Y-115321142D01*
X62934705Y-115178285D01*
X63291848Y-115178285D01*
X63452562Y-115035428D01*
X62327562Y-120971142D02*
X62577562Y-118971142D01*
X62541848Y-119256857D02*
X62631133Y-119114000D01*
X62791848Y-118971142D01*
X63006133Y-118971142D01*
X63131133Y-119114000D01*
X63166848Y-119399714D01*
X62970419Y-120971142D01*
X63166848Y-119399714D02*
X63273991Y-119114000D01*
X63434705Y-118971142D01*
X63648991Y-118971142D01*
X63773991Y-119114000D01*
X63809705Y-119399714D01*
X63613276Y-120971142D01*
X62898991Y-123621142D02*
X62523991Y-126621142D01*
X62881133Y-123764000D02*
X63041848Y-123621142D01*
X63327562Y-123621142D01*
X63452562Y-123764000D01*
X63506133Y-123906857D01*
X63541848Y-124192571D01*
X63434705Y-125049714D01*
X63327562Y-125335428D01*
X63238276Y-125478285D01*
X63077562Y-125621142D01*
X62791848Y-125621142D01*
X62666848Y-125478285D01*
X62666848Y-130128285D02*
X62791848Y-130271142D01*
X63077562Y-130271142D01*
X63238276Y-130128285D01*
X63345419Y-129842571D01*
X63363276Y-129699714D01*
X63327562Y-129414000D01*
X63202562Y-129271142D01*
X62988276Y-129271142D01*
X62863276Y-129128285D01*
X62827562Y-128842571D01*
X62845419Y-128699714D01*
X62952562Y-128414000D01*
X63113276Y-128271142D01*
X63327562Y-128271142D01*
X63452562Y-128414000D01*
X113228428Y-97910571D02*
X113371285Y-97958190D01*
X113418904Y-98005809D01*
X113466523Y-98101047D01*
X113466523Y-98243904D01*
X113418904Y-98339142D01*
X113371285Y-98386761D01*
X113276047Y-98434380D01*
X112895095Y-98434380D01*
X112895095Y-97434380D01*
X113228428Y-97434380D01*
X113323666Y-97482000D01*
X113371285Y-97529619D01*
X113418904Y-97624857D01*
X113418904Y-97720095D01*
X113371285Y-97815333D01*
X113323666Y-97862952D01*
X113228428Y-97910571D01*
X112895095Y-97910571D01*
X112918904Y-99798666D02*
X113395095Y-99798666D01*
X112823666Y-100084380D02*
X113157000Y-99084380D01*
X113490333Y-100084380D01*
X113466523Y-101639142D02*
X113418904Y-101686761D01*
X113276047Y-101734380D01*
X113180809Y-101734380D01*
X113037952Y-101686761D01*
X112942714Y-101591523D01*
X112895095Y-101496285D01*
X112847476Y-101305809D01*
X112847476Y-101162952D01*
X112895095Y-100972476D01*
X112942714Y-100877238D01*
X113037952Y-100782000D01*
X113180809Y-100734380D01*
X113276047Y-100734380D01*
X113418904Y-100782000D01*
X113466523Y-100829619D01*
X112895095Y-103384380D02*
X112895095Y-102384380D01*
X113466523Y-103384380D02*
X113037952Y-102812952D01*
X113466523Y-102384380D02*
X112895095Y-102955809D01*
X106323428Y-106830761D02*
X106466285Y-106878380D01*
X106704380Y-106878380D01*
X106799619Y-106830761D01*
X106847238Y-106783142D01*
X106894857Y-106687904D01*
X106894857Y-106592666D01*
X106847238Y-106497428D01*
X106799619Y-106449809D01*
X106704380Y-106402190D01*
X106513904Y-106354571D01*
X106418666Y-106306952D01*
X106371047Y-106259333D01*
X106323428Y-106164095D01*
X106323428Y-106068857D01*
X106371047Y-105973619D01*
X106418666Y-105926000D01*
X106513904Y-105878380D01*
X106752000Y-105878380D01*
X106894857Y-105926000D01*
X107466285Y-106878380D02*
X107371047Y-106830761D01*
X107323428Y-106783142D01*
X107275809Y-106687904D01*
X107275809Y-106402190D01*
X107323428Y-106306952D01*
X107371047Y-106259333D01*
X107466285Y-106211714D01*
X107609142Y-106211714D01*
X107704380Y-106259333D01*
X107752000Y-106306952D01*
X107799619Y-106402190D01*
X107799619Y-106687904D01*
X107752000Y-106783142D01*
X107704380Y-106830761D01*
X107609142Y-106878380D01*
X107466285Y-106878380D01*
X108656761Y-106211714D02*
X108656761Y-106878380D01*
X108228190Y-106211714D02*
X108228190Y-106735523D01*
X108275809Y-106830761D01*
X108371047Y-106878380D01*
X108513904Y-106878380D01*
X108609142Y-106830761D01*
X108656761Y-106783142D01*
X109132952Y-106878380D02*
X109132952Y-106211714D01*
X109132952Y-106402190D02*
X109180571Y-106306952D01*
X109228190Y-106259333D01*
X109323428Y-106211714D01*
X109418666Y-106211714D01*
X110180571Y-106830761D02*
X110085333Y-106878380D01*
X109894857Y-106878380D01*
X109799619Y-106830761D01*
X109752000Y-106783142D01*
X109704380Y-106687904D01*
X109704380Y-106402190D01*
X109752000Y-106306952D01*
X109799619Y-106259333D01*
X109894857Y-106211714D01*
X110085333Y-106211714D01*
X110180571Y-106259333D01*
X110990095Y-106830761D02*
X110894857Y-106878380D01*
X110704380Y-106878380D01*
X110609142Y-106830761D01*
X110561523Y-106735523D01*
X110561523Y-106354571D01*
X110609142Y-106259333D01*
X110704380Y-106211714D01*
X110894857Y-106211714D01*
X110990095Y-106259333D01*
X111037714Y-106354571D01*
X111037714Y-106449809D01*
X110561523Y-106545047D01*
X112513904Y-107259333D02*
X112466285Y-107211714D01*
X112371047Y-107068857D01*
X112323428Y-106973619D01*
X112275809Y-106830761D01*
X112228190Y-106592666D01*
X112228190Y-106402190D01*
X112275809Y-106164095D01*
X112323428Y-106021238D01*
X112371047Y-105926000D01*
X112466285Y-105783142D01*
X112513904Y-105735523D01*
X113418666Y-105926000D02*
X113323428Y-105878380D01*
X113180571Y-105878380D01*
X113037714Y-105926000D01*
X112942476Y-106021238D01*
X112894857Y-106116476D01*
X112847238Y-106306952D01*
X112847238Y-106449809D01*
X112894857Y-106640285D01*
X112942476Y-106735523D01*
X113037714Y-106830761D01*
X113180571Y-106878380D01*
X113275809Y-106878380D01*
X113418666Y-106830761D01*
X113466285Y-106783142D01*
X113466285Y-106449809D01*
X113275809Y-106449809D01*
X113894857Y-106878380D02*
X113894857Y-105878380D01*
X114466285Y-106878380D01*
X114466285Y-105878380D01*
X114942476Y-106878380D02*
X114942476Y-105878380D01*
X115180571Y-105878380D01*
X115323428Y-105926000D01*
X115418666Y-106021238D01*
X115466285Y-106116476D01*
X115513904Y-106306952D01*
X115513904Y-106449809D01*
X115466285Y-106640285D01*
X115418666Y-106735523D01*
X115323428Y-106830761D01*
X115180571Y-106878380D01*
X114942476Y-106878380D01*
X115847238Y-107259333D02*
X115894857Y-107211714D01*
X115990095Y-107068857D01*
X116037714Y-106973619D01*
X116085333Y-106830761D01*
X116132952Y-106592666D01*
X116132952Y-106402190D01*
X116085333Y-106164095D01*
X116037714Y-106021238D01*
X115990095Y-105926000D01*
X115894857Y-105783142D01*
X115847238Y-105735523D01*
X140925872Y-148026380D02*
X141050872Y-147026380D01*
X141431824Y-147026380D01*
X141521110Y-147074000D01*
X141562776Y-147121619D01*
X141598491Y-147216857D01*
X141580633Y-147359714D01*
X141521110Y-147454952D01*
X141467538Y-147502571D01*
X141366348Y-147550190D01*
X140985395Y-147550190D01*
X141925872Y-148026380D02*
X142050872Y-147026380D01*
X142402062Y-148026380D02*
X142527062Y-147026380D01*
X142973491Y-148026380D01*
X143098491Y-147026380D01*
X144723491Y-147359714D02*
X144640157Y-148026380D01*
X144533014Y-146978761D02*
X144205633Y-147693047D01*
X144824681Y-147693047D01*
X145479443Y-147026380D02*
X145574681Y-147026380D01*
X145663967Y-147074000D01*
X145705633Y-147121619D01*
X145741348Y-147216857D01*
X145765157Y-147407333D01*
X145735395Y-147645428D01*
X145663967Y-147835904D01*
X145604443Y-147931142D01*
X145550872Y-147978761D01*
X145449681Y-148026380D01*
X145354443Y-148026380D01*
X145265157Y-147978761D01*
X145223491Y-147931142D01*
X145187776Y-147835904D01*
X145163967Y-147645428D01*
X145193729Y-147407333D01*
X145265157Y-147216857D01*
X145324681Y-147121619D01*
X145378252Y-147074000D01*
X145479443Y-147026380D01*
X140767443Y-152852380D02*
X140892443Y-151852380D01*
X141273395Y-151852380D01*
X141362681Y-151900000D01*
X141404348Y-151947619D01*
X141440062Y-152042857D01*
X141422205Y-152185714D01*
X141362681Y-152280952D01*
X141309110Y-152328571D01*
X141207919Y-152376190D01*
X140826967Y-152376190D01*
X141767443Y-152852380D02*
X141892443Y-151852380D01*
X142243633Y-152852380D02*
X142368633Y-151852380D01*
X142815062Y-152852380D01*
X142940062Y-151852380D01*
X144082919Y-151852380D02*
X144701967Y-151852380D01*
X144321014Y-152233333D01*
X144463872Y-152233333D01*
X144553157Y-152280952D01*
X144594824Y-152328571D01*
X144630538Y-152423809D01*
X144600776Y-152661904D01*
X144541252Y-152757142D01*
X144487681Y-152804761D01*
X144386491Y-152852380D01*
X144100776Y-152852380D01*
X144011491Y-152804761D01*
X143969824Y-152757142D01*
X145053157Y-152852380D02*
X145243633Y-152852380D01*
X145344824Y-152804761D01*
X145398395Y-152757142D01*
X145511491Y-152614285D01*
X145582919Y-152423809D01*
X145630538Y-152042857D01*
X145594824Y-151947619D01*
X145553157Y-151900000D01*
X145463872Y-151852380D01*
X145273395Y-151852380D01*
X145172205Y-151900000D01*
X145118633Y-151947619D01*
X145059110Y-152042857D01*
X145029348Y-152280952D01*
X145065062Y-152376190D01*
X145106729Y-152423809D01*
X145196014Y-152471428D01*
X145386491Y-152471428D01*
X145487681Y-152423809D01*
X145541252Y-152376190D01*
X145600776Y-152280952D01*
X146957919Y-153233333D02*
X146916252Y-153185714D01*
X146838872Y-153042857D01*
X146803157Y-152947619D01*
X146773395Y-152804761D01*
X146755538Y-152566666D01*
X146779348Y-152376190D01*
X146856729Y-152138095D01*
X146922205Y-151995238D01*
X146981729Y-151900000D01*
X147094824Y-151757142D01*
X147148395Y-151709523D01*
X148029348Y-151900000D02*
X147940062Y-151852380D01*
X147797205Y-151852380D01*
X147648395Y-151900000D01*
X147541252Y-151995238D01*
X147481729Y-152090476D01*
X147410300Y-152280952D01*
X147392443Y-152423809D01*
X147416252Y-152614285D01*
X147451967Y-152709523D01*
X147535300Y-152804761D01*
X147672205Y-152852380D01*
X147767443Y-152852380D01*
X147916252Y-152804761D01*
X147969824Y-152757142D01*
X148011491Y-152423809D01*
X147821014Y-152423809D01*
X148386491Y-152852380D02*
X148511491Y-151852380D01*
X148957919Y-152852380D01*
X149082919Y-151852380D01*
X149434110Y-152852380D02*
X149559110Y-151852380D01*
X149797205Y-151852380D01*
X149934110Y-151900000D01*
X150017443Y-151995238D01*
X150053157Y-152090476D01*
X150076967Y-152280952D01*
X150059110Y-152423809D01*
X149987681Y-152614285D01*
X149928157Y-152709523D01*
X149821014Y-152804761D01*
X149672205Y-152852380D01*
X149434110Y-152852380D01*
X150291252Y-153233333D02*
X150344824Y-153185714D01*
X150457919Y-153042857D01*
X150517443Y-152947619D01*
X150582919Y-152804761D01*
X150660300Y-152566666D01*
X150684110Y-152376190D01*
X150666252Y-152138095D01*
X150636491Y-151995238D01*
X150600776Y-151900000D01*
X150523395Y-151757142D01*
X150481729Y-151709523D01*
X82347062Y-149804380D02*
X82472062Y-148804380D01*
X82853014Y-148804380D01*
X82942300Y-148852000D01*
X82983967Y-148899619D01*
X83019681Y-148994857D01*
X83001824Y-149137714D01*
X82942300Y-149232952D01*
X82888729Y-149280571D01*
X82787538Y-149328190D01*
X82406586Y-149328190D01*
X83347062Y-149804380D02*
X83472062Y-148804380D01*
X83823252Y-149804380D02*
X83948252Y-148804380D01*
X84394681Y-149804380D01*
X84519681Y-148804380D01*
X85698252Y-148899619D02*
X85751824Y-148852000D01*
X85853014Y-148804380D01*
X86091110Y-148804380D01*
X86180395Y-148852000D01*
X86222062Y-148899619D01*
X86257776Y-148994857D01*
X86245872Y-149090095D01*
X86180395Y-149232952D01*
X85537538Y-149804380D01*
X86156586Y-149804380D01*
X82347062Y-152725380D02*
X82472062Y-151725380D01*
X82853014Y-151725380D01*
X82942300Y-151773000D01*
X82983967Y-151820619D01*
X83019681Y-151915857D01*
X83001824Y-152058714D01*
X82942300Y-152153952D01*
X82888729Y-152201571D01*
X82787538Y-152249190D01*
X82406586Y-152249190D01*
X83347062Y-152725380D02*
X83472062Y-151725380D01*
X83823252Y-152725380D02*
X83948252Y-151725380D01*
X84394681Y-152725380D01*
X84519681Y-151725380D01*
X86156586Y-152725380D02*
X85585157Y-152725380D01*
X85870872Y-152725380D02*
X85995872Y-151725380D01*
X85882776Y-151868238D01*
X85775633Y-151963476D01*
X85674443Y-152011095D01*
X102776285Y-146502380D02*
X102109619Y-146026190D01*
X101633428Y-146502380D02*
X101633428Y-145502380D01*
X102395333Y-145502380D01*
X102585809Y-145550000D01*
X102681047Y-145597619D01*
X102776285Y-145692857D01*
X102776285Y-145835714D01*
X102681047Y-145930952D01*
X102585809Y-145978571D01*
X102395333Y-146026190D01*
X101633428Y-146026190D01*
X104490571Y-146502380D02*
X104490571Y-145978571D01*
X104395333Y-145883333D01*
X104204857Y-145835714D01*
X103823904Y-145835714D01*
X103633428Y-145883333D01*
X104490571Y-146454761D02*
X104300095Y-146502380D01*
X103823904Y-146502380D01*
X103633428Y-146454761D01*
X103538190Y-146359523D01*
X103538190Y-146264285D01*
X103633428Y-146169047D01*
X103823904Y-146121428D01*
X104300095Y-146121428D01*
X104490571Y-146073809D01*
X105347714Y-146454761D02*
X105538190Y-146502380D01*
X105919142Y-146502380D01*
X106109619Y-146454761D01*
X106204857Y-146359523D01*
X106204857Y-146311904D01*
X106109619Y-146216666D01*
X105919142Y-146169047D01*
X105633428Y-146169047D01*
X105442952Y-146121428D01*
X105347714Y-146026190D01*
X105347714Y-145978571D01*
X105442952Y-145883333D01*
X105633428Y-145835714D01*
X105919142Y-145835714D01*
X106109619Y-145883333D01*
X107062000Y-145835714D02*
X107062000Y-146835714D01*
X107062000Y-145883333D02*
X107252476Y-145835714D01*
X107633428Y-145835714D01*
X107823904Y-145883333D01*
X107919142Y-145930952D01*
X108014380Y-146026190D01*
X108014380Y-146311904D01*
X107919142Y-146407142D01*
X107823904Y-146454761D01*
X107633428Y-146502380D01*
X107252476Y-146502380D01*
X107062000Y-146454761D01*
X108871523Y-146502380D02*
X108871523Y-145502380D01*
X108871523Y-145883333D02*
X109062000Y-145835714D01*
X109442952Y-145835714D01*
X109633428Y-145883333D01*
X109728666Y-145930952D01*
X109823904Y-146026190D01*
X109823904Y-146311904D01*
X109728666Y-146407142D01*
X109633428Y-146454761D01*
X109442952Y-146502380D01*
X109062000Y-146502380D01*
X108871523Y-146454761D01*
X111442952Y-146454761D02*
X111252476Y-146502380D01*
X110871523Y-146502380D01*
X110681047Y-146454761D01*
X110585809Y-146359523D01*
X110585809Y-145978571D01*
X110681047Y-145883333D01*
X110871523Y-145835714D01*
X111252476Y-145835714D01*
X111442952Y-145883333D01*
X111538190Y-145978571D01*
X111538190Y-146073809D01*
X110585809Y-146169047D01*
X112395333Y-146502380D02*
X112395333Y-145835714D01*
X112395333Y-146026190D02*
X112490571Y-145930952D01*
X112585809Y-145883333D01*
X112776285Y-145835714D01*
X112966761Y-145835714D01*
X113633428Y-146502380D02*
X113633428Y-145835714D01*
X113633428Y-146026190D02*
X113728666Y-145930952D01*
X113823904Y-145883333D01*
X114014380Y-145835714D01*
X114204857Y-145835714D01*
X114681047Y-145835714D02*
X115157238Y-146502380D01*
X115633428Y-145835714D02*
X115157238Y-146502380D01*
X114966761Y-146740476D01*
X114871523Y-146788095D01*
X114681047Y-146835714D01*
X117919142Y-146502380D02*
X117919142Y-145502380D01*
X118681047Y-145502380D01*
X118871523Y-145550000D01*
X118966761Y-145597619D01*
X119062000Y-145692857D01*
X119062000Y-145835714D01*
X118966761Y-145930952D01*
X118871523Y-145978571D01*
X118681047Y-146026190D01*
X117919142Y-146026190D01*
X119919142Y-146502380D02*
X119919142Y-145835714D01*
X119919142Y-145502380D02*
X119823904Y-145550000D01*
X119919142Y-145597619D01*
X120014380Y-145550000D01*
X119919142Y-145502380D01*
X119919142Y-145597619D01*
X123442952Y-145550000D02*
X123252476Y-145502380D01*
X122966761Y-145502380D01*
X122681047Y-145550000D01*
X122490571Y-145645238D01*
X122395333Y-145740476D01*
X122300095Y-145930952D01*
X122300095Y-146073809D01*
X122395333Y-146264285D01*
X122490571Y-146359523D01*
X122681047Y-146454761D01*
X122966761Y-146502380D01*
X123157238Y-146502380D01*
X123442952Y-146454761D01*
X123538190Y-146407142D01*
X123538190Y-146073809D01*
X123157238Y-146073809D01*
X124395333Y-146502380D02*
X124395333Y-145502380D01*
X125157238Y-145502380D01*
X125347714Y-145550000D01*
X125442952Y-145597619D01*
X125538190Y-145692857D01*
X125538190Y-145835714D01*
X125442952Y-145930952D01*
X125347714Y-145978571D01*
X125157238Y-146026190D01*
X124395333Y-146026190D01*
X126395333Y-146502380D02*
X126395333Y-145502380D01*
X127728666Y-145502380D02*
X128109619Y-145502380D01*
X128300095Y-145550000D01*
X128490571Y-145645238D01*
X128585809Y-145835714D01*
X128585809Y-146169047D01*
X128490571Y-146359523D01*
X128300095Y-146454761D01*
X128109619Y-146502380D01*
X127728666Y-146502380D01*
X127538190Y-146454761D01*
X127347714Y-146359523D01*
X127252476Y-146169047D01*
X127252476Y-145835714D01*
X127347714Y-145645238D01*
X127538190Y-145550000D01*
X127728666Y-145502380D01*
D10*
X167598371Y-128585766D02*
G75*
G02X168275001Y-126365001I4613629J-192234D01*
G01*
X169291000Y-130356704D02*
G75*
G02X167005001Y-129285999I0J2975704D01*
G01*
X163201772Y-130415967D02*
G75*
G02X164973001Y-128651001I3676228J-1918033D01*
G01*
X161460578Y-126788645D02*
G75*
G02X158750000Y-128905000I-2710578J677645D01*
G01*
X164750150Y-123362308D02*
G75*
G02X161671001Y-123189999I-1428150J2077308D01*
G01*
X167894000Y-124363629D02*
G75*
G02X170052999Y-125222001I0J-3144371D01*
G01*
X166415410Y-126365000D02*
G75*
G03X166415410Y-126365000I-2331410J0D01*
G01*
X170180000Y-148336000D02*
X170180000Y-148463000D01*
X170053000Y-147320000D02*
X170180000Y-148336000D01*
X170053000Y-146050000D02*
X170053000Y-147320000D01*
X170053000Y-144907000D02*
X170053000Y-146050000D01*
X169672000Y-143891000D02*
X170053000Y-144907000D01*
X169037000Y-142875000D02*
X169672000Y-143891000D01*
X168402000Y-141859000D02*
X169037000Y-142875000D01*
X168021000Y-140716000D02*
X168402000Y-141859000D01*
X167513000Y-139573000D02*
X168021000Y-140716000D01*
X167259000Y-138303000D02*
X167513000Y-139573000D01*
X167259000Y-133731000D02*
X167259000Y-138303000D01*
D11*
X168130642Y-135504571D02*
X168273500Y-135552190D01*
X168321119Y-135599809D01*
X168368738Y-135695047D01*
X168368738Y-135837904D01*
X168321119Y-135933142D01*
X168273500Y-135980761D01*
X168178261Y-136028380D01*
X167797309Y-136028380D01*
X167797309Y-135028380D01*
X168130642Y-135028380D01*
X168225880Y-135076000D01*
X168273500Y-135123619D01*
X168321119Y-135218857D01*
X168321119Y-135314095D01*
X168273500Y-135409333D01*
X168225880Y-135456952D01*
X168130642Y-135504571D01*
X167797309Y-135504571D01*
X168987785Y-135028380D02*
X169178261Y-135028380D01*
X169273500Y-135076000D01*
X169368738Y-135171238D01*
X169416357Y-135361714D01*
X169416357Y-135695047D01*
X169368738Y-135885523D01*
X169273500Y-135980761D01*
X169178261Y-136028380D01*
X168987785Y-136028380D01*
X168892547Y-135980761D01*
X168797309Y-135885523D01*
X168749690Y-135695047D01*
X168749690Y-135361714D01*
X168797309Y-135171238D01*
X168892547Y-135076000D01*
X168987785Y-135028380D01*
X169702071Y-135028380D02*
X170273500Y-135028380D01*
X169987785Y-136028380D02*
X169987785Y-135028380D01*
X170463976Y-135028380D02*
X171035404Y-135028380D01*
X170749690Y-136028380D02*
X170749690Y-135028380D01*
X171559214Y-135028380D02*
X171749690Y-135028380D01*
X171844928Y-135076000D01*
X171940166Y-135171238D01*
X171987785Y-135361714D01*
X171987785Y-135695047D01*
X171940166Y-135885523D01*
X171844928Y-135980761D01*
X171749690Y-136028380D01*
X171559214Y-136028380D01*
X171463976Y-135980761D01*
X171368738Y-135885523D01*
X171321119Y-135695047D01*
X171321119Y-135361714D01*
X171368738Y-135171238D01*
X171463976Y-135076000D01*
X171559214Y-135028380D01*
X172416357Y-136028380D02*
X172416357Y-135028380D01*
X172749690Y-135742666D01*
X173083023Y-135028380D01*
X173083023Y-136028380D01*
X173511595Y-135123619D02*
X173559214Y-135076000D01*
X173654452Y-135028380D01*
X173892547Y-135028380D01*
X173987785Y-135076000D01*
X174035404Y-135123619D01*
X174083023Y-135218857D01*
X174083023Y-135314095D01*
X174035404Y-135456952D01*
X173463976Y-136028380D01*
X174083023Y-136028380D01*
X168130642Y-137154571D02*
X168273500Y-137202190D01*
X168321119Y-137249809D01*
X168368738Y-137345047D01*
X168368738Y-137487904D01*
X168321119Y-137583142D01*
X168273500Y-137630761D01*
X168178261Y-137678380D01*
X167797309Y-137678380D01*
X167797309Y-136678380D01*
X168130642Y-136678380D01*
X168225880Y-136726000D01*
X168273500Y-136773619D01*
X168321119Y-136868857D01*
X168321119Y-136964095D01*
X168273500Y-137059333D01*
X168225880Y-137106952D01*
X168130642Y-137154571D01*
X167797309Y-137154571D01*
X168987785Y-136678380D02*
X169178261Y-136678380D01*
X169273500Y-136726000D01*
X169368738Y-136821238D01*
X169416357Y-137011714D01*
X169416357Y-137345047D01*
X169368738Y-137535523D01*
X169273500Y-137630761D01*
X169178261Y-137678380D01*
X168987785Y-137678380D01*
X168892547Y-137630761D01*
X168797309Y-137535523D01*
X168749690Y-137345047D01*
X168749690Y-137011714D01*
X168797309Y-136821238D01*
X168892547Y-136726000D01*
X168987785Y-136678380D01*
X169702071Y-136678380D02*
X170273500Y-136678380D01*
X169987785Y-137678380D02*
X169987785Y-136678380D01*
X170463976Y-136678380D02*
X171035404Y-136678380D01*
X170749690Y-137678380D02*
X170749690Y-136678380D01*
X171559214Y-136678380D02*
X171749690Y-136678380D01*
X171844928Y-136726000D01*
X171940166Y-136821238D01*
X171987785Y-137011714D01*
X171987785Y-137345047D01*
X171940166Y-137535523D01*
X171844928Y-137630761D01*
X171749690Y-137678380D01*
X171559214Y-137678380D01*
X171463976Y-137630761D01*
X171368738Y-137535523D01*
X171321119Y-137345047D01*
X171321119Y-137011714D01*
X171368738Y-136821238D01*
X171463976Y-136726000D01*
X171559214Y-136678380D01*
X172416357Y-137678380D02*
X172416357Y-136678380D01*
X172749690Y-137392666D01*
X173083023Y-136678380D01*
X173083023Y-137678380D01*
X173463976Y-136678380D02*
X174083023Y-136678380D01*
X173749690Y-137059333D01*
X173892547Y-137059333D01*
X173987785Y-137106952D01*
X174035404Y-137154571D01*
X174083023Y-137249809D01*
X174083023Y-137487904D01*
X174035404Y-137583142D01*
X173987785Y-137630761D01*
X173892547Y-137678380D01*
X173606833Y-137678380D01*
X173511595Y-137630761D01*
X173463976Y-137583142D01*
X169083023Y-138804571D02*
X169416357Y-138804571D01*
X169559214Y-139328380D02*
X169083023Y-139328380D01*
X169083023Y-138328380D01*
X169559214Y-138328380D01*
X169892547Y-138328380D02*
X170559214Y-139328380D01*
X170559214Y-138328380D02*
X169892547Y-139328380D01*
X170797309Y-138328380D02*
X171368738Y-138328380D01*
X171083023Y-139328380D02*
X171083023Y-138328380D01*
X172273500Y-139328380D02*
X171940166Y-138852190D01*
X171702071Y-139328380D02*
X171702071Y-138328380D01*
X172083023Y-138328380D01*
X172178261Y-138376000D01*
X172225880Y-138423619D01*
X172273500Y-138518857D01*
X172273500Y-138661714D01*
X172225880Y-138756952D01*
X172178261Y-138804571D01*
X172083023Y-138852190D01*
X171702071Y-138852190D01*
X172654452Y-139042666D02*
X173130642Y-139042666D01*
X172559214Y-139328380D02*
X172892547Y-138328380D01*
X173225880Y-139328380D01*
X174083023Y-139328380D02*
X173511595Y-139328380D01*
X173797309Y-139328380D02*
X173797309Y-138328380D01*
X173702071Y-138471238D01*
X173606833Y-138566476D01*
X173511595Y-138614095D01*
X169083023Y-140454571D02*
X169416357Y-140454571D01*
X169559214Y-140978380D02*
X169083023Y-140978380D01*
X169083023Y-139978380D01*
X169559214Y-139978380D01*
X169892547Y-139978380D02*
X170559214Y-140978380D01*
X170559214Y-139978380D02*
X169892547Y-140978380D01*
X170797309Y-139978380D02*
X171368738Y-139978380D01*
X171083023Y-140978380D02*
X171083023Y-139978380D01*
X172273500Y-140978380D02*
X171940166Y-140502190D01*
X171702071Y-140978380D02*
X171702071Y-139978380D01*
X172083023Y-139978380D01*
X172178261Y-140026000D01*
X172225880Y-140073619D01*
X172273500Y-140168857D01*
X172273500Y-140311714D01*
X172225880Y-140406952D01*
X172178261Y-140454571D01*
X172083023Y-140502190D01*
X171702071Y-140502190D01*
X172654452Y-140692666D02*
X173130642Y-140692666D01*
X172559214Y-140978380D02*
X172892547Y-139978380D01*
X173225880Y-140978380D01*
X173511595Y-140073619D02*
X173559214Y-140026000D01*
X173654452Y-139978380D01*
X173892547Y-139978380D01*
X173987785Y-140026000D01*
X174035404Y-140073619D01*
X174083023Y-140168857D01*
X174083023Y-140264095D01*
X174035404Y-140406952D01*
X173463976Y-140978380D01*
X174083023Y-140978380D01*
X172749690Y-141961714D02*
X172749690Y-142628380D01*
X172749690Y-142056952D02*
X172797309Y-142009333D01*
X172892547Y-141961714D01*
X173035404Y-141961714D01*
X173130642Y-142009333D01*
X173178261Y-142104571D01*
X173178261Y-142628380D01*
X174083023Y-142580761D02*
X173987785Y-142628380D01*
X173797309Y-142628380D01*
X173702071Y-142580761D01*
X173654452Y-142533142D01*
X173606833Y-142437904D01*
X173606833Y-142152190D01*
X173654452Y-142056952D01*
X173702071Y-142009333D01*
X173797309Y-141961714D01*
X173987785Y-141961714D01*
X174083023Y-142009333D01*
X172749690Y-143611714D02*
X172749690Y-144278380D01*
X172749690Y-143706952D02*
X172797309Y-143659333D01*
X172892547Y-143611714D01*
X173035404Y-143611714D01*
X173130642Y-143659333D01*
X173178261Y-143754571D01*
X173178261Y-144278380D01*
X174083023Y-144230761D02*
X173987785Y-144278380D01*
X173797309Y-144278380D01*
X173702071Y-144230761D01*
X173654452Y-144183142D01*
X173606833Y-144087904D01*
X173606833Y-143802190D01*
X173654452Y-143706952D01*
X173702071Y-143659333D01*
X173797309Y-143611714D01*
X173987785Y-143611714D01*
X174083023Y-143659333D01*
X172749690Y-145261714D02*
X172749690Y-145928380D01*
X172749690Y-145356952D02*
X172797309Y-145309333D01*
X172892547Y-145261714D01*
X173035404Y-145261714D01*
X173130642Y-145309333D01*
X173178261Y-145404571D01*
X173178261Y-145928380D01*
X174083023Y-145880761D02*
X173987785Y-145928380D01*
X173797309Y-145928380D01*
X173702071Y-145880761D01*
X173654452Y-145833142D01*
X173606833Y-145737904D01*
X173606833Y-145452190D01*
X173654452Y-145356952D01*
X173702071Y-145309333D01*
X173797309Y-145261714D01*
X173987785Y-145261714D01*
X174083023Y-145309333D01*
X171987785Y-146626000D02*
X171892547Y-146578380D01*
X171749690Y-146578380D01*
X171606833Y-146626000D01*
X171511595Y-146721238D01*
X171463976Y-146816476D01*
X171416357Y-147006952D01*
X171416357Y-147149809D01*
X171463976Y-147340285D01*
X171511595Y-147435523D01*
X171606833Y-147530761D01*
X171749690Y-147578380D01*
X171844928Y-147578380D01*
X171987785Y-147530761D01*
X172035404Y-147483142D01*
X172035404Y-147149809D01*
X171844928Y-147149809D01*
X172463976Y-147578380D02*
X172463976Y-146578380D01*
X173035404Y-147578380D01*
X173035404Y-146578380D01*
X173511595Y-147578380D02*
X173511595Y-146578380D01*
X173749690Y-146578380D01*
X173892547Y-146626000D01*
X173987785Y-146721238D01*
X174035404Y-146816476D01*
X174083023Y-147006952D01*
X174083023Y-147149809D01*
X174035404Y-147340285D01*
X173987785Y-147435523D01*
X173892547Y-147530761D01*
X173749690Y-147578380D01*
X173511595Y-147578380D01*
X163022595Y-135028380D02*
X163022595Y-135837904D01*
X163070214Y-135933142D01*
X163117833Y-135980761D01*
X163213071Y-136028380D01*
X163403547Y-136028380D01*
X163498785Y-135980761D01*
X163546404Y-135933142D01*
X163594023Y-135837904D01*
X163594023Y-135028380D01*
X164070214Y-136028380D02*
X164070214Y-135028380D01*
X164451166Y-135028380D01*
X164546404Y-135076000D01*
X164594023Y-135123619D01*
X164641642Y-135218857D01*
X164641642Y-135361714D01*
X164594023Y-135456952D01*
X164546404Y-135504571D01*
X164451166Y-135552190D01*
X164070214Y-135552190D01*
X163022595Y-137678380D02*
X163022595Y-136678380D01*
X163260690Y-136678380D01*
X163403547Y-136726000D01*
X163498785Y-136821238D01*
X163546404Y-136916476D01*
X163594023Y-137106952D01*
X163594023Y-137249809D01*
X163546404Y-137440285D01*
X163498785Y-137535523D01*
X163403547Y-137630761D01*
X163260690Y-137678380D01*
X163022595Y-137678380D01*
X164213071Y-136678380D02*
X164403547Y-136678380D01*
X164498785Y-136726000D01*
X164594023Y-136821238D01*
X164641642Y-137011714D01*
X164641642Y-137345047D01*
X164594023Y-137535523D01*
X164498785Y-137630761D01*
X164403547Y-137678380D01*
X164213071Y-137678380D01*
X164117833Y-137630761D01*
X164022595Y-137535523D01*
X163974976Y-137345047D01*
X163974976Y-137011714D01*
X164022595Y-136821238D01*
X164117833Y-136726000D01*
X164213071Y-136678380D01*
X164974976Y-136678380D02*
X165213071Y-137678380D01*
X165403547Y-136964095D01*
X165594023Y-137678380D01*
X165832119Y-136678380D01*
X166213071Y-137678380D02*
X166213071Y-136678380D01*
X166784500Y-137678380D01*
X166784500Y-136678380D01*
X163498785Y-139328380D02*
X163022595Y-139328380D01*
X163022595Y-138328380D01*
X163832119Y-138804571D02*
X164165452Y-138804571D01*
X164308309Y-139328380D02*
X163832119Y-139328380D01*
X163832119Y-138328380D01*
X164308309Y-138328380D01*
X165070214Y-138804571D02*
X164736880Y-138804571D01*
X164736880Y-139328380D02*
X164736880Y-138328380D01*
X165213071Y-138328380D01*
X165451166Y-138328380D02*
X166022595Y-138328380D01*
X165736880Y-139328380D02*
X165736880Y-138328380D01*
X163594023Y-140978380D02*
X163260690Y-140502190D01*
X163022595Y-140978380D02*
X163022595Y-139978380D01*
X163403547Y-139978380D01*
X163498785Y-140026000D01*
X163546404Y-140073619D01*
X163594023Y-140168857D01*
X163594023Y-140311714D01*
X163546404Y-140406952D01*
X163498785Y-140454571D01*
X163403547Y-140502190D01*
X163022595Y-140502190D01*
X164022595Y-140978380D02*
X164022595Y-139978380D01*
X165022595Y-140026000D02*
X164927357Y-139978380D01*
X164784500Y-139978380D01*
X164641642Y-140026000D01*
X164546404Y-140121238D01*
X164498785Y-140216476D01*
X164451166Y-140406952D01*
X164451166Y-140549809D01*
X164498785Y-140740285D01*
X164546404Y-140835523D01*
X164641642Y-140930761D01*
X164784500Y-140978380D01*
X164879738Y-140978380D01*
X165022595Y-140930761D01*
X165070214Y-140883142D01*
X165070214Y-140549809D01*
X164879738Y-140549809D01*
X165498785Y-140978380D02*
X165498785Y-139978380D01*
X165498785Y-140454571D02*
X166070214Y-140454571D01*
X166070214Y-140978380D02*
X166070214Y-139978380D01*
X166403547Y-139978380D02*
X166974976Y-139978380D01*
X166689261Y-140978380D02*
X166689261Y-139978380D01*
X162879738Y-141628380D02*
X163451166Y-141628380D01*
X163165452Y-142628380D02*
X163165452Y-141628380D01*
X163974976Y-141628380D02*
X164165452Y-141628380D01*
X164260690Y-141676000D01*
X164355928Y-141771238D01*
X164403547Y-141961714D01*
X164403547Y-142295047D01*
X164355928Y-142485523D01*
X164260690Y-142580761D01*
X164165452Y-142628380D01*
X163974976Y-142628380D01*
X163879738Y-142580761D01*
X163784500Y-142485523D01*
X163736880Y-142295047D01*
X163736880Y-141961714D01*
X163784500Y-141771238D01*
X163879738Y-141676000D01*
X163974976Y-141628380D01*
X164832119Y-142628380D02*
X164832119Y-141628380D01*
X165213071Y-141628380D01*
X165308309Y-141676000D01*
X165355928Y-141723619D01*
X165403547Y-141818857D01*
X165403547Y-141961714D01*
X165355928Y-142056952D01*
X165308309Y-142104571D01*
X165213071Y-142152190D01*
X164832119Y-142152190D01*
X166355928Y-142628380D02*
X165784500Y-142628380D01*
X166070214Y-142628380D02*
X166070214Y-141628380D01*
X165974976Y-141771238D01*
X165879738Y-141866476D01*
X165784500Y-141914095D01*
X162879738Y-143278380D02*
X163451166Y-143278380D01*
X163165452Y-144278380D02*
X163165452Y-143278380D01*
X163974976Y-143278380D02*
X164165452Y-143278380D01*
X164260690Y-143326000D01*
X164355928Y-143421238D01*
X164403547Y-143611714D01*
X164403547Y-143945047D01*
X164355928Y-144135523D01*
X164260690Y-144230761D01*
X164165452Y-144278380D01*
X163974976Y-144278380D01*
X163879738Y-144230761D01*
X163784500Y-144135523D01*
X163736880Y-143945047D01*
X163736880Y-143611714D01*
X163784500Y-143421238D01*
X163879738Y-143326000D01*
X163974976Y-143278380D01*
X164832119Y-144278380D02*
X164832119Y-143278380D01*
X165213071Y-143278380D01*
X165308309Y-143326000D01*
X165355928Y-143373619D01*
X165403547Y-143468857D01*
X165403547Y-143611714D01*
X165355928Y-143706952D01*
X165308309Y-143754571D01*
X165213071Y-143802190D01*
X164832119Y-143802190D01*
X165784500Y-143373619D02*
X165832119Y-143326000D01*
X165927357Y-143278380D01*
X166165452Y-143278380D01*
X166260690Y-143326000D01*
X166308309Y-143373619D01*
X166355928Y-143468857D01*
X166355928Y-143564095D01*
X166308309Y-143706952D01*
X165736880Y-144278380D01*
X166355928Y-144278380D01*
X162879738Y-144928380D02*
X163451166Y-144928380D01*
X163165452Y-145928380D02*
X163165452Y-144928380D01*
X163974976Y-144928380D02*
X164165452Y-144928380D01*
X164260690Y-144976000D01*
X164355928Y-145071238D01*
X164403547Y-145261714D01*
X164403547Y-145595047D01*
X164355928Y-145785523D01*
X164260690Y-145880761D01*
X164165452Y-145928380D01*
X163974976Y-145928380D01*
X163879738Y-145880761D01*
X163784500Y-145785523D01*
X163736880Y-145595047D01*
X163736880Y-145261714D01*
X163784500Y-145071238D01*
X163879738Y-144976000D01*
X163974976Y-144928380D01*
X164832119Y-145928380D02*
X164832119Y-144928380D01*
X165213071Y-144928380D01*
X165308309Y-144976000D01*
X165355928Y-145023619D01*
X165403547Y-145118857D01*
X165403547Y-145261714D01*
X165355928Y-145356952D01*
X165308309Y-145404571D01*
X165213071Y-145452190D01*
X164832119Y-145452190D01*
X165736880Y-144928380D02*
X166355928Y-144928380D01*
X166022595Y-145309333D01*
X166165452Y-145309333D01*
X166260690Y-145356952D01*
X166308309Y-145404571D01*
X166355928Y-145499809D01*
X166355928Y-145737904D01*
X166308309Y-145833142D01*
X166260690Y-145880761D01*
X166165452Y-145928380D01*
X165879738Y-145928380D01*
X165784500Y-145880761D01*
X165736880Y-145833142D01*
X163355928Y-147054571D02*
X163498785Y-147102190D01*
X163546404Y-147149809D01*
X163594023Y-147245047D01*
X163594023Y-147387904D01*
X163546404Y-147483142D01*
X163498785Y-147530761D01*
X163403547Y-147578380D01*
X163022595Y-147578380D01*
X163022595Y-146578380D01*
X163355928Y-146578380D01*
X163451166Y-146626000D01*
X163498785Y-146673619D01*
X163546404Y-146768857D01*
X163546404Y-146864095D01*
X163498785Y-146959333D01*
X163451166Y-147006952D01*
X163355928Y-147054571D01*
X163022595Y-147054571D01*
X164213071Y-146578380D02*
X164403547Y-146578380D01*
X164498785Y-146626000D01*
X164594023Y-146721238D01*
X164641642Y-146911714D01*
X164641642Y-147245047D01*
X164594023Y-147435523D01*
X164498785Y-147530761D01*
X164403547Y-147578380D01*
X164213071Y-147578380D01*
X164117833Y-147530761D01*
X164022595Y-147435523D01*
X163974976Y-147245047D01*
X163974976Y-146911714D01*
X164022595Y-146721238D01*
X164117833Y-146626000D01*
X164213071Y-146578380D01*
X164927357Y-146578380D02*
X165498785Y-146578380D01*
X165213071Y-147578380D02*
X165213071Y-146578380D01*
X165689261Y-146578380D02*
X166260690Y-146578380D01*
X165974976Y-147578380D02*
X165974976Y-146578380D01*
X166784500Y-146578380D02*
X166974976Y-146578380D01*
X167070214Y-146626000D01*
X167165452Y-146721238D01*
X167213071Y-146911714D01*
X167213071Y-147245047D01*
X167165452Y-147435523D01*
X167070214Y-147530761D01*
X166974976Y-147578380D01*
X166784500Y-147578380D01*
X166689261Y-147530761D01*
X166594023Y-147435523D01*
X166546404Y-147245047D01*
X166546404Y-146911714D01*
X166594023Y-146721238D01*
X166689261Y-146626000D01*
X166784500Y-146578380D01*
X167641642Y-147578380D02*
X167641642Y-146578380D01*
X167974976Y-147292666D01*
X168308309Y-146578380D01*
X168308309Y-147578380D01*
X169308309Y-147578380D02*
X168736880Y-147578380D01*
X169022595Y-147578380D02*
X169022595Y-146578380D01*
X168927357Y-146721238D01*
X168832119Y-146816476D01*
X168736880Y-146864095D01*
X150002952Y-51633380D02*
X149431523Y-51633380D01*
X149717238Y-51633380D02*
X149717238Y-50633380D01*
X149622000Y-50776238D01*
X149526761Y-50871476D01*
X149431523Y-50919095D01*
X150383904Y-50728619D02*
X150431523Y-50681000D01*
X150526761Y-50633380D01*
X150764857Y-50633380D01*
X150860095Y-50681000D01*
X150907714Y-50728619D01*
X150955333Y-50823857D01*
X150955333Y-50919095D01*
X150907714Y-51061952D01*
X150336285Y-51633380D01*
X150955333Y-51633380D01*
X151241047Y-50633380D02*
X151574380Y-51633380D01*
X151907714Y-50633380D01*
X137573190Y-63063380D02*
X136430333Y-63063380D01*
X137001761Y-63063380D02*
X137001761Y-62063380D01*
X136811285Y-62206238D01*
X136620809Y-62301476D01*
X136430333Y-62349095D01*
X138335095Y-62158619D02*
X138430333Y-62111000D01*
X138620809Y-62063380D01*
X139097000Y-62063380D01*
X139287476Y-62111000D01*
X139382714Y-62158619D01*
X139477952Y-62253857D01*
X139477952Y-62349095D01*
X139382714Y-62491952D01*
X138239857Y-63063380D01*
X139477952Y-63063380D01*
X140049380Y-62063380D02*
X140716047Y-63063380D01*
X141382714Y-62063380D01*
X143573190Y-63063380D02*
X143573190Y-62063380D01*
X144525571Y-63063380D02*
X144525571Y-62063380D01*
X145668428Y-63063380D01*
X145668428Y-62063380D01*
X125412619Y-48585380D02*
X125079285Y-48109190D01*
X124841190Y-48585380D02*
X124841190Y-47585380D01*
X125222142Y-47585380D01*
X125317380Y-47633000D01*
X125365000Y-47680619D01*
X125412619Y-47775857D01*
X125412619Y-47918714D01*
X125365000Y-48013952D01*
X125317380Y-48061571D01*
X125222142Y-48109190D01*
X124841190Y-48109190D01*
X126031666Y-47585380D02*
X126222142Y-47585380D01*
X126317380Y-47633000D01*
X126412619Y-47728238D01*
X126460238Y-47918714D01*
X126460238Y-48252047D01*
X126412619Y-48442523D01*
X126317380Y-48537761D01*
X126222142Y-48585380D01*
X126031666Y-48585380D01*
X125936428Y-48537761D01*
X125841190Y-48442523D01*
X125793571Y-48252047D01*
X125793571Y-47918714D01*
X125841190Y-47728238D01*
X125936428Y-47633000D01*
X126031666Y-47585380D01*
X127317380Y-47918714D02*
X127317380Y-48585380D01*
X126888809Y-47918714D02*
X126888809Y-48442523D01*
X126936428Y-48537761D01*
X127031666Y-48585380D01*
X127174523Y-48585380D01*
X127269761Y-48537761D01*
X127317380Y-48490142D01*
X127650714Y-47918714D02*
X128031666Y-47918714D01*
X127793571Y-47585380D02*
X127793571Y-48442523D01*
X127841190Y-48537761D01*
X127936428Y-48585380D01*
X128031666Y-48585380D01*
X105552952Y-52903380D02*
X104981523Y-52903380D01*
X105267238Y-52903380D02*
X105267238Y-51903380D01*
X105172000Y-52046238D01*
X105076761Y-52141476D01*
X104981523Y-52189095D01*
X105933904Y-51998619D02*
X105981523Y-51951000D01*
X106076761Y-51903380D01*
X106314857Y-51903380D01*
X106410095Y-51951000D01*
X106457714Y-51998619D01*
X106505333Y-52093857D01*
X106505333Y-52189095D01*
X106457714Y-52331952D01*
X105886285Y-52903380D01*
X106505333Y-52903380D01*
X106791047Y-51903380D02*
X107124380Y-52903380D01*
X107457714Y-51903380D01*
X110998714Y-62555380D02*
X110332047Y-62079190D01*
X109855857Y-62555380D02*
X109855857Y-61555380D01*
X110617761Y-61555380D01*
X110808238Y-61603000D01*
X110903476Y-61650619D01*
X110998714Y-61745857D01*
X110998714Y-61888714D01*
X110903476Y-61983952D01*
X110808238Y-62031571D01*
X110617761Y-62079190D01*
X109855857Y-62079190D01*
X112617761Y-62507761D02*
X112427285Y-62555380D01*
X112046333Y-62555380D01*
X111855857Y-62507761D01*
X111760619Y-62412523D01*
X111760619Y-62031571D01*
X111855857Y-61936333D01*
X112046333Y-61888714D01*
X112427285Y-61888714D01*
X112617761Y-61936333D01*
X112713000Y-62031571D01*
X112713000Y-62126809D01*
X111760619Y-62222047D01*
X113855857Y-62555380D02*
X113665380Y-62507761D01*
X113570142Y-62412523D01*
X113570142Y-61555380D01*
X115474904Y-62555380D02*
X115474904Y-62031571D01*
X115379666Y-61936333D01*
X115189190Y-61888714D01*
X114808238Y-61888714D01*
X114617761Y-61936333D01*
X115474904Y-62507761D02*
X115284428Y-62555380D01*
X114808238Y-62555380D01*
X114617761Y-62507761D01*
X114522523Y-62412523D01*
X114522523Y-62317285D01*
X114617761Y-62222047D01*
X114808238Y-62174428D01*
X115284428Y-62174428D01*
X115474904Y-62126809D01*
X116236809Y-61888714D02*
X116713000Y-62555380D01*
X117189190Y-61888714D02*
X116713000Y-62555380D01*
X116522523Y-62793476D01*
X116427285Y-62841095D01*
X116236809Y-62888714D01*
X119855857Y-61555380D02*
X120236809Y-61555380D01*
X120427285Y-61603000D01*
X120617761Y-61698238D01*
X120713000Y-61888714D01*
X120713000Y-62222047D01*
X120617761Y-62412523D01*
X120427285Y-62507761D01*
X120236809Y-62555380D01*
X119855857Y-62555380D01*
X119665380Y-62507761D01*
X119474904Y-62412523D01*
X119379666Y-62222047D01*
X119379666Y-61888714D01*
X119474904Y-61698238D01*
X119665380Y-61603000D01*
X119855857Y-61555380D01*
X122427285Y-61888714D02*
X122427285Y-62555380D01*
X121570142Y-61888714D02*
X121570142Y-62412523D01*
X121665380Y-62507761D01*
X121855857Y-62555380D01*
X122141571Y-62555380D01*
X122332047Y-62507761D01*
X122427285Y-62460142D01*
X123093952Y-61888714D02*
X123855857Y-61888714D01*
X123379666Y-61555380D02*
X123379666Y-62412523D01*
X123474904Y-62507761D01*
X123665380Y-62555380D01*
X123855857Y-62555380D01*
X129667095Y-50681000D02*
X129571857Y-50633380D01*
X129429000Y-50633380D01*
X129286142Y-50681000D01*
X129190904Y-50776238D01*
X129143285Y-50871476D01*
X129095666Y-51061952D01*
X129095666Y-51204809D01*
X129143285Y-51395285D01*
X129190904Y-51490523D01*
X129286142Y-51585761D01*
X129429000Y-51633380D01*
X129524238Y-51633380D01*
X129667095Y-51585761D01*
X129714714Y-51538142D01*
X129714714Y-51204809D01*
X129524238Y-51204809D01*
X130143285Y-51633380D02*
X130143285Y-50633380D01*
X130714714Y-51633380D01*
X130714714Y-50633380D01*
X131190904Y-51633380D02*
X131190904Y-50633380D01*
X131429000Y-50633380D01*
X131571857Y-50681000D01*
X131667095Y-50776238D01*
X131714714Y-50871476D01*
X131762333Y-51061952D01*
X131762333Y-51204809D01*
X131714714Y-51395285D01*
X131667095Y-51490523D01*
X131571857Y-51585761D01*
X131429000Y-51633380D01*
X131190904Y-51633380D01*
X101028523Y-49998380D02*
X100552333Y-49998380D01*
X100504714Y-50474571D01*
X100552333Y-50426952D01*
X100647571Y-50379333D01*
X100885666Y-50379333D01*
X100980904Y-50426952D01*
X101028523Y-50474571D01*
X101076142Y-50569809D01*
X101076142Y-50807904D01*
X101028523Y-50903142D01*
X100980904Y-50950761D01*
X100885666Y-50998380D01*
X100647571Y-50998380D01*
X100552333Y-50950761D01*
X100504714Y-50903142D01*
X101361857Y-49998380D02*
X101695190Y-50998380D01*
X102028523Y-49998380D01*
X78867095Y-50046000D02*
X78771857Y-49998380D01*
X78629000Y-49998380D01*
X78486142Y-50046000D01*
X78390904Y-50141238D01*
X78343285Y-50236476D01*
X78295666Y-50426952D01*
X78295666Y-50569809D01*
X78343285Y-50760285D01*
X78390904Y-50855523D01*
X78486142Y-50950761D01*
X78629000Y-50998380D01*
X78724238Y-50998380D01*
X78867095Y-50950761D01*
X78914714Y-50903142D01*
X78914714Y-50569809D01*
X78724238Y-50569809D01*
X79343285Y-50998380D02*
X79343285Y-49998380D01*
X79914714Y-50998380D01*
X79914714Y-49998380D01*
X80390904Y-50998380D02*
X80390904Y-49998380D01*
X80629000Y-49998380D01*
X80771857Y-50046000D01*
X80867095Y-50141238D01*
X80914714Y-50236476D01*
X80962333Y-50426952D01*
X80962333Y-50569809D01*
X80914714Y-50760285D01*
X80867095Y-50855523D01*
X80771857Y-50950761D01*
X80629000Y-50998380D01*
X80390904Y-50998380D01*
X95059523Y-45299380D02*
X94583333Y-45299380D01*
X94535714Y-45775571D01*
X94583333Y-45727952D01*
X94678571Y-45680333D01*
X94916666Y-45680333D01*
X95011904Y-45727952D01*
X95059523Y-45775571D01*
X95107142Y-45870809D01*
X95107142Y-46108904D01*
X95059523Y-46204142D01*
X95011904Y-46251761D01*
X94916666Y-46299380D01*
X94678571Y-46299380D01*
X94583333Y-46251761D01*
X94535714Y-46204142D01*
X95392857Y-45299380D02*
X95726190Y-46299380D01*
X96059523Y-45299380D01*
X85979095Y-45601000D02*
X85883857Y-45553380D01*
X85741000Y-45553380D01*
X85598142Y-45601000D01*
X85502904Y-45696238D01*
X85455285Y-45791476D01*
X85407666Y-45981952D01*
X85407666Y-46124809D01*
X85455285Y-46315285D01*
X85502904Y-46410523D01*
X85598142Y-46505761D01*
X85741000Y-46553380D01*
X85836238Y-46553380D01*
X85979095Y-46505761D01*
X86026714Y-46458142D01*
X86026714Y-46124809D01*
X85836238Y-46124809D01*
X86455285Y-46553380D02*
X86455285Y-45553380D01*
X87026714Y-46553380D01*
X87026714Y-45553380D01*
X87502904Y-46553380D02*
X87502904Y-45553380D01*
X87741000Y-45553380D01*
X87883857Y-45601000D01*
X87979095Y-45696238D01*
X88026714Y-45791476D01*
X88074333Y-45981952D01*
X88074333Y-46124809D01*
X88026714Y-46315285D01*
X87979095Y-46410523D01*
X87883857Y-46505761D01*
X87741000Y-46553380D01*
X87502904Y-46553380D01*
X86932000Y-63079380D02*
X85979619Y-63079380D01*
X85884380Y-63555571D01*
X85979619Y-63507952D01*
X86170095Y-63460333D01*
X86646285Y-63460333D01*
X86836761Y-63507952D01*
X86932000Y-63555571D01*
X87027238Y-63650809D01*
X87027238Y-63888904D01*
X86932000Y-63984142D01*
X86836761Y-64031761D01*
X86646285Y-64079380D01*
X86170095Y-64079380D01*
X85979619Y-64031761D01*
X85884380Y-63984142D01*
X87598666Y-63079380D02*
X88265333Y-64079380D01*
X88932000Y-63079380D01*
X91503428Y-63079380D02*
X91884380Y-63079380D01*
X92074857Y-63127000D01*
X92265333Y-63222238D01*
X92360571Y-63412714D01*
X92360571Y-63746047D01*
X92265333Y-63936523D01*
X92074857Y-64031761D01*
X91884380Y-64079380D01*
X91503428Y-64079380D01*
X91312952Y-64031761D01*
X91122476Y-63936523D01*
X91027238Y-63746047D01*
X91027238Y-63412714D01*
X91122476Y-63222238D01*
X91312952Y-63127000D01*
X91503428Y-63079380D01*
X93217714Y-63079380D02*
X93217714Y-63888904D01*
X93312952Y-63984142D01*
X93408190Y-64031761D01*
X93598666Y-64079380D01*
X93979619Y-64079380D01*
X94170095Y-64031761D01*
X94265333Y-63984142D01*
X94360571Y-63888904D01*
X94360571Y-63079380D01*
X95027238Y-63079380D02*
X96170095Y-63079380D01*
X95598666Y-64079380D02*
X95598666Y-63079380D01*
X67198952Y-71826380D02*
X66627523Y-71826380D01*
X66913238Y-71826380D02*
X66913238Y-70826380D01*
X66818000Y-70969238D01*
X66722761Y-71064476D01*
X66627523Y-71112095D01*
X67579904Y-70921619D02*
X67627523Y-70874000D01*
X67722761Y-70826380D01*
X67960857Y-70826380D01*
X68056095Y-70874000D01*
X68103714Y-70921619D01*
X68151333Y-71016857D01*
X68151333Y-71112095D01*
X68103714Y-71254952D01*
X67532285Y-71826380D01*
X68151333Y-71826380D01*
X68437047Y-70826380D02*
X68770380Y-71826380D01*
X69103714Y-70826380D01*
X67437095Y-68207000D02*
X67341857Y-68159380D01*
X67199000Y-68159380D01*
X67056142Y-68207000D01*
X66960904Y-68302238D01*
X66913285Y-68397476D01*
X66865666Y-68587952D01*
X66865666Y-68730809D01*
X66913285Y-68921285D01*
X66960904Y-69016523D01*
X67056142Y-69111761D01*
X67199000Y-69159380D01*
X67294238Y-69159380D01*
X67437095Y-69111761D01*
X67484714Y-69064142D01*
X67484714Y-68730809D01*
X67294238Y-68730809D01*
X67913285Y-69159380D02*
X67913285Y-68159380D01*
X68484714Y-69159380D01*
X68484714Y-68159380D01*
X68960904Y-69159380D02*
X68960904Y-68159380D01*
X69199000Y-68159380D01*
X69341857Y-68207000D01*
X69437095Y-68302238D01*
X69484714Y-68397476D01*
X69532333Y-68587952D01*
X69532333Y-68730809D01*
X69484714Y-68921285D01*
X69437095Y-69016523D01*
X69341857Y-69111761D01*
X69199000Y-69159380D01*
X68960904Y-69159380D01*
X67421142Y-65492380D02*
X66944952Y-65492380D01*
X66897333Y-65968571D01*
X66944952Y-65920952D01*
X67040190Y-65873333D01*
X67278285Y-65873333D01*
X67373523Y-65920952D01*
X67421142Y-65968571D01*
X67468761Y-66063809D01*
X67468761Y-66301904D01*
X67421142Y-66397142D01*
X67373523Y-66444761D01*
X67278285Y-66492380D01*
X67040190Y-66492380D01*
X66944952Y-66444761D01*
X66897333Y-66397142D01*
X67802095Y-65825714D02*
X68040190Y-66492380D01*
X68278285Y-65825714D01*
X61198857Y-61158380D02*
X61198857Y-60158380D01*
X61436952Y-60158380D01*
X61579809Y-60206000D01*
X61675047Y-60301238D01*
X61722666Y-60396476D01*
X61770285Y-60586952D01*
X61770285Y-60729809D01*
X61722666Y-60920285D01*
X61675047Y-61015523D01*
X61579809Y-61110761D01*
X61436952Y-61158380D01*
X61198857Y-61158380D01*
X62770285Y-61158380D02*
X62436952Y-60682190D01*
X62198857Y-61158380D02*
X62198857Y-60158380D01*
X62579809Y-60158380D01*
X62675047Y-60206000D01*
X62722666Y-60253619D01*
X62770285Y-60348857D01*
X62770285Y-60491714D01*
X62722666Y-60586952D01*
X62675047Y-60634571D01*
X62579809Y-60682190D01*
X62198857Y-60682190D01*
X63389333Y-60158380D02*
X63579809Y-60158380D01*
X63675047Y-60206000D01*
X63770285Y-60301238D01*
X63817904Y-60491714D01*
X63817904Y-60825047D01*
X63770285Y-61015523D01*
X63675047Y-61110761D01*
X63579809Y-61158380D01*
X63389333Y-61158380D01*
X63294095Y-61110761D01*
X63198857Y-61015523D01*
X63151238Y-60825047D01*
X63151238Y-60491714D01*
X63198857Y-60301238D01*
X63294095Y-60206000D01*
X63389333Y-60158380D01*
X64246476Y-61158380D02*
X64246476Y-60158380D01*
X64817904Y-61158380D02*
X64389333Y-60586952D01*
X64817904Y-60158380D02*
X64246476Y-60729809D01*
X66532190Y-61158380D02*
X65960761Y-61158380D01*
X66246476Y-61158380D02*
X66246476Y-60158380D01*
X66151238Y-60301238D01*
X66056000Y-60396476D01*
X65960761Y-60444095D01*
X66913142Y-60253619D02*
X66960761Y-60206000D01*
X67056000Y-60158380D01*
X67294095Y-60158380D01*
X67389333Y-60206000D01*
X67436952Y-60253619D01*
X67484571Y-60348857D01*
X67484571Y-60444095D01*
X67436952Y-60586952D01*
X66865523Y-61158380D01*
X67484571Y-61158380D01*
X67817904Y-60491714D02*
X68056000Y-61158380D01*
X68294095Y-60491714D01*
X69294095Y-60491714D02*
X69675047Y-60491714D01*
X69436952Y-60158380D02*
X69436952Y-61015523D01*
X69484571Y-61110761D01*
X69579809Y-61158380D01*
X69675047Y-61158380D01*
X70151238Y-61158380D02*
X70056000Y-61110761D01*
X70008380Y-61063142D01*
X69960761Y-60967904D01*
X69960761Y-60682190D01*
X70008380Y-60586952D01*
X70056000Y-60539333D01*
X70151238Y-60491714D01*
X70294095Y-60491714D01*
X70389333Y-60539333D01*
X70436952Y-60586952D01*
X70484571Y-60682190D01*
X70484571Y-60967904D01*
X70436952Y-61063142D01*
X70389333Y-61110761D01*
X70294095Y-61158380D01*
X70151238Y-61158380D01*
X72151238Y-60158380D02*
X71675047Y-60158380D01*
X71627428Y-60634571D01*
X71675047Y-60586952D01*
X71770285Y-60539333D01*
X72008380Y-60539333D01*
X72103619Y-60586952D01*
X72151238Y-60634571D01*
X72198857Y-60729809D01*
X72198857Y-60967904D01*
X72151238Y-61063142D01*
X72103619Y-61110761D01*
X72008380Y-61158380D01*
X71770285Y-61158380D01*
X71675047Y-61110761D01*
X71627428Y-61063142D01*
X72532190Y-60491714D02*
X72770285Y-61158380D01*
X73008380Y-60491714D01*
X83000000Y-69329761D02*
X82333333Y-68377380D01*
X81857142Y-69329761D02*
X81857142Y-67329761D01*
X82619047Y-67329761D01*
X82809523Y-67425000D01*
X82904761Y-67520238D01*
X83000000Y-67710714D01*
X83000000Y-67996428D01*
X82904761Y-68186904D01*
X82809523Y-68282142D01*
X82619047Y-68377380D01*
X81857142Y-68377380D01*
X84619047Y-69234523D02*
X84428571Y-69329761D01*
X84047619Y-69329761D01*
X83857142Y-69234523D01*
X83761904Y-69044047D01*
X83761904Y-68282142D01*
X83857142Y-68091666D01*
X84047619Y-67996428D01*
X84428571Y-67996428D01*
X84619047Y-68091666D01*
X84714285Y-68282142D01*
X84714285Y-68472619D01*
X83761904Y-68663095D01*
X86428571Y-69329761D02*
X86428571Y-67329761D01*
X86428571Y-69234523D02*
X86238095Y-69329761D01*
X85857142Y-69329761D01*
X85666666Y-69234523D01*
X85571428Y-69139285D01*
X85476190Y-68948809D01*
X85476190Y-68377380D01*
X85571428Y-68186904D01*
X85666666Y-68091666D01*
X85857142Y-67996428D01*
X86238095Y-67996428D01*
X86428571Y-68091666D01*
X89571428Y-68282142D02*
X89857142Y-68377380D01*
X89952380Y-68472619D01*
X90047619Y-68663095D01*
X90047619Y-68948809D01*
X89952380Y-69139285D01*
X89857142Y-69234523D01*
X89666666Y-69329761D01*
X88904761Y-69329761D01*
X88904761Y-67329761D01*
X89571428Y-67329761D01*
X89761904Y-67425000D01*
X89857142Y-67520238D01*
X89952380Y-67710714D01*
X89952380Y-67901190D01*
X89857142Y-68091666D01*
X89761904Y-68186904D01*
X89571428Y-68282142D01*
X88904761Y-68282142D01*
X91761904Y-67996428D02*
X91761904Y-69329761D01*
X90904761Y-67996428D02*
X90904761Y-69044047D01*
X91000000Y-69234523D01*
X91190476Y-69329761D01*
X91476190Y-69329761D01*
X91666666Y-69234523D01*
X91761904Y-69139285D01*
X93000000Y-69329761D02*
X92809523Y-69234523D01*
X92714285Y-69044047D01*
X92714285Y-67329761D01*
X94047619Y-69329761D02*
X93857142Y-69234523D01*
X93761904Y-69044047D01*
X93761904Y-67329761D01*
X96238095Y-68758333D02*
X97190476Y-68758333D01*
X96047619Y-69329761D02*
X96714285Y-67329761D01*
X97380952Y-69329761D01*
X98047619Y-69329761D02*
X98047619Y-67996428D01*
X98047619Y-68377380D02*
X98142857Y-68186904D01*
X98238095Y-68091666D01*
X98428571Y-67996428D01*
X98619047Y-67996428D01*
X100142857Y-69234523D02*
X99952380Y-69329761D01*
X99571428Y-69329761D01*
X99380952Y-69234523D01*
X99285714Y-69139285D01*
X99190476Y-68948809D01*
X99190476Y-68377380D01*
X99285714Y-68186904D01*
X99380952Y-68091666D01*
X99571428Y-67996428D01*
X99952380Y-67996428D01*
X100142857Y-68091666D01*
X101857142Y-69329761D02*
X101857142Y-68282142D01*
X101761904Y-68091666D01*
X101571428Y-67996428D01*
X101190476Y-67996428D01*
X101000000Y-68091666D01*
X101857142Y-69234523D02*
X101666666Y-69329761D01*
X101190476Y-69329761D01*
X101000000Y-69234523D01*
X100904761Y-69044047D01*
X100904761Y-68853571D01*
X101000000Y-68663095D01*
X101190476Y-68567857D01*
X101666666Y-68567857D01*
X101857142Y-68472619D01*
X103666666Y-69329761D02*
X103666666Y-67329761D01*
X103666666Y-69234523D02*
X103476190Y-69329761D01*
X103095238Y-69329761D01*
X102904761Y-69234523D01*
X102809523Y-69139285D01*
X102714285Y-68948809D01*
X102714285Y-68377380D01*
X102809523Y-68186904D01*
X102904761Y-68091666D01*
X103095238Y-67996428D01*
X103476190Y-67996428D01*
X103666666Y-68091666D01*
X105380952Y-69234523D02*
X105190476Y-69329761D01*
X104809523Y-69329761D01*
X104619047Y-69234523D01*
X104523809Y-69044047D01*
X104523809Y-68282142D01*
X104619047Y-68091666D01*
X104809523Y-67996428D01*
X105190476Y-67996428D01*
X105380952Y-68091666D01*
X105476190Y-68282142D01*
X105476190Y-68472619D01*
X104523809Y-68663095D01*
X109000000Y-69139285D02*
X108904761Y-69234523D01*
X108619047Y-69329761D01*
X108428571Y-69329761D01*
X108142857Y-69234523D01*
X107952380Y-69044047D01*
X107857142Y-68853571D01*
X107761904Y-68472619D01*
X107761904Y-68186904D01*
X107857142Y-67805952D01*
X107952380Y-67615476D01*
X108142857Y-67425000D01*
X108428571Y-67329761D01*
X108619047Y-67329761D01*
X108904761Y-67425000D01*
X109000000Y-67520238D01*
X110714285Y-69329761D02*
X110714285Y-68282142D01*
X110619047Y-68091666D01*
X110428571Y-67996428D01*
X110047619Y-67996428D01*
X109857142Y-68091666D01*
X110714285Y-69234523D02*
X110523809Y-69329761D01*
X110047619Y-69329761D01*
X109857142Y-69234523D01*
X109761904Y-69044047D01*
X109761904Y-68853571D01*
X109857142Y-68663095D01*
X110047619Y-68567857D01*
X110523809Y-68567857D01*
X110714285Y-68472619D01*
X111666666Y-69329761D02*
X111666666Y-67329761D01*
X111666666Y-68091666D02*
X111857142Y-67996428D01*
X112238095Y-67996428D01*
X112428571Y-68091666D01*
X112523809Y-68186904D01*
X112619047Y-68377380D01*
X112619047Y-68948809D01*
X112523809Y-69139285D01*
X112428571Y-69234523D01*
X112238095Y-69329761D01*
X111857142Y-69329761D01*
X111666666Y-69234523D01*
X113476190Y-69329761D02*
X113476190Y-67996428D01*
X113476190Y-67329761D02*
X113380952Y-67425000D01*
X113476190Y-67520238D01*
X113571428Y-67425000D01*
X113476190Y-67329761D01*
X113476190Y-67520238D01*
X114428571Y-67996428D02*
X114428571Y-69329761D01*
X114428571Y-68186904D02*
X114523809Y-68091666D01*
X114714285Y-67996428D01*
X115000000Y-67996428D01*
X115190476Y-68091666D01*
X115285714Y-68282142D01*
X115285714Y-69329761D01*
X117000000Y-69234523D02*
X116809523Y-69329761D01*
X116428571Y-69329761D01*
X116238095Y-69234523D01*
X116142857Y-69044047D01*
X116142857Y-68282142D01*
X116238095Y-68091666D01*
X116428571Y-67996428D01*
X116809523Y-67996428D01*
X117000000Y-68091666D01*
X117095238Y-68282142D01*
X117095238Y-68472619D01*
X116142857Y-68663095D01*
X117666666Y-67996428D02*
X118428571Y-67996428D01*
X117952380Y-67329761D02*
X117952380Y-69044047D01*
X118047619Y-69234523D01*
X118238095Y-69329761D01*
X118428571Y-69329761D01*
X89809523Y-72384523D02*
X89619047Y-72479761D01*
X89238095Y-72479761D01*
X89047619Y-72384523D01*
X88952380Y-72194047D01*
X88952380Y-71432142D01*
X89047619Y-71241666D01*
X89238095Y-71146428D01*
X89619047Y-71146428D01*
X89809523Y-71241666D01*
X89904761Y-71432142D01*
X89904761Y-71622619D01*
X88952380Y-71813095D01*
X91047619Y-72479761D02*
X90857142Y-72384523D01*
X90761904Y-72194047D01*
X90761904Y-70479761D01*
X92571428Y-72384523D02*
X92380952Y-72479761D01*
X92000000Y-72479761D01*
X91809523Y-72384523D01*
X91714285Y-72194047D01*
X91714285Y-71432142D01*
X91809523Y-71241666D01*
X92000000Y-71146428D01*
X92380952Y-71146428D01*
X92571428Y-71241666D01*
X92666666Y-71432142D01*
X92666666Y-71622619D01*
X91714285Y-71813095D01*
X94380952Y-72384523D02*
X94190476Y-72479761D01*
X93809523Y-72479761D01*
X93619047Y-72384523D01*
X93523809Y-72289285D01*
X93428571Y-72098809D01*
X93428571Y-71527380D01*
X93523809Y-71336904D01*
X93619047Y-71241666D01*
X93809523Y-71146428D01*
X94190476Y-71146428D01*
X94380952Y-71241666D01*
X94952380Y-71146428D02*
X95714285Y-71146428D01*
X95238095Y-70479761D02*
X95238095Y-72194047D01*
X95333333Y-72384523D01*
X95523809Y-72479761D01*
X95714285Y-72479761D01*
X96380952Y-72479761D02*
X96380952Y-71146428D01*
X96380952Y-71527380D02*
X96476190Y-71336904D01*
X96571428Y-71241666D01*
X96761904Y-71146428D01*
X96952380Y-71146428D01*
X97619047Y-72479761D02*
X97619047Y-71146428D01*
X97619047Y-70479761D02*
X97523809Y-70575000D01*
X97619047Y-70670238D01*
X97714285Y-70575000D01*
X97619047Y-70479761D01*
X97619047Y-70670238D01*
X99428571Y-72384523D02*
X99238095Y-72479761D01*
X98857142Y-72479761D01*
X98666666Y-72384523D01*
X98571428Y-72289285D01*
X98476190Y-72098809D01*
X98476190Y-71527380D01*
X98571428Y-71336904D01*
X98666666Y-71241666D01*
X98857142Y-71146428D01*
X99238095Y-71146428D01*
X99428571Y-71241666D01*
X102666666Y-72384523D02*
X102476190Y-72479761D01*
X102095238Y-72479761D01*
X101904761Y-72384523D01*
X101809523Y-72289285D01*
X101714285Y-72098809D01*
X101714285Y-71527380D01*
X101809523Y-71336904D01*
X101904761Y-71241666D01*
X102095238Y-71146428D01*
X102476190Y-71146428D01*
X102666666Y-71241666D01*
X103523809Y-72479761D02*
X103523809Y-70479761D01*
X104380952Y-72479761D02*
X104380952Y-71432142D01*
X104285714Y-71241666D01*
X104095238Y-71146428D01*
X103809523Y-71146428D01*
X103619047Y-71241666D01*
X103523809Y-71336904D01*
X106190476Y-71146428D02*
X106190476Y-72479761D01*
X105333333Y-71146428D02*
X105333333Y-72194047D01*
X105428571Y-72384523D01*
X105619047Y-72479761D01*
X105904761Y-72479761D01*
X106095238Y-72384523D01*
X106190476Y-72289285D01*
X107142857Y-72479761D02*
X107142857Y-71146428D01*
X107142857Y-71527380D02*
X107238095Y-71336904D01*
X107333333Y-71241666D01*
X107523809Y-71146428D01*
X107714285Y-71146428D01*
X109238095Y-72384523D02*
X109047619Y-72479761D01*
X108666666Y-72479761D01*
X108476190Y-72384523D01*
X108380952Y-72289285D01*
X108285714Y-72098809D01*
X108285714Y-71527380D01*
X108380952Y-71336904D01*
X108476190Y-71241666D01*
X108666666Y-71146428D01*
X109047619Y-71146428D01*
X109238095Y-71241666D01*
X110095238Y-72479761D02*
X110095238Y-70479761D01*
X110952380Y-72479761D02*
X110952380Y-71432142D01*
X110857142Y-71241666D01*
X110666666Y-71146428D01*
X110380952Y-71146428D01*
X110190476Y-71241666D01*
X110095238Y-71336904D01*
D10*
X95300000Y-60410000D02*
X94700000Y-60410000D01*
X95000000Y-59810000D02*
X95300000Y-60410000D01*
X94700000Y-60410000D02*
X95000000Y-59810000D01*
X88250000Y-48890000D02*
X88500000Y-47390000D01*
X86750000Y-48890000D02*
X88250000Y-48890000D01*
X86500000Y-47390000D02*
X86750000Y-48890000D01*
X88500000Y-47390000D02*
X86500000Y-47390000D01*
X95750000Y-48890000D02*
X96000000Y-47390000D01*
X94250000Y-48890000D02*
X95750000Y-48890000D01*
X94000000Y-47390000D02*
X94250000Y-48890000D01*
X96000000Y-47390000D02*
X94000000Y-47390000D01*
X83640000Y-48890000D02*
X98860000Y-48890000D01*
X83640000Y-50690000D02*
X83640000Y-48890000D01*
X98860000Y-50690000D02*
X83640000Y-50690000D01*
X98860000Y-48890000D02*
X98860000Y-50690000D01*
X83640000Y-59610000D02*
X98860000Y-59610000D01*
X83640000Y-47390000D02*
X83640000Y-59610000D01*
X98860000Y-47390000D02*
X83640000Y-47390000D01*
X98860000Y-59610000D02*
X98860000Y-47390000D01*
X156391000Y-134458000D02*
X157721000Y-134458000D01*
X156391000Y-135788000D02*
X156391000Y-134458000D01*
X158991000Y-134458000D02*
X161591000Y-134458000D01*
X158991000Y-137058000D02*
X158991000Y-134458000D01*
X156391000Y-137058000D02*
X158991000Y-137058000D01*
X161591000Y-134458000D02*
X161591000Y-154898000D01*
X156391000Y-137058000D02*
X156391000Y-154898000D01*
X156391000Y-154898000D02*
X161591000Y-154898000D01*
X128389000Y-91739100D02*
X117889000Y-91739100D01*
X128389000Y-109759100D02*
X128389000Y-91739100D01*
X117889000Y-109759100D02*
X128389000Y-109759100D01*
X117889000Y-91739100D02*
X117889000Y-109759100D01*
X125389000Y-91799100D02*
X124139000Y-91799100D01*
X125389000Y-109699100D02*
X125389000Y-91799100D01*
X120889000Y-109699100D02*
X125389000Y-109699100D01*
X120889000Y-91799100D02*
X120889000Y-109699100D01*
X122139000Y-91799100D02*
X120889000Y-91799100D01*
X124139000Y-91799100D02*
G75*
G02X122139000Y-91799100I-1000000J0D01*
G01*
X95557323Y-83321432D02*
X97447118Y-81069262D01*
X95373472Y-83167163D02*
X97263268Y-80914993D01*
X95465397Y-83244298D02*
X97355193Y-80992127D01*
X91997879Y-78415756D02*
X92932453Y-79199957D01*
X98034309Y-83480922D02*
X97099735Y-82696721D01*
X91987556Y-80326042D02*
X96154837Y-83822807D01*
X93877351Y-78073871D02*
X91987556Y-80326042D01*
X98044633Y-81570636D02*
X93877351Y-78073871D01*
X96154837Y-83822807D02*
X98044633Y-81570636D01*
X89456320Y-84019043D02*
X87986320Y-86565157D01*
X87986320Y-86565157D02*
X92697498Y-89285157D01*
X92697498Y-89285157D02*
X94167498Y-86739043D01*
X94167498Y-86739043D02*
X89456320Y-84019043D01*
X87664769Y-84682100D02*
X88721320Y-85292100D01*
X94489049Y-88622100D02*
X93432498Y-88012100D01*
X90235743Y-84469043D02*
X88765743Y-87015157D01*
X90339666Y-84529043D02*
X88869666Y-87075157D01*
X90131820Y-84409043D02*
X88661820Y-86955157D01*
X139950500Y-153298000D02*
X139950500Y-148098000D01*
X91630500Y-153298000D02*
X139950500Y-153298000D01*
X89030500Y-148098000D02*
X139950500Y-148098000D01*
X91630500Y-153298000D02*
X91630500Y-150698000D01*
X91630500Y-150698000D02*
X89030500Y-150698000D01*
X89030500Y-150698000D02*
X89030500Y-148098000D01*
X90360500Y-153298000D02*
X89030500Y-153298000D01*
X89030500Y-153298000D02*
X89030500Y-151968000D01*
X120300000Y-59910000D02*
X119700000Y-59910000D01*
X120000000Y-59310000D02*
X120300000Y-59910000D01*
X119700000Y-59910000D02*
X120000000Y-59310000D01*
X113250000Y-48390000D02*
X113500000Y-46890000D01*
X111750000Y-48390000D02*
X113250000Y-48390000D01*
X111500000Y-46890000D02*
X111750000Y-48390000D01*
X113500000Y-46890000D02*
X111500000Y-46890000D01*
X120750000Y-48390000D02*
X121000000Y-46890000D01*
X119250000Y-48390000D02*
X120750000Y-48390000D01*
X119000000Y-46890000D02*
X119250000Y-48390000D01*
X121000000Y-46890000D02*
X119000000Y-46890000D01*
X108640000Y-48390000D02*
X123860000Y-48390000D01*
X108640000Y-50190000D02*
X108640000Y-48390000D01*
X123860000Y-50190000D02*
X108640000Y-50190000D01*
X123860000Y-48390000D02*
X123860000Y-50190000D01*
X108640000Y-59110000D02*
X123860000Y-59110000D01*
X108640000Y-46890000D02*
X108640000Y-59110000D01*
X123860000Y-46890000D02*
X108640000Y-46890000D01*
X123860000Y-59110000D02*
X123860000Y-46890000D01*
X147860000Y-59110000D02*
X147860000Y-46890000D01*
X147860000Y-46890000D02*
X132640000Y-46890000D01*
X132640000Y-46890000D02*
X132640000Y-59110000D01*
X132640000Y-59110000D02*
X147860000Y-59110000D01*
X147860000Y-48390000D02*
X147860000Y-50190000D01*
X147860000Y-50190000D02*
X132640000Y-50190000D01*
X132640000Y-50190000D02*
X132640000Y-48390000D01*
X132640000Y-48390000D02*
X147860000Y-48390000D01*
X145000000Y-46890000D02*
X143000000Y-46890000D01*
X143000000Y-46890000D02*
X143250000Y-48390000D01*
X143250000Y-48390000D02*
X144750000Y-48390000D01*
X144750000Y-48390000D02*
X145000000Y-46890000D01*
X137500000Y-46890000D02*
X135500000Y-46890000D01*
X135500000Y-46890000D02*
X135750000Y-48390000D01*
X135750000Y-48390000D02*
X137250000Y-48390000D01*
X137250000Y-48390000D02*
X137500000Y-46890000D01*
X143700000Y-59910000D02*
X144000000Y-59310000D01*
X144000000Y-59310000D02*
X144300000Y-59910000D01*
X144300000Y-59910000D02*
X143700000Y-59910000D01*
X113836000Y-95070300D02*
X113836000Y-105310300D01*
X109195000Y-95070300D02*
X109195000Y-105310300D01*
X113836000Y-95070300D02*
X109195000Y-95070300D01*
X113836000Y-105310300D02*
X109195000Y-105310300D01*
X112326000Y-95070300D02*
X112326000Y-105310300D01*
X113836000Y-98340300D02*
X112326000Y-98340300D01*
X113836000Y-102041300D02*
X112326000Y-102041300D01*
X125000000Y-66120000D02*
X125000000Y-68770000D01*
X125000000Y-83560000D02*
X125000000Y-80910000D01*
X122630000Y-68770000D02*
X122630000Y-80910000D01*
X127370000Y-68770000D02*
X122630000Y-68770000D01*
X127370000Y-80910000D02*
X127370000Y-68770000D01*
X122630000Y-80910000D02*
X127370000Y-80910000D01*
X132492520Y-80272956D02*
X136597480Y-82642956D01*
X136597480Y-82642956D02*
X142667480Y-72129408D01*
X142667480Y-72129408D02*
X138562520Y-69759408D01*
X138562520Y-69759408D02*
X132492520Y-80272956D01*
X133220000Y-83752923D02*
X134545000Y-81457956D01*
X141940000Y-68649440D02*
X140615000Y-70944408D01*
X153850560Y-80560000D02*
X151555592Y-81885000D01*
X138747077Y-89280000D02*
X141042044Y-87955000D01*
X150370592Y-79832520D02*
X139857044Y-85902520D01*
X152740592Y-83937480D02*
X150370592Y-79832520D01*
X142227044Y-90007480D02*
X152740592Y-83937480D01*
X139857044Y-85902520D02*
X142227044Y-90007480D01*
X144090000Y-95130000D02*
X144090000Y-99870000D01*
X144090000Y-99870000D02*
X156230000Y-99870000D01*
X156230000Y-99870000D02*
X156230000Y-95130000D01*
X156230000Y-95130000D02*
X144090000Y-95130000D01*
X141440000Y-97500000D02*
X144090000Y-97500000D01*
X158880000Y-97500000D02*
X156230000Y-97500000D01*
X157975170Y-107558478D02*
X155365430Y-107098310D01*
X140800123Y-104530053D02*
X143409864Y-104990221D01*
X155776976Y-104764316D02*
X143821410Y-102656227D01*
X154953884Y-109432304D02*
X155776976Y-104764316D01*
X142998318Y-107324215D02*
X154953884Y-109432304D01*
X143821410Y-102656227D02*
X142998318Y-107324215D01*
X149158956Y-121292480D02*
X151528956Y-117187520D01*
X151528956Y-117187520D02*
X141015408Y-111117520D01*
X141015408Y-111117520D02*
X138645408Y-115222480D01*
X138645408Y-115222480D02*
X149158956Y-121292480D01*
X152638923Y-120565000D02*
X150343956Y-119240000D01*
X137535440Y-111845000D02*
X139830408Y-113170000D01*
X143910830Y-131975919D02*
X142207443Y-129945901D01*
X132700614Y-118616104D02*
X134404001Y-120646122D01*
X144022968Y-128422495D02*
X136219527Y-119122715D01*
X140391918Y-131469308D02*
X144022968Y-128422495D01*
X132588476Y-122169528D02*
X140391918Y-131469308D01*
X136219527Y-119122715D02*
X132588476Y-122169528D01*
X129050934Y-124634755D02*
X124596791Y-126255931D01*
X124596791Y-126255931D02*
X128748915Y-137663799D01*
X128748915Y-137663799D02*
X133203058Y-136042623D01*
X133203058Y-136042623D02*
X129050934Y-124634755D01*
X125917509Y-122955157D02*
X126823862Y-125445343D01*
X131882340Y-139343397D02*
X130975987Y-136853211D01*
X117183000Y-141994000D02*
X117183000Y-139344000D01*
X117183000Y-124554000D02*
X117183000Y-127204000D01*
X119553000Y-139344000D02*
X119553000Y-127204000D01*
X114813000Y-139344000D02*
X119553000Y-139344000D01*
X114813000Y-127204000D02*
X114813000Y-139344000D01*
X119553000Y-127204000D02*
X114813000Y-127204000D01*
X110157773Y-126740410D02*
X105489785Y-125917318D01*
X105489785Y-125917318D02*
X103381696Y-137872884D01*
X103381696Y-137872884D02*
X108049684Y-138695976D01*
X108049684Y-138695976D02*
X110157773Y-126740410D01*
X108283947Y-123719123D02*
X107823779Y-126328864D01*
X105255522Y-140894170D02*
X105715690Y-138284430D01*
X89566170Y-133652919D02*
X91269557Y-131622901D01*
X100776386Y-120293104D02*
X99072999Y-122323122D01*
X93085082Y-133146308D02*
X100888524Y-123846528D01*
X89454032Y-130099495D02*
X93085082Y-133146308D01*
X97257473Y-120799715D02*
X89454032Y-130099495D01*
X100888524Y-123846528D02*
X97257473Y-120799715D01*
X94518556Y-117051480D02*
X92148556Y-112946520D01*
X92148556Y-112946520D02*
X81635008Y-119016520D01*
X81635008Y-119016520D02*
X84005008Y-123121480D01*
X84005008Y-123121480D02*
X94518556Y-117051480D01*
X95628523Y-113674000D02*
X93333556Y-114999000D01*
X80525040Y-122394000D02*
X82820008Y-121069000D01*
X78101818Y-106073785D02*
X78924910Y-110741773D01*
X78924910Y-110741773D02*
X90880476Y-108633684D01*
X90880476Y-108633684D02*
X90057384Y-103965696D01*
X90057384Y-103965696D02*
X78101818Y-106073785D01*
X75903623Y-108867947D02*
X78513364Y-108407779D01*
X93078670Y-105839522D02*
X90468930Y-106299690D01*
X93547697Y-97490940D02*
X91057511Y-96584587D01*
X77159457Y-91526109D02*
X79649643Y-92432462D01*
X91868099Y-94357515D02*
X80460231Y-90205391D01*
X90246923Y-98811658D02*
X91868099Y-94357515D01*
X78839055Y-94659534D02*
X90246923Y-98811658D01*
X80460231Y-90205391D02*
X78839055Y-94659534D01*
D13*
X163525000Y-48850000D02*
X163100000Y-48850000D01*
X163525000Y-48875000D02*
X163525000Y-49325000D01*
X163525000Y-61750000D02*
X163525000Y-61300000D01*
X163525000Y-61750000D02*
X163100000Y-61750000D01*
X156475000Y-61750000D02*
X156850000Y-61750000D01*
X156475000Y-61750000D02*
X156475000Y-61350000D01*
X156475000Y-49225000D02*
X156475000Y-48850000D01*
X156475000Y-48850000D02*
X156825000Y-48850000D01*
D10*
X62690700Y-77682400D02*
X65350700Y-77682400D01*
X62690700Y-67462400D02*
X62690700Y-77682400D01*
X65350700Y-67462400D02*
X65350700Y-77682400D01*
X62690700Y-67462400D02*
X65350700Y-67462400D01*
X62690700Y-66192400D02*
X62690700Y-64862400D01*
X62690700Y-64862400D02*
X64020700Y-64862400D01*
D11*
X90916666Y-60152380D02*
X90916666Y-60866666D01*
X90869047Y-61009523D01*
X90773809Y-61104761D01*
X90630952Y-61152380D01*
X90535714Y-61152380D01*
X91869047Y-60152380D02*
X91392857Y-60152380D01*
X91345238Y-60628571D01*
X91392857Y-60580952D01*
X91488095Y-60533333D01*
X91726190Y-60533333D01*
X91821428Y-60580952D01*
X91869047Y-60628571D01*
X91916666Y-60723809D01*
X91916666Y-60961904D01*
X91869047Y-61057142D01*
X91821428Y-61104761D01*
X91726190Y-61152380D01*
X91488095Y-61152380D01*
X91392857Y-61104761D01*
X91345238Y-61057142D01*
X158657666Y-132910380D02*
X158657666Y-133624666D01*
X158610047Y-133767523D01*
X158514809Y-133862761D01*
X158371952Y-133910380D01*
X158276714Y-133910380D01*
X159086238Y-133005619D02*
X159133857Y-132958000D01*
X159229095Y-132910380D01*
X159467190Y-132910380D01*
X159562428Y-132958000D01*
X159610047Y-133005619D01*
X159657666Y-133100857D01*
X159657666Y-133196095D01*
X159610047Y-133338952D01*
X159038619Y-133910380D01*
X159657666Y-133910380D01*
X122377095Y-90251480D02*
X122377095Y-91061004D01*
X122424714Y-91156242D01*
X122472333Y-91203861D01*
X122567571Y-91251480D01*
X122758047Y-91251480D01*
X122853285Y-91203861D01*
X122900904Y-91156242D01*
X122948523Y-91061004D01*
X122948523Y-90251480D01*
X123377095Y-90346719D02*
X123424714Y-90299100D01*
X123519952Y-90251480D01*
X123758047Y-90251480D01*
X123853285Y-90299100D01*
X123900904Y-90346719D01*
X123948523Y-90441957D01*
X123948523Y-90537195D01*
X123900904Y-90680052D01*
X123329476Y-91251480D01*
X123948523Y-91251480D01*
X92572210Y-82712574D02*
X93214997Y-81946529D01*
X93397389Y-82099574D01*
X93476215Y-82227879D01*
X93487954Y-82362054D01*
X93463214Y-82465619D01*
X93377257Y-82642141D01*
X93285430Y-82751576D01*
X93126516Y-82866881D01*
X93028820Y-82909228D01*
X92894645Y-82920967D01*
X92754601Y-82865619D01*
X92572210Y-82712574D01*
X93739516Y-83692060D02*
X93301776Y-83324753D01*
X93520646Y-83508406D02*
X94163433Y-82742362D01*
X93998650Y-82790579D01*
X93864476Y-82802318D01*
X93760910Y-82777578D01*
X97194888Y-85847378D02*
X97837676Y-85081334D01*
X97632628Y-86214685D02*
X97671630Y-85501465D01*
X98275415Y-85448641D02*
X97470368Y-85519074D01*
X91446509Y-84535742D02*
X91946509Y-83669717D01*
X92152705Y-83788764D01*
X92252614Y-83901432D01*
X92287473Y-84031530D01*
X92281094Y-84137818D01*
X92227095Y-84326585D01*
X92155666Y-84450303D01*
X92019189Y-84591451D01*
X91930330Y-84650120D01*
X91800233Y-84684979D01*
X91652705Y-84654790D01*
X91446509Y-84535742D01*
X92723676Y-84228386D02*
X92788725Y-84210956D01*
X92895013Y-84217336D01*
X93101209Y-84336384D01*
X93159878Y-84425242D01*
X93177308Y-84490291D01*
X93170928Y-84596579D01*
X93123309Y-84679057D01*
X93010642Y-84778966D01*
X92230056Y-84988123D01*
X92766167Y-85297647D01*
X87174493Y-82727473D02*
X87674493Y-81861447D01*
X87669365Y-83013187D02*
X87583925Y-82304029D01*
X88169365Y-82147161D02*
X87388779Y-82356319D01*
X87482880Y-151031333D02*
X88197166Y-151031333D01*
X88340023Y-151078952D01*
X88435261Y-151174190D01*
X88482880Y-151317047D01*
X88482880Y-151412285D01*
X88482880Y-150031333D02*
X88482880Y-150602761D01*
X88482880Y-150317047D02*
X87482880Y-150317047D01*
X87625738Y-150412285D01*
X87720976Y-150507523D01*
X87768595Y-150602761D01*
X115916666Y-59652380D02*
X115916666Y-60366666D01*
X115869047Y-60509523D01*
X115773809Y-60604761D01*
X115630952Y-60652380D01*
X115535714Y-60652380D01*
X116297619Y-59652380D02*
X116916666Y-59652380D01*
X116583333Y-60033333D01*
X116726190Y-60033333D01*
X116821428Y-60080952D01*
X116869047Y-60128571D01*
X116916666Y-60223809D01*
X116916666Y-60461904D01*
X116869047Y-60557142D01*
X116821428Y-60604761D01*
X116726190Y-60652380D01*
X116440476Y-60652380D01*
X116345238Y-60604761D01*
X116297619Y-60557142D01*
X139916666Y-59652380D02*
X139916666Y-60366666D01*
X139869047Y-60509523D01*
X139773809Y-60604761D01*
X139630952Y-60652380D01*
X139535714Y-60652380D01*
X140821428Y-59985714D02*
X140821428Y-60652380D01*
X140583333Y-59604761D02*
X140345238Y-60319047D01*
X140964285Y-60319047D01*
X115383619Y-100285538D02*
X115336000Y-100380776D01*
X115240761Y-100476014D01*
X115097904Y-100618871D01*
X115050285Y-100714109D01*
X115050285Y-100809347D01*
X115288380Y-100761728D02*
X115240761Y-100856966D01*
X115145523Y-100952204D01*
X114955047Y-100999823D01*
X114621714Y-100999823D01*
X114431238Y-100952204D01*
X114336000Y-100856966D01*
X114288380Y-100761728D01*
X114288380Y-100571252D01*
X114336000Y-100476014D01*
X114431238Y-100380776D01*
X114621714Y-100333157D01*
X114955047Y-100333157D01*
X115145523Y-100380776D01*
X115240761Y-100476014D01*
X115288380Y-100571252D01*
X115288380Y-100761728D01*
X115288380Y-99380776D02*
X115288380Y-99952204D01*
X115288380Y-99666490D02*
X114288380Y-99666490D01*
X114431238Y-99761728D01*
X114526476Y-99856966D01*
X114574095Y-99952204D01*
X122082380Y-75006666D02*
X121606190Y-75340000D01*
X122082380Y-75578095D02*
X121082380Y-75578095D01*
X121082380Y-75197142D01*
X121130000Y-75101904D01*
X121177619Y-75054285D01*
X121272857Y-75006666D01*
X121415714Y-75006666D01*
X121510952Y-75054285D01*
X121558571Y-75101904D01*
X121606190Y-75197142D01*
X121606190Y-75578095D01*
X122082380Y-74054285D02*
X122082380Y-74625714D01*
X122082380Y-74340000D02*
X121082380Y-74340000D01*
X121225238Y-74435238D01*
X121320476Y-74530476D01*
X121368095Y-74625714D01*
X134969934Y-74886710D02*
X134390874Y-74937289D01*
X134684219Y-75381581D02*
X133818194Y-74881581D01*
X134008670Y-74551667D01*
X134097528Y-74492998D01*
X134162577Y-74475568D01*
X134268865Y-74481948D01*
X134392583Y-74553376D01*
X134451252Y-74642235D01*
X134468682Y-74707283D01*
X134462302Y-74813572D01*
X134271826Y-75143486D01*
X134376863Y-74104414D02*
X134359433Y-74039365D01*
X134365813Y-73933077D01*
X134484861Y-73726881D01*
X134573719Y-73668212D01*
X134638768Y-73650782D01*
X134745056Y-73657162D01*
X134827534Y-73704781D01*
X134927443Y-73817448D01*
X135136600Y-74598034D01*
X135446124Y-74061923D01*
X144695670Y-82476600D02*
X144168900Y-82230874D01*
X144200799Y-82762315D02*
X143700799Y-81896289D01*
X144030713Y-81705813D01*
X144137001Y-81699433D01*
X144202050Y-81716863D01*
X144290909Y-81775532D01*
X144362337Y-81899250D01*
X144368717Y-82005538D01*
X144351287Y-82070587D01*
X144292618Y-82159445D01*
X143962704Y-82349921D01*
X144484346Y-81443908D02*
X145020457Y-81134384D01*
X144922258Y-81630965D01*
X145045975Y-81559537D01*
X145152264Y-81553157D01*
X145217312Y-81570587D01*
X145306171Y-81629256D01*
X145425218Y-81835453D01*
X145431598Y-81941741D01*
X145414168Y-82006789D01*
X145355499Y-82095648D01*
X145108063Y-82238505D01*
X145001775Y-82244885D01*
X144936726Y-82227455D01*
X149993333Y-94582380D02*
X149660000Y-94106190D01*
X149421904Y-94582380D02*
X149421904Y-93582380D01*
X149802857Y-93582380D01*
X149898095Y-93630000D01*
X149945714Y-93677619D01*
X149993333Y-93772857D01*
X149993333Y-93915714D01*
X149945714Y-94010952D01*
X149898095Y-94058571D01*
X149802857Y-94106190D01*
X149421904Y-94106190D01*
X150850476Y-93915714D02*
X150850476Y-94582380D01*
X150612380Y-93534761D02*
X150374285Y-94249047D01*
X150993333Y-94249047D01*
X149730151Y-103142029D02*
X149484571Y-102615191D01*
X149167403Y-103042802D02*
X149341052Y-102057994D01*
X149716216Y-102124146D01*
X149801739Y-102187579D01*
X149840365Y-102242744D01*
X149870723Y-102344804D01*
X149845916Y-102485491D01*
X149782483Y-102571013D01*
X149727318Y-102609640D01*
X149625258Y-102639997D01*
X149250093Y-102573846D01*
X150794815Y-102314332D02*
X150325859Y-102231642D01*
X150196274Y-102692329D01*
X150251439Y-102653703D01*
X150353499Y-102623345D01*
X150587977Y-102664690D01*
X150673499Y-102728123D01*
X150712126Y-102783288D01*
X150742484Y-102885348D01*
X150701139Y-103119826D01*
X150637705Y-103205348D01*
X150582541Y-103243975D01*
X150480480Y-103274333D01*
X150246002Y-103232988D01*
X150160480Y-103169554D01*
X150121854Y-103114390D01*
X143031653Y-119431946D02*
X142981074Y-118852886D01*
X142536782Y-119146231D02*
X143036782Y-118280206D01*
X143366696Y-118470682D01*
X143425365Y-118559540D01*
X143442795Y-118624589D01*
X143436415Y-118730877D01*
X143364987Y-118854595D01*
X143276128Y-118913264D01*
X143211080Y-118930694D01*
X143104791Y-118924314D01*
X142774877Y-118733838D01*
X144273961Y-118994492D02*
X144109004Y-118899253D01*
X144002716Y-118892874D01*
X143937667Y-118910304D01*
X143783760Y-118986402D01*
X143647282Y-119127550D01*
X143456806Y-119457465D01*
X143450426Y-119563753D01*
X143467856Y-119628801D01*
X143526525Y-119717660D01*
X143691482Y-119812898D01*
X143797770Y-119819278D01*
X143862819Y-119801848D01*
X143951678Y-119743179D01*
X144070725Y-119536982D01*
X144077105Y-119430694D01*
X144059675Y-119365645D01*
X144001006Y-119276787D01*
X143836049Y-119181549D01*
X143729761Y-119175169D01*
X143664712Y-119192599D01*
X143575854Y-119251268D01*
X140433616Y-123292927D02*
X140584137Y-122731490D01*
X140066309Y-122855188D02*
X140832354Y-122212400D01*
X141077225Y-122504226D01*
X141101965Y-122607792D01*
X141096095Y-122674879D01*
X141053748Y-122772575D01*
X140944313Y-122864402D01*
X140840747Y-122889142D01*
X140773660Y-122883272D01*
X140675964Y-122840925D01*
X140431092Y-122549098D01*
X141413923Y-122905488D02*
X141842448Y-123416184D01*
X140800924Y-123730667D01*
X131584586Y-129994776D02*
X131918052Y-129518679D01*
X131389146Y-129457809D02*
X132328839Y-129115789D01*
X132459132Y-129473767D01*
X132446958Y-129579548D01*
X132418498Y-129640582D01*
X132345290Y-129717903D01*
X132211048Y-129766763D01*
X132105267Y-129754589D01*
X132044233Y-129726129D01*
X131966912Y-129652921D01*
X131836619Y-129294943D01*
X132316993Y-130336304D02*
X132329167Y-130230522D01*
X132357628Y-130169488D01*
X132430836Y-130092168D01*
X132475583Y-130075881D01*
X132581364Y-130088055D01*
X132642398Y-130116516D01*
X132719719Y-130189724D01*
X132784865Y-130368713D01*
X132772692Y-130474494D01*
X132744231Y-130535528D01*
X132671023Y-130612848D01*
X132626276Y-130629135D01*
X132520495Y-130616961D01*
X132459461Y-130588501D01*
X132382140Y-130515293D01*
X132316993Y-130336304D01*
X132239673Y-130263096D01*
X132178639Y-130234635D01*
X132072858Y-130222461D01*
X131893869Y-130287608D01*
X131820661Y-130364929D01*
X131792200Y-130425962D01*
X131780026Y-130531744D01*
X131845173Y-130710733D01*
X131922493Y-130783941D01*
X131983527Y-130812401D01*
X132089309Y-130824575D01*
X132268298Y-130759428D01*
X132341506Y-130682108D01*
X132369966Y-130621074D01*
X132382140Y-130515293D01*
X121005380Y-133440666D02*
X120529190Y-133774000D01*
X121005380Y-134012095D02*
X120005380Y-134012095D01*
X120005380Y-133631142D01*
X120053000Y-133535904D01*
X120100619Y-133488285D01*
X120195857Y-133440666D01*
X120338714Y-133440666D01*
X120433952Y-133488285D01*
X120481571Y-133535904D01*
X120529190Y-133631142D01*
X120529190Y-134012095D01*
X121005380Y-132964476D02*
X121005380Y-132774000D01*
X120957761Y-132678761D01*
X120910142Y-132631142D01*
X120767285Y-132535904D01*
X120576809Y-132488285D01*
X120195857Y-132488285D01*
X120100619Y-132535904D01*
X120053000Y-132583523D01*
X120005380Y-132678761D01*
X120005380Y-132869238D01*
X120053000Y-132964476D01*
X120100619Y-133012095D01*
X120195857Y-133059714D01*
X120433952Y-133059714D01*
X120529190Y-133012095D01*
X120576809Y-132964476D01*
X120624428Y-132869238D01*
X120624428Y-132678761D01*
X120576809Y-132583523D01*
X120529190Y-132535904D01*
X120433952Y-132488285D01*
X110422414Y-133603486D02*
X109895575Y-133849066D01*
X110323186Y-134166234D02*
X109338379Y-133992585D01*
X109404530Y-133617421D01*
X109467964Y-133531898D01*
X109523128Y-133493272D01*
X109625188Y-133462914D01*
X109765875Y-133487721D01*
X109851398Y-133551154D01*
X109890024Y-133606319D01*
X109920382Y-133708379D01*
X109854230Y-134083544D01*
X110587793Y-132665574D02*
X110488565Y-133228321D01*
X110538179Y-132946948D02*
X109553371Y-132773300D01*
X109677520Y-132891898D01*
X109754774Y-133002227D01*
X109785131Y-133104287D01*
X109710482Y-131882283D02*
X109727020Y-131788492D01*
X109790453Y-131702970D01*
X109845618Y-131664343D01*
X109947678Y-131633985D01*
X110143529Y-131620166D01*
X110378007Y-131661510D01*
X110557321Y-131741482D01*
X110642843Y-131804915D01*
X110681470Y-131860080D01*
X110711827Y-131962140D01*
X110695290Y-132055931D01*
X110631856Y-132141454D01*
X110576691Y-132180080D01*
X110474631Y-132210438D01*
X110278780Y-132224258D01*
X110044302Y-132182913D01*
X109864988Y-132102941D01*
X109779466Y-132039508D01*
X109740839Y-131984343D01*
X109710482Y-131882283D01*
X97686171Y-129922448D02*
X97107125Y-129871706D01*
X97318864Y-130360187D02*
X96552819Y-129717400D01*
X96797691Y-129425573D01*
X96895387Y-129383225D01*
X96962474Y-129377356D01*
X97066040Y-129402096D01*
X97175475Y-129493922D01*
X97217822Y-129591619D01*
X97223692Y-129658706D01*
X97198952Y-129762271D01*
X96954081Y-130054098D01*
X98298349Y-129192881D02*
X97931042Y-129630621D01*
X98114696Y-129411751D02*
X97348651Y-128768964D01*
X97396868Y-128933747D01*
X97408607Y-129067922D01*
X97383868Y-129171487D01*
X98910528Y-128463315D02*
X98543221Y-128901055D01*
X98726875Y-128682185D02*
X97960830Y-128039397D01*
X98009047Y-128204181D01*
X98020786Y-128338355D01*
X97996046Y-128441921D01*
X89431241Y-121665707D02*
X88904471Y-121419981D01*
X88936370Y-121951422D02*
X88436370Y-121085396D01*
X88766284Y-120894920D01*
X88872572Y-120888540D01*
X88937621Y-120905970D01*
X89026479Y-120964639D01*
X89097908Y-121088357D01*
X89104288Y-121194645D01*
X89086858Y-121259694D01*
X89028189Y-121348553D01*
X88698274Y-121539029D01*
X90256027Y-121189517D02*
X89761156Y-121475231D01*
X90008592Y-121332374D02*
X89508592Y-120466349D01*
X89497542Y-120637686D01*
X89462682Y-120767783D01*
X89404013Y-120856642D01*
X90133561Y-120215494D02*
X90150991Y-120150445D01*
X90209660Y-120061587D01*
X90415856Y-119942539D01*
X90522144Y-119936159D01*
X90587193Y-119953589D01*
X90676052Y-120012258D01*
X90723671Y-120094737D01*
X90753860Y-120242264D01*
X90544703Y-121022850D01*
X91080814Y-120713327D01*
X83351416Y-104592071D02*
X82940457Y-104180997D01*
X82788669Y-104691298D02*
X82615020Y-103706491D01*
X82990185Y-103640339D01*
X83092245Y-103670697D01*
X83147410Y-103709323D01*
X83210844Y-103794845D01*
X83235650Y-103935532D01*
X83205293Y-104037592D01*
X83166666Y-104092757D01*
X83081144Y-104156191D01*
X82705979Y-104222342D01*
X84289328Y-104426692D02*
X83726581Y-104525919D01*
X84007954Y-104476305D02*
X83834306Y-103491498D01*
X83765322Y-103648722D01*
X83688069Y-103759051D01*
X83602546Y-103822485D01*
X84443949Y-103384001D02*
X85053592Y-103276505D01*
X84791474Y-103709552D01*
X84932161Y-103684745D01*
X85034221Y-103715103D01*
X85089386Y-103753730D01*
X85152820Y-103839252D01*
X85194164Y-104073730D01*
X85163807Y-104175790D01*
X85125180Y-104230955D01*
X85039658Y-104294388D01*
X84758284Y-104344002D01*
X84656224Y-104313644D01*
X84601059Y-104275018D01*
X85747373Y-91546989D02*
X85597009Y-90985510D01*
X85210406Y-91351549D02*
X85552426Y-90411857D01*
X85910404Y-90542150D01*
X85983612Y-90619471D01*
X86012073Y-90680505D01*
X86024246Y-90786286D01*
X85975386Y-90920528D01*
X85898066Y-90993736D01*
X85837032Y-91022196D01*
X85731251Y-91034370D01*
X85373273Y-90904077D01*
X86642318Y-91872723D02*
X86105351Y-91677283D01*
X86373835Y-91775003D02*
X86715855Y-90835310D01*
X86577500Y-90936979D01*
X86455432Y-90993900D01*
X86349651Y-91006074D01*
X87675783Y-91539421D02*
X87447769Y-92165883D01*
X87582340Y-91100010D02*
X87114303Y-91689785D01*
X87696018Y-91901512D01*
X155854761Y-56493333D02*
X155902380Y-56350476D01*
X155902380Y-56112380D01*
X155854761Y-56017142D01*
X155807142Y-55969523D01*
X155711904Y-55921904D01*
X155616666Y-55921904D01*
X155521428Y-55969523D01*
X155473809Y-56017142D01*
X155426190Y-56112380D01*
X155378571Y-56302857D01*
X155330952Y-56398095D01*
X155283333Y-56445714D01*
X155188095Y-56493333D01*
X155092857Y-56493333D01*
X154997619Y-56445714D01*
X154950000Y-56398095D01*
X154902380Y-56302857D01*
X154902380Y-56064761D01*
X154950000Y-55921904D01*
X154902380Y-55588571D02*
X155902380Y-55350476D01*
X155188095Y-55160000D01*
X155902380Y-54969523D01*
X154902380Y-54731428D01*
X155902380Y-53826666D02*
X155902380Y-54398095D01*
X155902380Y-54112380D02*
X154902380Y-54112380D01*
X155045238Y-54207619D01*
X155140476Y-54302857D01*
X155188095Y-54398095D01*
X63258795Y-63314780D02*
X63258795Y-64124304D01*
X63306414Y-64219542D01*
X63354033Y-64267161D01*
X63449271Y-64314780D01*
X63639747Y-64314780D01*
X63734985Y-64267161D01*
X63782604Y-64219542D01*
X63830223Y-64124304D01*
X63830223Y-63314780D01*
X64830223Y-64314780D02*
X64258795Y-64314780D01*
X64544509Y-64314780D02*
X64544509Y-63314780D01*
X64449271Y-63457638D01*
X64354033Y-63552876D01*
X64258795Y-63600495D01*
M02*
