M48
; DRILL file {KiCad (5.1.4)-1} date Wed, 3/17/2021 2:01:11 AM
; FORMAT={-:-/ absolute / inch / decimal}
; #@! TF.CreationDate,2021-03-17T02:01:11-04:00
; #@! TF.GenerationSoftware,Kicad,Pcbnew,(5.1.4)-1
FMAT,2
INCH
T1C0.0157
T2C0.0315
T3C0.0354
T4C0.0394
T5C0.0433
T6C0.0472
T7C0.0551
T8C0.0728
T9C0.1575
%
G90
G05
T1
X3.4923Y-6.0012
X3.6417Y-5.1534
X3.6939Y-4.6925
X4.2575Y-6.1425
X4.5389Y-2.1445
X4.5848Y-5.8051
X5.0689Y-5.0532
X5.1496Y-5.6645
X5.309Y-5.7432
X5.5188Y-5.6645
X5.5711Y-5.0154
X5.5938Y-5.3571
X5.6095Y-5.8937
X5.6165Y-5.446
X5.6733Y-5.7294
X5.7087Y-5.546
X5.7422Y-5.8665
X5.7695Y-5.646
X5.8564Y-6.0814
X5.973Y-5.8831
X6.0934Y-6.1416
X6.2137Y-5.2372
T2
X4.698Y-3.6665
X4.698Y-3.7665
X4.698Y-3.8665
X4.698Y-3.9665
X4.698Y-4.0665
X4.698Y-4.1665
X4.698Y-4.2665
X4.998Y-3.6665
X4.998Y-3.7665
X4.998Y-3.8665
X4.998Y-3.9665
X4.998Y-4.0665
X4.998Y-4.1665
X4.998Y-4.2665
T3
X3.4125Y-3.3115
X3.7589Y-3.5115
X3.5876Y-3.0584
X3.894Y-3.3155
T4
X6.2095Y-5.346
X6.2095Y-5.446
X6.2095Y-5.546
X6.2095Y-5.646
X6.2095Y-5.746
X6.2095Y-5.846
X6.2095Y-5.946
X6.2095Y-6.046
X6.3095Y-5.346
X6.3095Y-5.446
X6.3095Y-5.546
X6.3095Y-5.646
X6.3095Y-5.746
X6.3095Y-5.846
X6.3095Y-5.946
X6.3095Y-6.046
X3.5575Y-5.883
X3.5575Y-5.983
X3.6575Y-5.883
X3.6575Y-5.983
X3.7575Y-5.883
X3.7575Y-5.983
X3.8575Y-5.883
X3.8575Y-5.983
X3.9575Y-5.883
X3.9575Y-5.983
X4.0575Y-5.883
X4.0575Y-5.983
X4.1575Y-5.883
X4.1575Y-5.983
X4.2575Y-5.883
X4.2575Y-5.983
X4.3575Y-5.883
X4.3575Y-5.983
X4.4575Y-5.883
X4.4575Y-5.983
X4.5575Y-5.883
X4.5575Y-5.983
X4.6575Y-5.883
X4.6575Y-5.983
X4.7575Y-5.883
X4.7575Y-5.983
X4.8575Y-5.883
X4.8575Y-5.983
X4.9575Y-5.883
X4.9575Y-5.983
X5.0575Y-5.883
X5.0575Y-5.983
X5.1575Y-5.883
X5.1575Y-5.983
X5.2575Y-5.883
X5.2575Y-5.983
X5.3575Y-5.883
X5.3575Y-5.983
X5.4575Y-5.883
X5.4575Y-5.983
X2.5205Y-2.606
X2.5205Y-2.706
X2.5205Y-2.806
X2.5205Y-2.906
X2.5205Y-3.006
T5
X4.353Y-3.8445
X4.353Y-3.9445
X4.353Y-4.0445
T6
X2.9325Y-4.296
X3.7203Y-4.1571
X5.188Y-4.6265
X5.7022Y-5.2393
X5.5118Y-3.8386
X6.3118Y-3.8386
X5.4134Y-3.5433
X6.1062Y-3.1433
X3.1212Y-4.847
X3.814Y-4.447
X2.9845Y-3.584
X3.7363Y-3.8576
X4.9213Y-2.5465
X4.9213Y-3.3465
X5.4875Y-4.1055
X6.2753Y-4.2444
X5.2165Y-3.3465
X5.6165Y-2.6536
X4.938Y-4.7875
X5.2116Y-5.5392
X4.6135Y-4.847
X4.6135Y-5.647
X3.4898Y-5.3054
X4.004Y-4.6925
X5.3657Y-4.375
X6.0585Y-4.775
X4.1341Y-5.6028
X4.273Y-4.815
T7
X4.4291Y-2.2441
X4.7244Y-2.2441
X5.374Y-2.2441
X5.6693Y-2.2441
X3.4449Y-2.2638
X3.7402Y-2.2638
T8
X6.2992Y-1.9921
X6.2992Y-2.1772
X6.2992Y-2.3622
T9
X6.6929Y-6.1024
X2.5591Y-1.9685
X2.5591Y-6.1024
X6.6929Y-1.9685
T0
M30
